<svg xmlns="http://www.w3.org/2000/svg" xmlns:xlink="http://www.w3.org/1999/xlink" width="256" height="256" style="isolation:isolate" viewBox="0 0 192 192"><defs><linearGradient id="a"><stop offset="0" stop-color="#3d3846"/><stop offset="1" stop-color="#9a9996"/></linearGradient><linearGradient id="b"><stop offset="0" stop-color="#9a9996"/><stop offset=".5" stop-color="#fff"/><stop offset="1" stop-color="#c0bfbc"/></linearGradient><linearGradient xlink:href="#a" id="d" x1="1275.7" x2="281.12" y1="760" y2="760" gradientTransform="translate(-3.032 14.147) scale(.15158)" gradientUnits="userSpaceOnUse"/><linearGradient id="n" x1="82" x2="82" y1="47" y2="65" gradientTransform="matrix(1.5 0 0 1.5556 340.45 149.56)" gradientUnits="userSpaceOnUse"><stop offset="0" stop-color="#1c71d8"/><stop offset=".5" stop-color="#3584e4"/><stop offset="1" stop-color="#1a5fb4"/></linearGradient><linearGradient id="o" x1="82" x2="82" y1="47" y2="65" gradientTransform="matrix(1.5 0 0 1.5556 358.45 149.56)" gradientUnits="userSpaceOnUse"><stop offset="0" stop-color="#2ec27e"/><stop offset=".5" stop-color="#33d17a"/><stop offset="1" stop-color="#26a269"/></linearGradient><linearGradient id="p" x1="82" x2="82" y1="47" y2="65" gradientTransform="matrix(1.5 0 0 1.5556 394.45 149.56)" gradientUnits="userSpaceOnUse"><stop offset="0" stop-color="#c01c28"/><stop offset=".5" stop-color="#e01b24"/><stop offset="1" stop-color="#a51d2d"/></linearGradient><linearGradient id="q" x1="82" x2="82" y1="47" y2="65" gradientTransform="matrix(1.5 0 0 1.5556 376.45 149.56)" gradientUnits="userSpaceOnUse"><stop offset="0" stop-color="#f5c211"/><stop offset=".5" stop-color="#f6d32d"/><stop offset="1" stop-color="#e5a50a"/></linearGradient><linearGradient xlink:href="#b" id="j" x1="46" x2="46" y1="232" y2="228" gradientTransform="matrix(.59375 0 0 1.5 -561.2 -108.33)" gradientUnits="userSpaceOnUse"/><linearGradient xlink:href="#b" id="k" x1="46" x2="46" y1="232" y2="228" gradientTransform="matrix(1.1875 0 0 1.5 459.95 -602.67)" gradientUnits="userSpaceOnUse"/><linearGradient xlink:href="#b" id="l" x1="46" x2="46" y1="232" y2="228" gradientTransform="matrix(0 -.8125 -1.5 0 878.45 292.17)" gradientUnits="userSpaceOnUse"/><linearGradient xlink:href="#b" id="m" x1="46" x2="46" y1="232" y2="228" gradientTransform="matrix(0 -.48469 -1.5 0 835.45 285.9)" gradientUnits="userSpaceOnUse"/><linearGradient id="r" x1="483.45" x2="497.45" y1="288.67" y2="288.67" gradientTransform="matrix(.85714 0 0 1.0556 70.064 -15.037)" gradientUnits="userSpaceOnUse"><stop offset="0" stop-color="#865e3c"/><stop offset=".5" stop-color="#b5835a"/><stop offset="1" stop-color="#865e3c"/></linearGradient><linearGradient xlink:href="#a" id="c" x1="1275.7" x2="281.12" y1="760" y2="760" gradientTransform="matrix(.10463 .04578 -.10463 .04578 -144.79 139.29)" gradientUnits="userSpaceOnUse"/><clipPath id="e"><rect width="112" height="88" x="-438.46" y="195.08" fill="#deddda" rx="8" ry="8" style="paint-order:normal"/></clipPath><clipPath id="i"><path fill="url(#c)" d="m-126.14 169.53-.195.086c-6.758 2.956-6.758 7.749 0 10.705l6.26 2.74c1.54.673 1.54 1.766 0 2.44l-1.145.501c-1.54.674-4.039.674-5.58 0l-48.063-21.028c-6.757-2.956-17.713-2.956-24.47 0l-.195.086c-6.757 2.956-6.757 7.749 0 10.706l35.686 15.613c1.54.674 1.54 1.767 0 2.44l-.698.306c-1.54.674-4.04.674-5.58 0l-1.507-.66c-6.757-2.955-17.713-2.955-24.47 0l-.195.086c-6.757 2.957-6.757 7.75 0 10.706l62.73 27.444c6.757 2.957 17.713 2.957 24.47 0l.195-.085c6.757-2.956 6.757-7.75 0-10.706l-6.226-2.724c-1.541-.674-1.541-1.767 0-2.441l.697-.306c1.541-.674 4.04-.674 5.58 0l17.38 7.604c6.758 2.956 17.714 2.956 24.47 0l.196-.085c6.757-2.957 6.757-7.75 0-10.706l-7.43-3.25c-1.852-.811-1.852-2.125 0-2.936l.016-.007c1.853-.81 4.856-.81 6.709 0l2.547 1.114c6.757 2.957 17.713 2.957 24.47 0l.195-.085c6.757-2.956 6.757-7.75 0-10.706l-61.377-26.852c-6.757-2.956-17.713-2.956-24.47 0z" style="isolation:isolate"/></clipPath><clipPath id="h"><path fill="url(#c)" d="m-126.14 169.53-.195.086c-6.758 2.956-6.758 7.749 0 10.705l6.26 2.74c1.54.673 1.54 1.766 0 2.44l-1.145.501c-1.54.674-4.039.674-5.58 0l-48.063-21.028c-6.757-2.956-17.713-2.956-24.47 0l-.195.086c-6.757 2.956-6.757 7.749 0 10.706l35.686 15.613c1.54.674 1.54 1.767 0 2.44l-.698.306c-1.54.674-4.04.674-5.58 0l-1.507-.66c-6.757-2.955-17.713-2.955-24.47 0l-.195.086c-6.757 2.957-6.757 7.75 0 10.706l62.73 27.444c6.757 2.957 17.713 2.957 24.47 0l.195-.085c6.757-2.956 6.757-7.75 0-10.706l-6.226-2.724c-1.541-.674-1.541-1.767 0-2.441l.697-.306c1.541-.674 4.04-.674 5.58 0l17.38 7.604c6.758 2.956 17.714 2.956 24.47 0l.196-.085c6.757-2.957 6.757-7.75 0-10.706l-7.43-3.25c-1.852-.811-1.852-2.125 0-2.936l.016-.007c1.853-.81 4.856-.81 6.709 0l2.547 1.114c6.757 2.957 17.713 2.957 24.47 0l.195-.085c6.757-2.956 6.757-7.75 0-10.706l-61.377-26.852c-6.757-2.956-17.713-2.956-24.47 0z" style="isolation:isolate"/></clipPath><clipPath id="g"><path fill="url(#c)" d="m-126.14 169.53-.195.086c-6.758 2.956-6.758 7.749 0 10.705l6.26 2.74c1.54.673 1.54 1.766 0 2.44l-1.145.501c-1.54.674-4.039.674-5.58 0l-48.063-21.028c-6.757-2.956-17.713-2.956-24.47 0l-.195.086c-6.757 2.956-6.757 7.749 0 10.706l35.686 15.613c1.54.674 1.54 1.767 0 2.44l-.698.306c-1.54.674-4.04.674-5.58 0l-1.507-.66c-6.757-2.955-17.713-2.955-24.47 0l-.195.086c-6.757 2.957-6.757 7.75 0 10.706l62.73 27.444c6.757 2.957 17.713 2.957 24.47 0l.195-.085c6.757-2.956 6.757-7.75 0-10.706l-6.226-2.724c-1.541-.674-1.541-1.767 0-2.441l.697-.306c1.541-.674 4.04-.674 5.58 0l17.38 7.604c6.758 2.956 17.714 2.956 24.47 0l.196-.085c6.757-2.957 6.757-7.75 0-10.706l-7.43-3.25c-1.852-.811-1.852-2.125 0-2.936l.016-.007c1.853-.81 4.856-.81 6.709 0l2.547 1.114c6.757 2.957 17.713 2.957 24.47 0l.195-.085c6.757-2.956 6.757-7.75 0-10.706l-61.377-26.852c-6.757-2.956-17.713-2.956-24.47 0z" style="isolation:isolate"/></clipPath><clipPath id="f"><path fill="url(#c)" d="m-126.14 169.53-.195.086c-6.758 2.956-6.758 7.749 0 10.705l6.26 2.74c1.54.673 1.54 1.766 0 2.44l-1.145.501c-1.54.674-4.039.674-5.58 0l-48.063-21.028c-6.757-2.956-17.713-2.956-24.47 0l-.195.086c-6.757 2.956-6.757 7.749 0 10.706l35.686 15.613c1.54.674 1.54 1.767 0 2.44l-.698.306c-1.54.674-4.04.674-5.58 0l-1.507-.66c-6.757-2.955-17.713-2.955-24.47 0l-.195.086c-6.757 2.957-6.757 7.75 0 10.706l62.73 27.444c6.757 2.957 17.713 2.957 24.47 0l.195-.085c6.757-2.956 6.757-7.75 0-10.706l-6.226-2.724c-1.541-.674-1.541-1.767 0-2.441l.697-.306c1.541-.674 4.04-.674 5.58 0l17.38 7.604c6.758 2.956 17.714 2.956 24.47 0l.196-.085c6.757-2.957 6.757-7.75 0-10.706l-7.43-3.25c-1.852-.811-1.852-2.125 0-2.936l.016-.007c1.853-.81 4.856-.81 6.709 0l2.547 1.114c6.757 2.957 17.713 2.957 24.47 0l.195-.085c6.757-2.956 6.757-7.75 0-10.706l-61.377-26.852c-6.757-2.956-17.713-2.956-24.47 0z" style="isolation:isolate"/></clipPath></defs><path fill="url(#d)" d="M60.56 50.708v.283c0 9.79 7.936 17.725 17.725 17.725h9.069a4.042 4.042 0 0 1 4.042 4.042v1.657a4.042 4.042 0 0 1-4.042 4.042h-69.63C7.937 78.457 0 86.393 0 96.182v.284c0 9.789 7.935 17.725 17.725 17.725h51.699a4.042 4.042 0 0 1 4.042 4.042v1.01a4.042 4.042 0 0 1-4.042 4.042H67.24c-9.79 0-17.725 7.936-17.725 17.725v.283c0 9.79 7.935 17.725 17.725 17.725h90.877c9.789 0 17.725-7.935 17.725-17.725v-.283c0-9.789-7.936-17.725-17.725-17.725h-9.02a4.042 4.042 0 0 1-4.042-4.042v-1.01a4.042 4.042 0 0 1 4.042-4.042h25.179c9.789 0 17.725-7.936 17.725-17.725v-.284c0-9.789-7.936-17.725-17.725-17.725h-10.764a4.86 4.86 0 0 1-4.86-4.859v-.023a4.86 4.86 0 0 1 4.86-4.859h3.69c9.789 0 17.725-7.936 17.725-17.725v-.283c0-9.79-7.936-17.725-17.725-17.725H78.286c-9.79 0-17.725 7.935-17.725 17.725z"/><g transform="translate(277.91 6.396) scale(.42857)"><rect width="112" height="76" x="-438.46" y="209.08" fill="#303030" rx="8" ry="8" style="paint-order:normal"/><rect width="112" height="88" x="-438.46" y="195.08" fill="#242424" rx="8" ry="8" style="paint-order:normal"/><rect width="112" height="16" x="-438.46" y="195.08" fill="#303030" clip-path="url(#e)" rx="0" ry="0" style="paint-order:markers stroke fill"/><circle cx="-334.46" cy="203.08" r="5" fill="#454545" style="paint-order:markers stroke fill"/><path fill="#fff" d="M-336.95 200.58h.428a.425.425 0 0 1 .286.13l1.784 1.784 1.796-1.784c.11-.096.185-.127.286-.13h.417v.417c0 .119-.016.229-.104.312l-1.784 1.784 1.77 1.77a.423.423 0 0 1 .118.3v.417h-.417a.421.421 0 0 1-.299-.117l-1.783-1.784-1.784 1.784a.423.423 0 0 1-.299.117h-.417v-.417c0-.11.04-.221.118-.3l1.783-1.77-1.783-1.784a.377.377 0 0 1-.118-.312z"/></g><g stroke-dashoffset="26.4" stroke-linecap="round" stroke-width="16.971" opacity=".7"><path fill="#3584e4" d="M-168.94 148.59h18v68.25h-18z" clip-path="url(#f)" transform="rotate(-45 -452.271 -5.242) scale(1.02437 2.34143)"/><path fill="#33d17a" d="M-150.94 148.59h18v68.25h-18z" clip-path="url(#g)" transform="rotate(-45 -452.271 -5.242) scale(1.02437 2.34143)"/><path fill="#e01b24" d="M-114.94 148.59h18v68.25h-18z" clip-path="url(#h)" transform="rotate(-45 -452.271 -5.242) scale(1.02437 2.34143)"/><path fill="#f6d32d" d="M-132.94 148.59h18v68.25h-18z" clip-path="url(#i)" transform="rotate(-45 -452.271 -5.242) scale(1.02437 2.34143)"/></g><g transform="rotate(-45 194.196 630.075) scale(1.02439)"><rect width="18" height="6" x="-536.45" y="233.67" fill="url(#j)" rx="3" ry="3" transform="scale(-1 1)"/><rect width="49" height="6" x="487.45" y="-260.67" fill="url(#k)" rx="3" ry="3" transform="scale(1 -1)"/><path fill="url(#l)" d="m535.57 234.55-5.123 5.123v15l5.123 5.123a2.99 2.99 0 0 0 .877-2.123v-21c0-.83-.335-1.58-.877-2.123z"/><path fill="url(#m)" d="m493.45 260.67-5.123-5.123a2.993 2.993 0 0 0-.877 2.123v14c0 1.662 1.338 3 3 3s3-1.338 3-3z"/></g><g stroke-dashoffset="26.4" stroke-linecap="round" stroke-width="16.971"><path fill="url(#n)" d="M460.45 222.67h12v28h-12c-3.324 0-6-2.676-6-6v-16c0-3.324 2.676-6 6-6z" transform="rotate(-45 194.196 630.075) scale(1.02439)"/><path fill="url(#o)" d="M472.45 222.67h18v28h-18z" transform="rotate(-45 194.196 630.075) scale(1.02439)"/><path fill="url(#p)" d="M514.45 222.67h6c3.324 0 6 2.676 6 6v16c0 3.324-2.676 6-6 6h-12v-28z" transform="rotate(-45 194.196 630.075) scale(1.02439)"/><path fill="url(#q)" d="M490.45 222.67h18v28h-18z" transform="rotate(-45 194.196 630.075) scale(1.02439)"/></g><g stroke-linecap="round" transform="rotate(-45 194.196 630.075) scale(1.02439)"><rect width="12" height="38" x="484.45" y="270.67" fill="url(#r)" rx="6" ry="6"/><g fill="#865e3c" stroke-dashoffset="26.4" stroke-width="12"><rect width="8" height="2" x="486.45" y="292.67" rx="1" ry="1"/><rect width="8" height="2" x="486.45" y="296.67" rx="1" ry="1"/><rect width="8" height="2" x="486.45" y="300.67" rx="1" ry="1"/></g></g><g transform="translate(296.87 -110.41) scale(.64286)"><rect width="112" height="76" x="-438.46" y="209.08" fill="#303030" rx="8" ry="8" style="paint-order:normal"/><rect width="112" height="88" x="-438.46" y="195.08" fill="#242424" rx="8" ry="8" style="paint-order:normal"/><rect width="112" height="16" x="-438.46" y="195.08" fill="#303030" clip-path="url(#e)" rx="0" ry="0" style="paint-order:markers stroke fill"/><circle cx="-334.46" cy="203.08" r="5" fill="#454545" style="paint-order:markers stroke fill"/><path fill="#fff" d="M-336.95 200.58h.428a.425.425 0 0 1 .286.13l1.784 1.784 1.796-1.784c.11-.096.185-.127.286-.13h.417v.417c0 .119-.016.229-.104.312l-1.784 1.784 1.77 1.77a.423.423 0 0 1 .118.3v.417h-.417a.421.421 0 0 1-.299-.117l-1.783-1.784-1.784 1.784a.423.423 0 0 1-.299.117h-.417v-.417c0-.11.04-.221.118-.3l1.783-1.77-1.783-1.784a.377.377 0 0 1-.118-.312z"/></g></svg>