<?xml version="1.0" encoding="UTF-8"?>
<svg width="256" height="256" style="isolation:isolate" version="1.1" viewBox="0 0 192 192" xmlns="http://www.w3.org/2000/svg" xmlns:cc="http://creativecommons.org/ns#" xmlns:rdf="http://www.w3.org/1999/02/22-rdf-syntax-ns#" xmlns:xlink="http://www.w3.org/1999/xlink">
 <defs>
  <linearGradient id="linearGradient1781">
   <stop stop-color="#3d3846" offset="0"/>
   <stop stop-color="#9a9996" offset="1"/>
  </linearGradient>
  <clipPath id="clipPath5396-3">
   <rect x="-438.46" y="195.08" width="112" height="88" rx="8" ry="8" enable-background="new" fill="#deddda" style="paint-order:normal"/>
  </clipPath>
  <linearGradient id="Metal">
   <stop stop-color="#9a9996" offset="0"/>
   <stop stop-color="#fff" offset=".5"/>
   <stop stop-color="#c0bfbc" offset="1"/>
  </linearGradient>
  <linearGradient id="linearGradient4128-9-3" x1="1275.7" x2="281.12" y1="760" y2="760" gradientTransform="matrix(.15158 0 0 .15158 -3.0316 14.147)" gradientUnits="userSpaceOnUse" xlink:href="#linearGradient1781"/>
  <linearGradient id="linearGradient11759-6" x1="82" x2="82" y1="47" y2="65" gradientTransform="matrix(1.5 0 0 1.5556 340.45 149.56)" gradientUnits="userSpaceOnUse">
   <stop stop-color="#1c71d8" offset="0"/>
   <stop stop-color="#3584e4" offset=".5"/>
   <stop stop-color="#1a5fb4" offset="1"/>
  </linearGradient>
  <linearGradient id="linearGradient11761-2" x1="82" x2="82" y1="47" y2="65" gradientTransform="matrix(1.5 0 0 1.5556 358.45 149.56)" gradientUnits="userSpaceOnUse">
   <stop stop-color="#2ec27e" offset="0"/>
   <stop stop-color="#33d17a" offset=".5"/>
   <stop stop-color="#26a269" offset="1"/>
  </linearGradient>
  <linearGradient id="linearGradient11763-3" x1="82" x2="82" y1="47" y2="65" gradientTransform="matrix(1.5 0 0 1.5556 394.45 149.56)" gradientUnits="userSpaceOnUse">
   <stop stop-color="#c01c28" offset="0"/>
   <stop stop-color="#e01b24" offset=".5"/>
   <stop stop-color="#a51d2d" offset="1"/>
  </linearGradient>
  <linearGradient id="linearGradient11765-2" x1="82" x2="82" y1="47" y2="65" gradientTransform="matrix(1.5 0 0 1.5556 376.45 149.56)" gradientUnits="userSpaceOnUse">
   <stop stop-color="#f5c211" offset="0"/>
   <stop stop-color="#f6d32d" offset=".5"/>
   <stop stop-color="#e5a50a" offset="1"/>
  </linearGradient>
  <linearGradient id="linearGradient10155" x1="46" x2="46" y1="232" y2="228" gradientTransform="matrix(.59375 0 0 1.5 -561.2 -108.33)" gradientUnits="userSpaceOnUse" xlink:href="#Metal"/>
  <linearGradient id="linearGradient10157" x1="46" x2="46" y1="232" y2="228" gradientTransform="matrix(1.1875 0 0 1.5 459.95 -602.67)" gradientUnits="userSpaceOnUse" xlink:href="#Metal"/>
  <linearGradient id="linearGradient10159" x1="46" x2="46" y1="232" y2="228" gradientTransform="matrix(0 -.8125 -1.5 0 878.45 292.17)" gradientUnits="userSpaceOnUse" xlink:href="#Metal"/>
  <linearGradient id="linearGradient10161" x1="46" x2="46" y1="232" y2="228" gradientTransform="matrix(0 -.48469 -1.5 0 835.45 285.9)" gradientUnits="userSpaceOnUse" xlink:href="#Metal"/>
  <linearGradient id="linearGradient10163" x1="483.45" x2="497.45" y1="288.67" y2="288.67" gradientTransform="matrix(.85714 0 0 1.0556 70.064 -15.037)" gradientUnits="userSpaceOnUse">
   <stop stop-color="#865e3c" offset="0"/>
   <stop stop-color="#b5835a" offset=".5"/>
   <stop stop-color="#865e3c" offset="1"/>
  </linearGradient>
  <clipPath id="clipPath14542">
   <path d="m-126.14 169.53-0.19544 0.0855c-6.7571 2.9562-6.7571 7.7493 0 10.706l6.2598 2.7387c1.541 0.67417 1.541 1.7672-1e-5 2.4414l-1.1439 0.50044c-1.541 0.67417-4.0394 0.67417-5.5803 0l-48.063-21.028c-6.7571-2.9562-17.713-2.9562-24.47 0l-0.19544 0.0855c-6.7571 2.9562-6.7571 7.7493-1e-5 10.706l35.686 15.613c1.541 0.67417 1.541 1.7672 1e-5 2.4414l-0.69755 0.30518c-1.541 0.67417-4.0394 0.67417-5.5803-1e-5l-1.5067-0.65917c-6.7571-2.9562-17.713-2.9562-24.47 0l-0.19545 0.0855c-6.7571 2.9562-6.7571 7.7493 2e-5 10.706l62.73 27.444c6.7571 2.9562 17.713 2.9562 24.47 0l0.19544-0.0855c6.7571-2.9562 6.7571-7.7493 1e-5 -10.706l-6.2263-2.724c-1.541-0.67417-1.541-1.7672-1e-5 -2.4414l0.69754-0.30518c1.541-0.67416 4.0394-0.67416 5.5803 1e-5l17.38 7.6038c6.7571 2.9562 17.713 2.9562 24.47 0l0.19544-0.0855c6.7571-2.9562 6.7571-7.7493-5e-6 -10.706l-7.4298-3.2506c-1.8525-0.81045-1.8524-2.1244 1.9e-5 -2.9349l0.01592-7e-3c1.8524-0.81044 4.8559-0.81044 6.7083 0l2.5471 1.1143c6.7571 2.9562 17.713 2.9562 24.47-1e-5l0.19544-0.0855c6.7571-2.9562 6.7571-7.7493-1.5e-5 -10.706l-61.377-26.852c-6.7571-2.9562-17.713-2.9562-24.47 0z" fill="url(#linearGradient14546)" stop-color="#000000" style="isolation:isolate"/>
  </clipPath>
  <linearGradient id="linearGradient14546" x1="1275.7" x2="281.12" y1="760" y2="760" gradientTransform="matrix(.10463 .045776 -.10463 .045776 -144.79 139.29)" gradientUnits="userSpaceOnUse" xlink:href="#linearGradient1781"/>
  <clipPath id="clipPath14548">
   <path d="m-126.14 169.53-0.19544 0.0855c-6.7571 2.9562-6.7571 7.7493 0 10.706l6.2598 2.7387c1.541 0.67417 1.541 1.7672-1e-5 2.4414l-1.1439 0.50044c-1.541 0.67417-4.0394 0.67417-5.5803 0l-48.063-21.028c-6.7571-2.9562-17.713-2.9562-24.47 0l-0.19544 0.0855c-6.7571 2.9562-6.7571 7.7493-1e-5 10.706l35.686 15.613c1.541 0.67417 1.541 1.7672 1e-5 2.4414l-0.69755 0.30518c-1.541 0.67417-4.0394 0.67417-5.5803-1e-5l-1.5067-0.65917c-6.7571-2.9562-17.713-2.9562-24.47 0l-0.19545 0.0855c-6.7571 2.9562-6.7571 7.7493 2e-5 10.706l62.73 27.444c6.7571 2.9562 17.713 2.9562 24.47 0l0.19544-0.0855c6.7571-2.9562 6.7571-7.7493 1e-5 -10.706l-6.2263-2.724c-1.541-0.67417-1.541-1.7672-1e-5 -2.4414l0.69754-0.30518c1.541-0.67416 4.0394-0.67416 5.5803 1e-5l17.38 7.6038c6.7571 2.9562 17.713 2.9562 24.47 0l0.19544-0.0855c6.7571-2.9562 6.7571-7.7493-5e-6 -10.706l-7.4298-3.2506c-1.8525-0.81045-1.8524-2.1244 1.9e-5 -2.9349l0.01592-7e-3c1.8524-0.81044 4.8559-0.81044 6.7083 0l2.5471 1.1143c6.7571 2.9562 17.713 2.9562 24.47-1e-5l0.19544-0.0855c6.7571-2.9562 6.7571-7.7493-1.5e-5 -10.706l-61.377-26.852c-6.7571-2.9562-17.713-2.9562-24.47 0z" fill="url(#linearGradient14546)" stop-color="#000000" style="isolation:isolate"/>
  </clipPath>
  <clipPath id="clipPath14554">
   <path d="m-126.14 169.53-0.19544 0.0855c-6.7571 2.9562-6.7571 7.7493 0 10.706l6.2598 2.7387c1.541 0.67417 1.541 1.7672-1e-5 2.4414l-1.1439 0.50044c-1.541 0.67417-4.0394 0.67417-5.5803 0l-48.063-21.028c-6.7571-2.9562-17.713-2.9562-24.47 0l-0.19544 0.0855c-6.7571 2.9562-6.7571 7.7493-1e-5 10.706l35.686 15.613c1.541 0.67417 1.541 1.7672 1e-5 2.4414l-0.69755 0.30518c-1.541 0.67417-4.0394 0.67417-5.5803-1e-5l-1.5067-0.65917c-6.7571-2.9562-17.713-2.9562-24.47 0l-0.19545 0.0855c-6.7571 2.9562-6.7571 7.7493 2e-5 10.706l62.73 27.444c6.7571 2.9562 17.713 2.9562 24.47 0l0.19544-0.0855c6.7571-2.9562 6.7571-7.7493 1e-5 -10.706l-6.2263-2.724c-1.541-0.67417-1.541-1.7672-1e-5 -2.4414l0.69754-0.30518c1.541-0.67416 4.0394-0.67416 5.5803 1e-5l17.38 7.6038c6.7571 2.9562 17.713 2.9562 24.47 0l0.19544-0.0855c6.7571-2.9562 6.7571-7.7493-5e-6 -10.706l-7.4298-3.2506c-1.8525-0.81045-1.8524-2.1244 1.9e-5 -2.9349l0.01592-7e-3c1.8524-0.81044 4.8559-0.81044 6.7083 0l2.5471 1.1143c6.7571 2.9562 17.713 2.9562 24.47-1e-5l0.19544-0.0855c6.7571-2.9562 6.7571-7.7493-1.5e-5 -10.706l-61.377-26.852c-6.7571-2.9562-17.713-2.9562-24.47 0z" fill="url(#linearGradient14546)" stop-color="#000000" style="isolation:isolate"/>
  </clipPath>
  <clipPath id="clipPath14560">
   <path d="m-126.14 169.53-0.19544 0.0855c-6.7571 2.9562-6.7571 7.7493 0 10.706l6.2598 2.7387c1.541 0.67417 1.541 1.7672-1e-5 2.4414l-1.1439 0.50044c-1.541 0.67417-4.0394 0.67417-5.5803 0l-48.063-21.028c-6.7571-2.9562-17.713-2.9562-24.47 0l-0.19544 0.0855c-6.7571 2.9562-6.7571 7.7493-1e-5 10.706l35.686 15.613c1.541 0.67417 1.541 1.7672 1e-5 2.4414l-0.69755 0.30518c-1.541 0.67417-4.0394 0.67417-5.5803-1e-5l-1.5067-0.65917c-6.7571-2.9562-17.713-2.9562-24.47 0l-0.19545 0.0855c-6.7571 2.9562-6.7571 7.7493 2e-5 10.706l62.73 27.444c6.7571 2.9562 17.713 2.9562 24.47 0l0.19544-0.0855c6.7571-2.9562 6.7571-7.7493 1e-5 -10.706l-6.2263-2.724c-1.541-0.67417-1.541-1.7672-1e-5 -2.4414l0.69754-0.30518c1.541-0.67416 4.0394-0.67416 5.5803 1e-5l17.38 7.6038c6.7571 2.9562 17.713 2.9562 24.47 0l0.19544-0.0855c6.7571-2.9562 6.7571-7.7493-5e-6 -10.706l-7.4298-3.2506c-1.8525-0.81045-1.8524-2.1244 1.9e-5 -2.9349l0.01592-7e-3c1.8524-0.81044 4.8559-0.81044 6.7083 0l2.5471 1.1143c6.7571 2.9562 17.713 2.9562 24.47-1e-5l0.19544-0.0855c6.7571-2.9562 6.7571-7.7493-1.5e-5 -10.706l-61.377-26.852c-6.7571-2.9562-17.713-2.9562-24.47 0z" fill="url(#linearGradient14546)" stop-color="#000000" style="isolation:isolate"/>
  </clipPath>
 </defs>
 <path d="m60.56 50.708v0.28313c0 9.789 7.9356 17.725 17.725 17.725h9.0686c2.2324 0 4.0421 1.8097 4.0421 4.0421v1.6571c0 2.2324-1.8097 4.0421-4.0421 4.0421h-69.629c-9.789 0-17.725 7.9356-17.725 17.725v0.28313c0 9.789 7.9356 17.725 17.725 17.725h51.699c2.2324 0 4.0421 1.8097 4.0421 4.0421v1.0105c0 2.2324-1.8097 4.0421-4.0421 4.0421h-2.1827c-9.789 0-17.725 7.9356-17.725 17.725v0.28314c0 9.789 7.9356 17.725 17.725 17.725h90.877c9.789 0 17.725-7.9356 17.725-17.725v-0.28314c0-9.789-7.9356-17.725-17.725-17.725h-9.0201c-2.2324 0-4.0421-1.8097-4.0421-4.0421v-1.0105c0-2.2324 1.8097-4.0421 4.0421-4.0421h25.179c9.789 0 17.725-7.9356 17.725-17.725v-0.28313c-1e-5 -9.789-7.9356-17.725-17.725-17.725h-10.764c-2.6836 0-4.8592-2.1755-4.8592-4.8592v-0.02306c0-2.6836 2.1755-4.8592 4.8592-4.8592h3.6899c9.789 0 17.725-7.9356 17.725-17.725v-0.28313c-1e-5 -9.789-7.9356-17.725-17.725-17.725h-88.917c-9.789 0-17.725 7.9356-17.725 17.725z" fill="url(#linearGradient4128-9-3)" stop-color="#000000"/>
 <g transform="matrix(.42857 0 0 .42857 277.91 6.3955)" enable-background="new">
  <rect x="-438.46" y="209.08" width="112" height="76" rx="8" ry="8" enable-background="new" fill="#303030" style="paint-order:normal"/>
  <rect x="-438.46" y="195.08" width="112" height="88" rx="8" ry="8" enable-background="new" fill="#242424" style="paint-order:normal"/>
  <rect x="-438.46" y="195.08" width="112" height="16" rx="0" ry="0" clip-path="url(#clipPath5396-3)" enable-background="new" fill="#303030" style="paint-order:markers stroke fill"/>
  <circle cx="-334.46" cy="203.08" r="5" enable-background="new" fill="#454545" stroke-width="0" style="paint-order:markers stroke fill"/>
  <path d="m-336.95 200.58h0.42776c0.10563 3e-3 0.21334 0.0536 0.28639 0.1302l1.7834 1.7838 1.7964-1.7838c0.11075-0.0959 0.18536-0.1271 0.28639-0.1302h0.41658v0.41665c0 0.1189-0.0155 0.22931-0.10413 0.31249l-1.7834 1.7838 1.7704 1.7708c0.0781 0.0781 0.117 0.18888 0.117 0.29967v0.41665h-0.41657c-0.11075 0-0.2215-0.0388-0.29922-0.11703l-1.7834-1.7838-1.7834 1.7838c-0.0781 0.0782-0.18885 0.11703-0.29922 0.11703h-0.41657v-0.41665c0-0.11079 0.0393-0.22156 0.11739-0.29967l1.7834-1.7708-1.7834-1.7838c-0.0877-0.0812-0.12707-0.19551-0.11739-0.31249z" enable-background="new" fill="#fff" stroke-width=".41661"/>
 </g>
 <g transform="matrix(1.6829 .65853 .65853 1.6829 -128.76 -321.34)" enable-background="new" opacity=".7" stroke-dashoffset="26.4" stroke-linecap="round" stroke-width="16.971">
  <path transform="rotate(-45)" d="m-168.94 148.59h18v68.25h-18z" clip-path="url(#clipPath14560)" enable-background="new" fill="#3584e4"/>
  <path transform="rotate(-45)" d="m-150.94 148.59h18v68.25h-18z" clip-path="url(#clipPath14554)" enable-background="new" fill="#33d17a"/>
  <path transform="rotate(-45)" d="m-114.94 148.59h18l-2e-6 68.25h-18z" clip-path="url(#clipPath14548)" enable-background="new" fill="#e01b24"/>
  <path transform="rotate(-45)" d="m-132.94 148.59h18v68.25h-18z" clip-path="url(#clipPath14542)" enable-background="new" fill="#f6d32d"/>
 </g>
 <g transform="matrix(.72435 -.72435 .72435 .72435 -388.65 321.86)" enable-background="new">
  <g>
   <rect transform="scale(-1,1)" x="-536.45" y="233.67" width="18" height="6" rx="3" ry="3" enable-background="new" fill="url(#linearGradient10155)"/>
   <rect transform="scale(1,-1)" x="487.45" y="-260.67" width="49" height="6" rx="3" ry="3" enable-background="new" fill="url(#linearGradient10157)"/>
   <path d="m535.57 234.55-5.123 5.123v15l5.123 5.123c0.54225-0.54225 0.87696-1.292 0.87696-2.123v-21c0-0.83048-0.33531-1.5809-0.87696-2.123z" enable-background="new" fill="url(#linearGradient10159)"/>
   <path d="m493.45 260.67-5.123-5.123c-0.54166 0.54217-0.87695 1.2926-0.87695 2.123v14c0 1.662 1.338 3 3 3 1.662 0 3-1.338 3-3z" enable-background="new" fill="url(#linearGradient10161)"/>
  </g>
  <g stroke-dashoffset="26.4" stroke-linecap="round" stroke-width="16.971">
   <path d="m460.45 222.67h12v28h-12c-3.324 0-6-2.676-6-6v-16c0-3.324 2.676-6 6-6z" enable-background="new" fill="url(#linearGradient11759-6)"/>
   <path d="m472.45 222.67h18v28h-18z" enable-background="new" fill="url(#linearGradient11761-2)"/>
   <path d="m514.45 222.67h6c3.324 0 6 2.676 6 6v16c0 3.324-2.676 6-6 6h-12l-3e-5 -28z" enable-background="new" fill="url(#linearGradient11763-3)"/>
   <path d="m490.45 222.67h18v28h-18z" enable-background="new" fill="url(#linearGradient11765-2)"/>
  </g>
  <g stroke-linecap="round">
   <rect x="484.45" y="270.67" width="12" height="38" rx="6" ry="6" fill="url(#linearGradient10163)" stroke-linejoin="round" stroke-width=".49439"/>
   <g fill="#865e3c" stroke-dashoffset="26.4" stroke-width="12">
    <rect x="486.45" y="292.67" width="8" height="2" rx="1" ry="1" enable-background="new"/>
    <rect x="486.45" y="296.67" width="8" height="2" rx="1" ry="1" enable-background="new"/>
    <rect x="486.45" y="300.67" width="8" height="2" rx="1" ry="1" enable-background="new"/>
   </g>
  </g>
 </g>
 <g transform="matrix(.64286 0 0 .64286 296.87 -110.41)" enable-background="new">
  <rect x="-438.46" y="209.08" width="112" height="76" rx="8" ry="8" enable-background="new" fill="#303030" style="paint-order:normal"/>
  <rect x="-438.46" y="195.08" width="112" height="88" rx="8" ry="8" enable-background="new" fill="#242424" style="paint-order:normal"/>
  <rect x="-438.46" y="195.08" width="112" height="16" rx="0" ry="0" clip-path="url(#clipPath5396-3)" enable-background="new" fill="#303030" style="paint-order:markers stroke fill"/>
  <circle cx="-334.46" cy="203.08" r="5" enable-background="new" fill="#454545" stroke-width="0" style="paint-order:markers stroke fill"/>
  <path d="m-336.95 200.58h0.42776c0.10563 3e-3 0.21334 0.0536 0.28639 0.1302l1.7834 1.7838 1.7964-1.7838c0.11075-0.0959 0.18536-0.1271 0.28639-0.1302h0.41658v0.41665c0 0.1189-0.0155 0.22931-0.10413 0.31249l-1.7834 1.7838 1.7704 1.7708c0.0781 0.0781 0.117 0.18888 0.117 0.29967v0.41665h-0.41657c-0.11075 0-0.2215-0.0388-0.29922-0.11703l-1.7834-1.7838-1.7834 1.7838c-0.0781 0.0782-0.18885 0.11703-0.29922 0.11703h-0.41657v-0.41665c0-0.11079 0.0393-0.22156 0.11739-0.29967l1.7834-1.7708-1.7834-1.7838c-0.0877-0.0812-0.12707-0.19551-0.11739-0.31249z" enable-background="new" fill="#fff" stroke-width=".41661"/>
 </g>
 <metadata>
  <rdf:RDF>
   <cc:Work rdf:about="">
    <cc:license rdf:resource="http://creativecommons.org/licenses/by-sa/4.0/"/>
   </cc:Work>
   <cc:License rdf:about="http://creativecommons.org/licenses/by-sa/4.0/">
    <cc:permits rdf:resource="http://creativecommons.org/ns#Reproduction"/>
    <cc:permits rdf:resource="http://creativecommons.org/ns#Distribution"/>
    <cc:requires rdf:resource="http://creativecommons.org/ns#Notice"/>
    <cc:requires rdf:resource="http://creativecommons.org/ns#Attribution"/>
    <cc:permits rdf:resource="http://creativecommons.org/ns#DerivativeWorks"/>
    <cc:requires rdf:resource="http://creativecommons.org/ns#ShareAlike"/>
   </cc:License>
  </rdf:RDF>
 </metadata>
</svg>
