<svg xmlns="http://www.w3.org/2000/svg" xmlns:svg="http://www.w3.org/2000/svg" width="16" height="16" viewBox="0 0 16 16"><g stroke-linecap="round" stroke-linejoin="round"><path stroke-width="3.196" d="m 14.313388 4.4138931 v -10.9131988 h -5.9993592 v 4.9138397 z" transform="matrix(0.70710678 0.70710678 -0.70710678 0.70710678 0 0)"/><path stroke-width="3.477" d="m 16 -5.65625 v -10.34375 h -6 v 4.34375 z" transform="matrix(0 1 -1 0 0 0)"/><path stroke-width="6.575" d="m 0 12 v 1 c 0 1.656854 1.3431458 3 3 3 s 3 -1.343146 3 -3 v -1 h -3 c 0.5522847 0 1 0.447715 1 1 s -0.4477153 1 -1 1 s -1 -0.447715 -1 -1 s 0.4477153 -1 1 -1 z"/><g stroke-width="3.319"><path d="m 0 0 h 6 v 4 h -6 z" opacity=".3"/><path d="m 0 4 h 6 v 4 h -6 z" opacity=".6"/><path d="m 0 8 h 6 v 4 h -6 z" opacity=".9"/></g></g></svg>