<svg xmlns="http://www.w3.org/2000/svg" xmlns:svg="http://www.w3.org/2000/svg" width="16" height="16" viewBox="0 0 16 16"><g><path stroke-width=".875" d="m 10.3125 9 c -0.72803 0 -1.3125 0.584473 -1.3125 1.3125 v 4.375 c 0 0.728027 0.58447 1.3125 1.3125 1.3125 h 4.375 c 0.72803 0 1.3125 -0.584473 1.3125 -1.3125 v -4.375 c 0 -0.728027 -0.58447 -1.3125 -1.3125 -1.3125 z m 1.3125 0.875 h 1.75 v 2.1875 s 0 0.4375 -0.4375 0.4375 h -0.875 c -0.4375 0 -0.4375 -0.4375 -0.4375 -0.4375 z m 0.4375 3.5 h 0.875 c 0.24267 0 0.4375 0.194824 0.4375 0.4375 v 0.875 c 0 0.242676 -0.19483 0.4375 -0.4375 0.4375 h -0.875 c -0.24267 0 -0.4375 -0.194824 -0.4375 -0.4375 v -0.875 c 0 -0.242676 0.19483 -0.4375 0.4375 -0.4375 z m 0 0"/><path stroke-linejoin="round" d="m 6.82422 0.015625 a 1.0001 1.0001 0 0 0 -0.32813 0.119141 l -6 3.5 a 1.0001 1.0001 0 0 0 -0.49609 0.876953 v 6.988281 a 1.0001 1.0001 0 0 0 0.49609 0.863281 l 6 3.5 a 1.0001 1.0001 0 0 0 1.50391 -0.863281 v -6.425781 l 4 -2.333985 v 1.759766 h 2 v -3.5 a 1.0001 1.0001 0 0 0 -0.49609 -0.865234 l -6 -3.5 a 1.0001 1.0001 0 0 0 -0.67969 -0.119141 z m 0.17578 2.140625 l 4.01562 2.341797 l -4.01562 2.341797 l -4.01563 -2.341797 z m -5 4.083984 l 4 2.333985 v 4.683593 l -4 -2.333984 z"/><path d="m 6.99996 1 l -5.99996 3.5 l 5.99996 3.499574 l 6.00004 -3.499574 z" opacity=".3"/><path stroke-linejoin="round" stroke-width="2" d="m 1 4.5 v 7 l 5.99996 3.5 v -7.000426 z" opacity=".6"/></g></svg>