<svg xmlns="http://www.w3.org/2000/svg" xmlns:svg="http://www.w3.org/2000/svg" width="16" height="16" viewBox="0 0 16 16"><path fill="#2e3436" d="m 4 0 c -1.6445 0 -3 1.3555 -3 3 v 10 c 0 1.6445 1.3555 3 3 3 h 3 v -3 h -3 c -0.5547 0 -1 -0.4453 -1 -1 v -9 c 0 -0.5547 0.4453 -1 1 -1 h 8 c 0.5703 0 1 0.4297 1 1 v 4 h 2 v -4 c 0 -1.6445 -1.3555 -3 -3 -3 z m 4 3 c -2.2109 0 -4 1.7891 -4 4 v 4 h 3 v -2.2695 c -0.5971 -0.3458 -1 -0.9901 -1 -1.7305 c 0 -1.1055 0.8945 -2 2 -2 s 2 0.8945 2 2 h 2 c 0 -2.2109 -1.7891 -4 -4 -4 z"/><path fill="#ff7800" d="m 9.5 7.9999999 c -0.832031 0 -1.4999997 0.667969 -1.4999997 1.5000001 v 5 c 0 0.832031 0.6679687 1.5 1.4999997 1.5 h 5 c 0.832031 0 1.5 -0.667969 1.5 -1.5 v -5 c 0 -0.8320311 -0.667969 -1.5000001 -1.5 -1.5000001 z m 1.5 1.0000001 h 2 v 2.5 s 0 0.5 -0.5 0.5 h -1 c -0.5 0 -0.5 -0.5 -0.5 -0.5 z m 0.5 4 h 1 c 0.277344 0 0.5 0.222656 0.5 0.5 v 1 c 0 0.277344 -0.222656 0.5 -0.5 0.5 h -1 c -0.277344 0 -0.5 -0.222656 -0.5 -0.5 v -1 c 0 -0.277344 0.222656 -0.5 0.5 -0.5 z m 0 0"/></svg>