<?xml version="1.0" encoding="UTF-8" standalone="no"?>
<svg height="16px" viewBox="0 0 16 16" width="16px" xmlns="http://www.w3.org/2000/svg" sodipodi:docname="com.github.ArtyIF.AdwCustomizer-palette-symbolic.svg" inkscape:version="1.2.1 (9c6d41e410, 2022-07-14)" xmlns:inkscape="http://www.inkscape.org/namespaces/inkscape" xmlns:sodipodi="http://sodipodi.sourceforge.net/DTD/sodipodi-0.dtd" xmlns:svg="http://www.w3.org/2000/svg">
    <sodipodi:namedview pagecolor="#ffffff" bordercolor="#000000" borderopacity="0.25" inkscape:showpageshadow="2" inkscape:pageopacity="0.0" inkscape:pagecheckerboard="0" inkscape:deskcolor="#d1d1d1" showgrid="false" inkscape:zoom="25.8806" inkscape:cx="9.1960772" inkscape:cy="6.4527097" inkscape:window-width="1280" inkscape:window-height="731" inkscape:window-x="0" inkscape:window-y="0" inkscape:window-maximized="1" inkscape:current-layer="svg20"/>
    <g stroke-linecap="round" stroke-linejoin="round">
        <path d="m 14.313388 4.4138931 v -10.9131988 h -5.9993592 v 4.9138397 z" stroke-width="3.19644" transform="matrix(0.70710678 0.70710678 -0.70710678 0.70710678 0 0)"/>
        <path d="m 16 -5.65625 v -10.34375 h -6 v 4.34375 z" stroke-width="3.47717" transform="matrix(0 1 -1 0 0 0)"/>
        <path d="m 0 12 v 1 c 0 1.656854 1.3431458 3 3 3 s 3 -1.343146 3 -3 v -1 h -3 c 0.5522847 0 1 0.447715 1 1 s -0.4477153 1 -1 1 s -1 -0.447715 -1 -1 s 0.4477153 -1 1 -1 z" stroke-width="6.57493" sodipodi:nodetypes="ccscccssscc"/>
        <g stroke-width="3.31938">
            <path d="m 0 0 h 6 v 4 h -6 z" opacity="0.3"/>
            <path d="m 0 4 h 6 v 4 h -6 z" opacity="0.6"/>
            <path d="m 0 8 h 6 v 4 h -6 z" opacity="0.9"/>
        </g>
    </g>
</svg>
