<svg xmlns="http://www.w3.org/2000/svg" xmlns:xlink="http://www.w3.org/1999/xlink" width="16" height="16" viewBox="0 0 16 16"><filter id="a" width="100%" height="100%" x="0%" y="0%"><feColorMatrix in="SourceGraphic" type="matrix" values="0 0 0 0 1 0 0 0 0 1 0 0 0 0 1 0 0 0 1 0"/></filter><mask id="b"><g filter="url(#a)"><path fill-opacity=".3" d="m 0 0 h 16 v 16 h -16 z"/></g></mask><clipPath id="c"><path d="m 0 0 h 1600 v 1200 h -1600 z"/></clipPath><mask id="d"><g filter="url(#a)"><path fill-opacity=".05" d="m 0 0 h 16 v 16 h -16 z"/></g></mask><clipPath id="e"><path d="m 0 0 h 1600 v 1200 h -1600 z"/></clipPath><mask id="f"><g filter="url(#a)"><path fill-opacity=".05" d="m 0 0 h 16 v 16 h -16 z"/></g></mask><clipPath id="g"><path d="m 0 0 h 1600 v 1200 h -1600 z"/></clipPath><mask id="h"><g filter="url(#a)"><path fill-opacity=".05" d="m 0 0 h 16 v 16 h -16 z"/></g></mask><clipPath id="i"><path d="m 0 0 h 1600 v 1200 h -1600 z"/></clipPath><mask id="j"><g filter="url(#a)"><path fill-opacity=".05" d="m 0 0 h 16 v 16 h -16 z"/></g></mask><clipPath id="k"><path d="m 0 0 h 1600 v 1200 h -1600 z"/></clipPath><mask id="l"><g filter="url(#a)"><path fill-opacity=".05" d="m 0 0 h 16 v 16 h -16 z"/></g></mask><clipPath id="m"><path d="m 0 0 h 1600 v 1200 h -1600 z"/></clipPath><mask id="n"><g filter="url(#a)"><path fill-opacity=".05" d="m 0 0 h 16 v 16 h -16 z"/></g></mask><clipPath id="o"><path d="m 0 0 h 1600 v 1200 h -1600 z"/></clipPath><mask id="p"><g filter="url(#a)"><path fill-opacity=".3" d="m 0 0 h 16 v 16 h -16 z"/></g></mask><clipPath id="q"><path d="m 0 0 h 1600 v 1200 h -1600 z"/></clipPath><mask id="r"><g filter="url(#a)"><path fill-opacity=".5" d="m 0 0 h 16 v 16 h -16 z"/></g></mask><clipPath id="s"><path d="m 0 0 h 1600 v 1200 h -1600 z"/></clipPath><path fill="#2e3436" d="m 10 4 v 1 c 0 0.257812 0.128906 0.527344 0.3125 0.71875 l 2.25 2.28125 l -2.25 2.28125 c -0.183594 0.191406 -0.3125 0.460938 -0.3125 0.71875 v 1 h 1 c 0.308594 0 0.550781 -0.089844 0.75 -0.28125 l 3.65625 -3.71875 l -3.65625 -3.71875 c -0.199219 -0.191406 -0.441406 -0.28125 -0.75 -0.28125 z m 0 0"/><path fill="#2e3436" d="m 6 4 v 1 c 0 0.257812 -0.128906 0.527344 -0.3125 0.71875 l -2.25 2.28125 l 2.25 2.28125 c 0.183594 0.191406 0.3125 0.460938 0.3125 0.71875 v 1 h -1 c -0.308594 0 -0.550781 -0.089844 -0.75 -0.28125 l -3.65625 -3.71875 l 3.65625 -3.71875 c 0.199219 -0.191406 0.441406 -0.28125 0.75 -0.28125 z m 0 0"/><g clip-path="url(#c)" mask="url(#b)" transform="matrix(1 0 0 1 -120 -464)"><path fill="#2e3436" d="m 562.460938 212.058594 h 10.449218 c -1.183594 0.492187 -1.296875 2.460937 0 3 h -10.449218 z m 0 0"/></g><g clip-path="url(#e)" mask="url(#d)" transform="matrix(1 0 0 1 -120 -464)"><path fill="#2e3436" fill-rule="evenodd" d="m 16 748 h 1 v 1 h -1 z m 0 0"/></g><g clip-path="url(#g)" mask="url(#f)" transform="matrix(1 0 0 1 -120 -464)"><path fill="#2e3436" fill-rule="evenodd" d="m 17 747 h 1 v 1 h -1 z m 0 0"/></g><g clip-path="url(#i)" mask="url(#h)" transform="matrix(1 0 0 1 -120 -464)"><path fill="#2e3436" fill-rule="evenodd" d="m 18 750 h 1 v 1 h -1 z m 0 0"/></g><g clip-path="url(#k)" mask="url(#j)" transform="matrix(1 0 0 1 -120 -464)"><path fill="#2e3436" fill-rule="evenodd" d="m 16 750 h 1 v 1 h -1 z m 0 0"/></g><g clip-path="url(#m)" mask="url(#l)" transform="matrix(1 0 0 1 -120 -464)"><path fill="#2e3436" fill-rule="evenodd" d="m 17 751 h 1 v 1 h -1 z m 0 0"/></g><g clip-path="url(#o)" mask="url(#n)" transform="matrix(1 0 0 1 -120 -464)"><path fill="#2e3436" fill-rule="evenodd" d="m 19 751 h 1 v 1 h -1 z m 0 0"/></g><g clip-path="url(#q)" mask="url(#p)" transform="matrix(1 0 0 1 -120 -464)"><path fill="#2e3436" d="m 136 776 v 7 h 7 v -7 z m 0 0"/></g><g clip-path="url(#s)" mask="url(#r)" transform="matrix(1 0 0 1 -120 -464)"><path fill="#2e3436" d="m 219 758 h 3 v 12 h -3 z m 0 0"/></g></svg>