<?xml version="1.0" encoding="UTF-8" standalone="no"?>
<svg height="16px" viewBox="0 0 16 16" width="16px" xmlns="http://www.w3.org/2000/svg" sodipodi:docname="disk-saved.svg" inkscape:version="1.2.1 (9c6d41e410, 2022-07-14)" xmlns:inkscape="http://www.inkscape.org/namespaces/inkscape" xmlns:sodipodi="http://sodipodi.sourceforge.net/DTD/sodipodi-0.dtd" xmlns:svg="http://www.w3.org/2000/svg">
    <sodipodi:namedview pagecolor="#ffffff" bordercolor="#000000" borderopacity="0.25" inkscape:showpageshadow="2" inkscape:pageopacity="0.0" inkscape:pagecheckerboard="0" inkscape:deskcolor="#d1d1d1" showgrid="false" inkscape:zoom="15.248777" inkscape:cx="12.951859" inkscape:cy="5.7709548" inkscape:window-width="1280" inkscape:window-height="731" inkscape:window-x="0" inkscape:window-y="0" inkscape:window-maximized="1" inkscape:current-layer="svg1407"/>
    <path d="m 4 0 c -1.6445 0 -3 1.3555 -3 3 v 10 c 0 1.6445 1.3555 3 3 3 h 3 v -3 h -3 c -0.5547 0 -1 -0.4453 -1 -1 v -9 c 0 -0.5547 0.4453 -1 1 -1 h 8 c 0.5703 0 1 0.4297 1 1 v 4 h 2 v -4 c 0 -1.6445 -1.3555 -3 -3 -3 z m 4 3 c -2.2109 0 -4 1.7891 -4 4 v 4 h 3 v -2.2695 c -0.5971 -0.3458 -1 -0.9901 -1 -1.7305 c 0 -1.1055 0.8945 -2 2 -2 s 2 0.8945 2 2 h 2 c 0 -2.2109 -1.7891 -4 -4 -4 z" fill="#2e3436"/>
    <path d="m 9.5 8 c -0.832 0 -1.5 0.668 -1.5 1.5 v 5 c 0 0.832 0.668 1.5 1.5 1.5 h 5 c 0.832 0 1.5 -0.668 1.5 -1.5 v -5 c 0 -0.832 -0.668 -1.5 -1.5 -1.5 z m 4.4121 1.6367 c 0.1152 0 0.2301 0.045 0.3184 0.1328 l 0.6367 0.6387 c 0.1765 0.1765 0.1765 0.4602 0 0.6367 l -2.5488 2.5488 l -0.6368 0.6368 c -0.1765 0.1765 -0.4601 0.1765 -0.6367 0 l -0.6386 -0.6368 l -1.2735 -1.2753 c -0.1765 -0.1766 -0.1765 -0.4602 0 -0.6368 l 0.6367 -0.6367 c 0.1766 -0.1765 0.4602 -0.1765 0.6368 0 l 0.957 0.9551 l 2.2305 -2.2305 c 0.088 -0.088 0.2031 -0.1328 0.3183 -0.1328 z" fill="#33d17a"/>
</svg>
