<?xml version="1.0" encoding="UTF-8" standalone="no"?>
<svg height="16px" viewBox="0 0 16 16" width="16px" xmlns="http://www.w3.org/2000/svg" sodipodi:docname="disk-unsaved-symbolic.svg" inkscape:version="1.2.1 (9c6d41e410, 2022-07-14)" xmlns:inkscape="http://www.inkscape.org/namespaces/inkscape" xmlns:sodipodi="http://sodipodi.sourceforge.net/DTD/sodipodi-0.dtd" xmlns:svg="http://www.w3.org/2000/svg">
    <sodipodi:namedview pagecolor="#ffffff" bordercolor="#000000" borderopacity="0.25" inkscape:showpageshadow="2" inkscape:pageopacity="0.0" inkscape:pagecheckerboard="0" inkscape:deskcolor="#d1d1d1" showgrid="false" inkscape:zoom="27.879317" inkscape:cx="11.513912" inkscape:cy="8.393319" inkscape:window-width="1280" inkscape:window-height="731" inkscape:window-x="0" inkscape:window-y="0" inkscape:window-maximized="1" inkscape:current-layer="svg36944"/>
    <path d="m 4 0.0000001 c -1.6445001 0 -3.0000001 1.3555 -3.0000001 3 v 9.9999999 c 0 1.644501 1.3555 3 3.0000001 3 h 3 v -3 h -3 c -0.5547 0 -1 -0.4453 -1 -1 v -8.9999999 c 0 -0.5547 0.4453 -1 1 -1 h 8 c 0.5703 0 1 0.4297 1 1 v 4 h 2 v -4 c 0 -1.6445 -1.3555 -3 -3 -3 z m 4 3 c -2.2109 0 -4 1.7891 -4 4 v 3.9999999 h 3 v -2.2694999 c -0.5971 -0.3458 -1 -0.9901 -1 -1.7305 c 0 -1.1055 0.8945 -2 2 -2 s 2 0.8945 2 2 h 2 c 0 -2.2109 -1.7891 -4 -4 -4 z" fill="#2e3436" sodipodi:nodetypes="ssssccssssssccssssscccssccs"/>
    <path d="m 9.5 8.0000001 c -0.8321 0 -1.5 0.668 -1.5 1.5 v 5.0000009 c 0 0.832 0.6679 1.499999 1.5 1.499999 h 5 c 0.8319 0 1.5 -0.667999 1.5 -1.499999 v -5.0000009 c 0 -0.832 -0.6681 -1.5 -1.5 -1.5 z m 2 1 h 1 c 0.277 0 0.5 0.223 0.5 0.5 v 0.7694999 l 0.6659 -0.3846995 c 0.2399 -0.1385 0.5432 -0.058 0.6817 0.1816005 l 0.5 0.8672 c 0.1385 0.2399 0.058 0.5431 -0.1817 0.6816 l -0.6659 0.3848 l 0.6659 0.3848 c 0.2399 0.1385 0.3202 0.4417 0.1817 0.6816 l -0.5 0.8672 c -0.1385 0.2399 -0.4418 0.3201 -0.6817 0.1816 l -0.6659 -0.3847 v 0.7695 c 0 0.277 -0.223 0.5 -0.5 0.5 h -1 c -0.277 0 -0.5 -0.223 -0.5 -0.5 v -0.7695 l -0.6661 0.3847 c -0.2399 0.1385 -0.5432 0.058 -0.6817 -0.1816 l -0.5 -0.8672 c -0.1385 -0.2399 -0.058 -0.5431 0.1817 -0.6816 l 0.6661 -0.384801 l -0.6661 -0.3848 c -0.2399 -0.1385 -0.3202 -0.4417 -0.1817 -0.6816 l 0.5 -0.8672 c 0.1385 -0.2398995 0.4418 -0.3200995 0.6817 -0.1815995 l 0.6661 0.3846995 v -0.7694999 c 0 -0.277 0.223 -0.5 0.5 -0.5 z" fill="#ff7800"/>
</svg>
