<?xml version="1.0" encoding="UTF-8" standalone="no"?>
<svg
   width="16"
   height="16"
   version="1.1"
   id="svg9387"
   sodipodi:docname="Adwaita Manager Symbolic 2.svg"
   inkscape:version="1.2.1 (9c6d41e410, 2022-07-14)"
   xmlns:inkscape="http://www.inkscape.org/namespaces/inkscape"
   xmlns:sodipodi="http://sodipodi.sourceforge.net/DTD/sodipodi-0.dtd"
   xmlns="http://www.w3.org/2000/svg"
   xmlns:svg="http://www.w3.org/2000/svg">
  <defs
     id="defs9391" />
  <sodipodi:namedview
     id="namedview9389"
     pagecolor="#ffffff"
     bordercolor="#000000"
     borderopacity="0.25"
     inkscape:showpageshadow="2"
     inkscape:pageopacity="0.0"
     inkscape:pagecheckerboard="0"
     inkscape:deskcolor="#d1d1d1"
     showgrid="false"
     inkscape:zoom="15.97962"
     inkscape:cx="7.7598841"
     inkscape:cy="7.5095653"
     inkscape:window-width="1280"
     inkscape:window-height="731"
     inkscape:window-x="0"
     inkscape:window-y="0"
     inkscape:window-maximized="1"
     inkscape:current-layer="svg9387" />
  <path
     id="rect37393"
     style="display:inline;fill:#2e3436;stroke-width:207.866;paint-order:markers stroke fill;enable-background:new"
     inkscape:label="symbolic"
     d="m 8,9.00008 h 6.99999 c 0.554,0 1,0.446 1,1 0,0.554 -0.446,1 -1,1 H 8 c -0.554,0 -1,-0.446 -1,-1 0,-0.554 0.446,-1 1,-1 z m 1,1 v 5 c 0,0.554 -0.446,1 -1,1 -0.554,0 -1,-0.446 -1,-1 v -5 c 0,-0.554 0.446,-1 1,-1 0.554,0 1,0.446 1,1 z M 2.99979,-8e-5 c -1.66015,0 -3.00035,1.33984 -3,3 l 4.2e-4,2.00016 c 3.5e-4,1.66016 1.33985,3 3,3 h 10 c 1.66016,0 3.00035,-1.33984 3,-3 l -4.2e-4,-2.00016 c -3.5e-4,-1.66016 -1.33984,-3 -3,-3 z m 0,2 h 10 c 0.55469,0 0.99988,0.44531 1,1 l 4.2e-4,2.00016 c 1.2e-4,0.55469 -0.44531,1 -1,1 h -10 c -0.55469,0 -0.99988,-0.44531 -1,-1 L 1.99979,2.99992 c -1.2e-4,-0.55469 0.44531,-1 1,-1 z" />
</svg>
