<?xml version="1.0" encoding="UTF-8" standalone="no"?>
<svg
   width="16"
   height="16"
   version="1.1"
   id="svg9387"
   sodipodi:docname="Adwaita Manager Symbolic.svg"
   inkscape:version="1.2.1 (9c6d41e410, 2022-07-14)"
   xmlns:inkscape="http://www.inkscape.org/namespaces/inkscape"
   xmlns:sodipodi="http://sodipodi.sourceforge.net/DTD/sodipodi-0.dtd"
   xmlns="http://www.w3.org/2000/svg"
   xmlns:svg="http://www.w3.org/2000/svg">
  <defs
     id="defs9391" />
  <sodipodi:namedview
     id="namedview9389"
     pagecolor="#ffffff"
     bordercolor="#000000"
     borderopacity="0.25"
     inkscape:showpageshadow="2"
     inkscape:pageopacity="0.0"
     inkscape:pagecheckerboard="0"
     inkscape:deskcolor="#d1d1d1"
     showgrid="false"
     inkscape:zoom="24.256836"
     inkscape:cx="8.1832602"
     inkscape:cy="8.8222553"
     inkscape:window-width="1280"
     inkscape:window-height="731"
     inkscape:window-x="0"
     inkscape:window-y="0"
     inkscape:window-maximized="1"
     inkscape:current-layer="svg9387" />
  <g
     id="g10986"
     transform="translate(1,-0.00273415)">
    <path
       id="path1225"
       style="display:inline;fill:#2e3436;fill-opacity:1;stroke:none;stroke-width:0.458335px;stroke-linecap:butt;stroke-linejoin:miter;stroke-opacity:1;enable-background:new"
       d="m 0,7.0027493 1.93555,1.93555 c -0.0586,-0.0883 -0.12148,-0.17702 -0.17188,-0.26172 0.1402,-0.19473 0.30009,-0.37472 0.47852,-0.53516 0.51536,0.22795 1.16344,0.65048 1.43554,0.53516 0.27209,-0.11443 0.42364,-0.87934 0.61915,-1.40821 0.0667,-0.004 0.13161,-0.0273 0.19921,-0.0273 0.17208,0 0.34098,0.0314 0.50586,0.0566 0.14505,0.54599 0.21723,1.32053 0.47852,1.46289 0.25948,0.14145 0.95611,-0.21689 1.49219,-0.39258 0.16182,0.18094 0.30344,0.37796 0.42187,0.58985 -0.33787,0.45139 -0.89515,0.97746 -0.84375,1.2675797 0.0505,0.28561 0.73792,0.59676 1.21094,0.90039 -0.006,0.036 0.007,0.0773 0,0.11328 -0.0433,0.20723 -0.11797,0.3999 -0.19727,0.59179 -0.56311,0.0144 -1.29937,-0.0794 -1.49218,0.13868 -0.14593,0.16488 -0.0856,0.62614 -0.0234,1.08203 L 8,15.002749 V 7.0027493 Z m 4.50781,2.1543 c -0.58051,0.0197 -1.14206,0.36816 -1.37304,0.9804697 l 1.95507,1.95507 c 1.03126,-0.38903 1.31648,-1.71281 0.53711,-2.4921797 -0.31661,-0.31662 -0.72194,-0.45682 -1.11914,-0.44336 z" />
    <path
       style="display:inline;fill:#2e3436;fill-opacity:1;stroke:none;stroke-width:0.381948px;stroke-linecap:butt;stroke-linejoin:miter;stroke-opacity:1;enable-background:new"
       d="M 14,1.0027193 H 7.99999 v 6.00002 z"
       id="path1227"
       sodipodi:nodetypes="cccc" />
    <path
       style="display:inline;fill:#2e3436;fill-opacity:1;stroke:none;stroke-width:0.381948px;stroke-linecap:butt;stroke-linejoin:miter;stroke-opacity:1;enable-background:new"
       d="m 8.00001,7.0027393 h 5 v 5.0000097 z"
       id="path1675"
       sodipodi:nodetypes="cccc" />
  </g>
</svg>
