<?xml version="1.0" encoding="UTF-8"?>
<svg height="16px" viewBox="0 0 16 16" width="16px" xmlns="http://www.w3.org/2000/svg">
    <g fill="#241f31">
        <path d="m 3 0 c -1.660156 0 -3 1.339844 -3 3 v 2 c 0 1.660156 1.339844 3 3 3 h 10 c 1.660156 0 3 -1.339844 3 -3 v -2 c 0 -1.660156 -1.339844 -3 -3 -3 z m 0 2 h 10 c 0.554688 0 1 0.445312 1 1 v 2 c 0 0.554688 -0.445312 1 -1 1 h -10 c -0.554688 0 -1 -0.445312 -1 -1 v -2 c 0 -0.554688 0.445312 -1 1 -1 z m 0 0"/>
        <path d="m 8 9 h 7 c 0.550781 0 1 0.449219 1 1 s -0.449219 1 -1 1 h -7 c -0.550781 0 -1 -0.449219 -1 -1 s 0.449219 -1 1 -1 z m 0 0"/>
        <path d="m 8 9 c 0.550781 0 1 0.449219 1 1 v 5 c 0 0.550781 -0.449219 1 -1 1 s -1 -0.449219 -1 -1 v -5 c 0 -0.550781 0.449219 -1 1 -1 z m 0 0"/>
    </g>
</svg>
