<?xml version="1.0" encoding="UTF-8" standalone="no"?>
<!-- Created with Inkscape (http://www.inkscape.org/) -->

<svg
   width="4.2333341mm"
   height="4.2333341mm"
   viewBox="0 0 4.2333341 4.2333341"
   version="1.1"
   id="svg23045"
   inkscape:version="1.2.1 (9c6d41e410, 2022-07-14)"
   sodipodi:docname="drawing-1.svg"
   xmlns:inkscape="http://www.inkscape.org/namespaces/inkscape"
   xmlns:sodipodi="http://sodipodi.sourceforge.net/DTD/sodipodi-0.dtd"
   xmlns="http://www.w3.org/2000/svg"
   xmlns:svg="http://www.w3.org/2000/svg">
  <sodipodi:namedview
     id="namedview23047"
     pagecolor="#ffffff"
     bordercolor="#666666"
     borderopacity="1.0"
     inkscape:showpageshadow="2"
     inkscape:pageopacity="0.0"
     inkscape:pagecheckerboard="0"
     inkscape:deskcolor="#d1d1d1"
     inkscape:document-units="mm"
     showgrid="false"
     inkscape:zoom="16.251934"
     inkscape:cx="31.473177"
     inkscape:cy="14.521348"
     inkscape:current-layer="layer1" />
  <defs
     id="defs23042" />
  <g
     inkscape:label="Layer 1"
     inkscape:groupmode="layer"
     id="layer1"
     transform="translate(-110.43466,-196.25977)">
    <path
       id="rect16210"
       style="display:inline;fill:#000000;fill-opacity:1;stroke:#000000;stroke-width:0;stroke-linecap:round;stroke-linejoin:round;stroke-dashoffset:34.5;paint-order:markers stroke fill;enable-background:new"
       d="m 113.25785,196.27275 c -0.0302,0.001 -0.0603,0.0127 -0.0846,0.0346 l -0.0181,0.0163 -0.59886,0.53823 -0.71744,0.64488 -0.71744,0.64488 -0.61701,0.55446 c -0.0557,0.05 -0.0601,0.13517 -0.0101,0.19084 l 0.26279,0.29239 -0.004,0.003 c -0.0319,0.0287 -0.0345,0.0775 -0.006,0.1094 0.0287,0.0319 0.0774,0.0345 0.1093,0.006 l 0.004,-0.003 0.25523,0.28401 c 0.05,0.0557 0.13518,0.0602 0.19085,0.0102 l 0.0182,-0.0163 0.59875,-0.53824 0.71744,-0.64488 0.71744,-0.64478 0.59885,-0.53823 0.0182,-0.0163 c 0.0557,-0.05 0.0601,-0.13517 0.0101,-0.19084 l -0.0158,-0.0175 c -1.7e-4,-1.8e-4 -1.9e-4,-2.6e-4 -2.6e-4,-5.3e-4 l -0.23901,-0.26585 0.0449,-0.0403 0.39903,0.44404 -1.42222,1.27823 c -0.003,0.003 -0.005,0.005 -0.008,0.008 l 0.002,-0.002 c -0.0118,0.0135 -0.0185,0.03 -0.0193,0.047 -1.9e-4,0.004 7e-5,0.009 5.3e-4,0.0132 6e-5,5.3e-4 3e-5,0.001 10e-5,0.002 7.9e-4,0.005 0.002,0.009 0.003,0.0135 8e-5,1.9e-4 1.3e-4,2.6e-4 2e-4,8e-4 2e-5,7e-5 7e-5,1.3e-4 1e-4,1.9e-4 l 10e-5,1e-4 c 0.002,0.004 0.003,0.009 0.006,0.0127 1.3e-4,1.9e-4 1.7e-4,5.3e-4 2.6e-4,8e-4 l 10e-5,1e-4 c 8e-5,1.3e-4 1.3e-4,1.9e-4 1.9e-4,2.6e-4 0.003,0.004 0.006,0.008 0.009,0.0123 l 0.3577,0.3979 a 0.33439285,0.33439285 0 0 0 0.0258,0.41312 0.33439285,0.33439285 0 0 0 0.0429,0.0392 c 0.0161,0.0233 0.0338,0.0461 0.0536,0.0681 l 0.76244,0.84827 c 0.17727,0.19723 0.43097,0.25631 0.56875,0.13247 0.13778,-0.12384 0.10593,-0.38224 -0.0713,-0.57947 l -0.76244,-0.84837 c -0.0193,-0.0215 -0.0397,-0.0409 -0.0605,-0.0591 a 0.33439285,0.33439285 0 0 0 -0.0359,-0.0482 0.33439285,0.33439285 0 0 0 -0.40801,-0.0696 l -0.30586,-0.34035 1.42212,-1.27823 c 0.0162,-0.0146 0.0248,-0.0344 0.0256,-0.0546 l -0.004,-1.8e-4 c 1.6e-4,-0.0225 -0.009,-0.0466 -0.0264,-0.0663 l -0.48272,-0.53701 c -0.0176,-0.0196 -0.0404,-0.0309 -0.0627,-0.0333 l 1.1e-4,-0.003 c -0.0161,-0.001 -0.0323,0.004 -0.0464,0.0128 -0.003,0.002 -0.007,0.004 -0.01,0.007 l -0.10246,0.0922 -0.24657,-0.27432 -0.0163,-0.0182 c -0.0282,-0.0313 -0.0674,-0.0465 -0.10624,-0.0448 z" />
  </g>
</svg>
