<?xml version="1.0" encoding="UTF-8" standalone="no"?>
<!-- Created with Inkscape (http://www.inkscape.org/) -->

<svg
   width="34.131248mm"
   height="34.131248mm"
   viewBox="0 0 34.131248 34.131248"
   version="1.1"
   id="svg22507"
   inkscape:version="1.2.1 (9c6d41e410, 2022-07-14)"
   sodipodi:docname="drawing.svg"
   xmlns:inkscape="http://www.inkscape.org/namespaces/inkscape"
   xmlns:sodipodi="http://sodipodi.sourceforge.net/DTD/sodipodi-0.dtd"
   xmlns:xlink="http://www.w3.org/1999/xlink"
   xmlns="http://www.w3.org/2000/svg"
   xmlns:svg="http://www.w3.org/2000/svg">
  <sodipodi:namedview
     id="namedview22509"
     pagecolor="#ffffff"
     bordercolor="#666666"
     borderopacity="1.0"
     inkscape:showpageshadow="2"
     inkscape:pageopacity="0.0"
     inkscape:pagecheckerboard="0"
     inkscape:deskcolor="#d1d1d1"
     inkscape:document-units="mm"
     showgrid="false"
     inkscape:zoom="1.9768584"
     inkscape:cx="75.119188"
     inkscape:cy="90.041855"
     inkscape:current-layer="layer1" />
  <defs
     id="defs22504">
    <linearGradient
       inkscape:collect="always"
       xlink:href="#linearGradient1073"
       id="linearGradient22204"
       gradientUnits="userSpaceOnUse"
       gradientTransform="matrix(0.23954731,0,0,0.26704628,126.42593,259.62819)"
       x1="88.595886"
       y1="-449.39401"
       x2="536.59589"
       y2="-449.39401" />
    <linearGradient
       inkscape:collect="always"
       id="linearGradient1073">
      <stop
         style="stop-color:#77767b;stop-opacity:1"
         offset="0"
         id="stop1060" />
      <stop
         id="stop1062"
         offset="0.03846154"
         style="stop-color:#c0bfbc;stop-opacity:1" />
      <stop
         style="stop-color:#9a9996;stop-opacity:1"
         offset="0.07685554"
         id="stop1064" />
      <stop
         id="stop1067"
         offset="0.92307693"
         style="stop-color:#9a9996;stop-opacity:1" />
      <stop
         style="stop-color:#c0bfbc;stop-opacity:1"
         offset="0.96153849"
         id="stop1069" />
      <stop
         style="stop-color:#77767b;stop-opacity:1"
         offset="1"
         id="stop1071" />
    </linearGradient>
    <filter
       inkscape:collect="always"
       style="color-interpolation-filters:sRGB"
       id="filter19841"
       x="-0.073403859"
       y="-0.0722526"
       width="1.1468077"
       height="1.1445052">
      <feGaussianBlur
         inkscape:collect="always"
         stdDeviation="2.6889496"
         id="feGaussianBlur19843" />
    </filter>
    <linearGradient
       inkscape:collect="always"
       xlink:href="#linearGradient2125"
       id="linearGradient22202"
       gradientUnits="userSpaceOnUse"
       gradientTransform="matrix(0.77042308,0,0,0.77042308,-82.595304,234.93494)"
       x1="228.48895"
       y1="15.736462"
       x2="246.81084"
       y2="15.736462" />
    <linearGradient
       id="linearGradient2125"
       inkscape:collect="always">
      <stop
         id="stop2113"
         offset="0"
         style="stop-color:#d5d3cf;stop-opacity:1" />
      <stop
         style="stop-color:#e3e2df;stop-opacity:1"
         offset="0.14240676"
         id="stop2115" />
      <stop
         style="stop-color:#c0bfbc;stop-opacity:1"
         offset="0.46249032"
         id="stop2117" />
      <stop
         style="stop-color:#c0bfbc;stop-opacity:1"
         offset="0.48151124"
         id="stop2119" />
      <stop
         style="stop-color:#e3e2df;stop-opacity:1"
         offset="0.8378405"
         id="stop2121" />
      <stop
         id="stop2123"
         offset="1"
         style="stop-color:#d5d3cf;stop-opacity:1" />
    </linearGradient>
    <linearGradient
       inkscape:collect="always"
       xlink:href="#linearGradient2125"
       id="linearGradient22200"
       gradientUnits="userSpaceOnUse"
       gradientTransform="matrix(0.934279,0,0,0.934279,-79.785904,223.97512)"
       x1="236.16283"
       y1="-15.940514"
       x2="239.66225"
       y2="-15.940514" />
    <linearGradient
       inkscape:collect="always"
       xlink:href="#linearGradient2125"
       id="linearGradient22198"
       gradientUnits="userSpaceOnUse"
       gradientTransform="matrix(0.61228592,0.70567925,-0.70567925,0.61228592,77.02667,-94.34664)"
       x1="236.16283"
       y1="-15.940514"
       x2="239.66225"
       y2="-15.940514" />
    <linearGradient
       inkscape:collect="always"
       xlink:href="#linearGradient2125"
       id="linearGradient22196"
       gradientUnits="userSpaceOnUse"
       gradientTransform="matrix(0.61228592,0.70567925,-0.70567925,0.61228592,119.49767,-110.18743)"
       x1="236.16283"
       y1="-15.940514"
       x2="239.66225"
       y2="-15.940514" />
    <linearGradient
       inkscape:collect="always"
       xlink:href="#linearGradient2125"
       id="linearGradient22194"
       gradientUnits="userSpaceOnUse"
       gradientTransform="matrix(0.70567925,-0.61228592,0.61228592,0.70567925,65.629966,261.4641)"
       x1="236.16283"
       y1="-15.940514"
       x2="239.66225"
       y2="-15.940514" />
    <linearGradient
       inkscape:collect="always"
       xlink:href="#linearGradient7181"
       id="linearGradient22192"
       gradientUnits="userSpaceOnUse"
       gradientTransform="matrix(0.54078355,-0.46921339,0.61228592,0.70567925,92.92275,228.48197)"
       x1="192.31543"
       y1="-47.913715"
       x2="192.31543"
       y2="-20.800291" />
    <linearGradient
       inkscape:collect="always"
       id="linearGradient7181">
      <stop
         style="stop-color:#ed333c;stop-opacity:1;"
         offset="0"
         id="stop7177" />
      <stop
         style="stop-color:#ed333c;stop-opacity:1;"
         offset="1"
         id="stop7179" />
    </linearGradient>
    <linearGradient
       inkscape:collect="always"
       xlink:href="#linearGradient7173"
       id="linearGradient22190"
       gradientUnits="userSpaceOnUse"
       gradientTransform="matrix(0.934279,0,0,0.934279,-121.53564,233.47445)"
       x1="214.10793"
       y1="-47.913715"
       x2="214.10793"
       y2="-20.800291" />
    <linearGradient
       inkscape:collect="always"
       id="linearGradient7173">
      <stop
         style="stop-color:#ff7800;stop-opacity:1;"
         offset="0"
         id="stop7169" />
      <stop
         style="stop-color:#ff7800;stop-opacity:1;"
         offset="1"
         id="stop7171" />
    </linearGradient>
    <linearGradient
       inkscape:collect="always"
       xlink:href="#linearGradient7157"
       id="linearGradient22188"
       gradientUnits="userSpaceOnUse"
       gradientTransform="matrix(0.52037017,-0.45150162,0.61228592,0.70567925,113.00195,211.06016)"
       x1="249.93239"
       y1="-47.913715"
       x2="249.9324"
       y2="-20.800291" />
    <linearGradient
       inkscape:collect="always"
       id="linearGradient7157">
      <stop
         style="stop-color:#57e489;stop-opacity:1;"
         offset="0"
         id="stop7153" />
      <stop
         style="stop-color:#57e489;stop-opacity:1;"
         offset="1"
         id="stop7155" />
    </linearGradient>
    <linearGradient
       inkscape:collect="always"
       xlink:href="#linearGradient7165"
       id="linearGradient22186"
       gradientUnits="userSpaceOnUse"
       gradientTransform="matrix(0.934279,0,0,0.934279,-121.53564,233.47445)"
       x1="235.90042"
       y1="-47.913715"
       x2="235.90042"
       y2="-20.800291" />
    <linearGradient
       inkscape:collect="always"
       id="linearGradient7165">
      <stop
         style="stop-color:#f6d32d;stop-opacity:1;"
         offset="0"
         id="stop7161" />
      <stop
         style="stop-color:#f6d32d;stop-opacity:1;"
         offset="1"
         id="stop7163" />
    </linearGradient>
    <linearGradient
       inkscape:collect="always"
       xlink:href="#linearGradient7933"
       id="linearGradient22184"
       gradientUnits="userSpaceOnUse"
       gradientTransform="matrix(0.934279,0,0,0.934279,-121.53564,233.47445)"
       x1="279.48544"
       y1="-20.800291"
       x2="279.48544"
       y2="-47.913715" />
    <linearGradient
       inkscape:collect="always"
       id="linearGradient7933">
      <stop
         style="stop-color:#000000;stop-opacity:0.62517571;"
         offset="0"
         id="stop7929" />
      <stop
         style="stop-color:#000000;stop-opacity:0.47843137;"
         offset="0.13343254"
         id="stop7939" />
      <stop
         style="stop-color:#000000;stop-opacity:0.28235294;"
         offset="0.37869367"
         id="stop7941" />
      <stop
         style="stop-color:#000000;stop-opacity:0.11764706;"
         offset="0.59057897"
         id="stop7943" />
      <stop
         style="stop-color:#000000;stop-opacity:0;"
         offset="1"
         id="stop7931" />
    </linearGradient>
  </defs>
  <g
     inkscape:label="Layer 1"
     inkscape:groupmode="layer"
     id="layer1"
     transform="translate(-85.989583,-110.86042)">
    <g
       id="g22235"
       style="display:inline;enable-background:new"
       transform="matrix(0.26458333,0,0,0.26458333,49.524291,103.13729)">
      <rect
         style="fill:#ffffff;fill-opacity:1;stroke:#deddda;stroke-width:0.6;stroke-linecap:round;stroke-linejoin:round;stroke-dasharray:none;stroke-dashoffset:34.5;paint-order:markers stroke fill"
         id="rect22136"
         width="107.31721"
         height="75.039459"
         x="147.94885"
         y="64.279739"
         ry="10.222007"
         rx="10.222007"
         inkscape:export-filename="./rect14840.png"
         inkscape:export-xdpi="96"
         inkscape:export-ydpi="96" />
      <rect
         style="display:inline;opacity:0.487989;vector-effect:none;fill:url(#linearGradient22204);fill-opacity:1;stroke:none;stroke-width:0.228817;stroke-linecap:butt;stroke-linejoin:miter;stroke-miterlimit:4;stroke-dasharray:none;stroke-dashoffset:0;stroke-opacity:1;marker:none;marker-start:none;marker-mid:none;marker-end:none;paint-order:normal;enable-background:new"
         id="rect22138"
         width="107.31721"
         height="81.182068"
         x="147.64885"
         y="58.437134"
         rx="10.212803"
         ry="10.212803" />
      <rect
         style="fill:#ffffff;fill-opacity:1;stroke:#deddda;stroke-width:0.6;stroke-linecap:round;stroke-linejoin:round;stroke-dasharray:none;stroke-dashoffset:34.5;paint-order:markers stroke fill"
         id="rect22140"
         width="107.31721"
         height="75.039459"
         x="147.64885"
         y="58.437134"
         ry="10.222007"
         rx="10.222007" />
      <path
         id="path22142"
         style="fill:#f6f5f4;fill-opacity:1;stroke:#000000;stroke-width:0;stroke-linecap:round;stroke-linejoin:round;stroke-dasharray:none;stroke-dashoffset:34.5;paint-order:markers stroke fill"
         d="m 157.73328,58.43756 c -5.58643,0 -10.08447,4.49611 -10.08447,10.08255 v 5.81871 h 107.31664 v -5.81871 c 0,-5.58644 -4.49612,-10.08255 -10.08256,-10.08255 z" />
      <path
         id="path22144"
         style="opacity:0.524558;fill:#f6d32d;fill-opacity:1;stroke:#000000;stroke-width:0;stroke-linecap:butt;stroke-linejoin:miter;stroke-dasharray:none;stroke-opacity:1"
         d="m 180.8229,58.43637 17.52116,19.31029 15.37836,-13.3431 -5.11632,-5.96719 z"
         sodipodi:nodetypes="ccccc" />
      <path
         id="path22146"
         style="opacity:0.524558;fill:#57e489;fill-opacity:1;stroke:#000000;stroke-width:0;stroke-linecap:butt;stroke-linejoin:miter;stroke-dasharray:none;stroke-opacity:1"
         d="m 208.6061,58.43637 5.11633,5.96717 23.67859,-3.77577 -2.04492,-2.1914 z"
         sodipodi:nodetypes="ccccc" />
      <path
         id="path22148"
         style="opacity:0.524558;fill:#f66151;stroke:#000000;stroke-width:0;stroke-linecap:butt;stroke-linejoin:miter;stroke-dasharray:none;stroke-opacity:1"
         d="m 156.36977,58.55746 c -4.94439,0.72357 -8.7207,4.9501 -8.7207,10.10156 v 10.57032 l 23.21093,27.51562 12.10547,-15.6543 z" />
      <path
         id="path22150"
         style="opacity:0.524558;fill:#ff7800;fill-opacity:1;stroke:#000000;stroke-width:0;stroke-linecap:butt;stroke-linejoin:miter;stroke-dasharray:none;stroke-opacity:1"
         d="m 157.87172,58.43637 c -1.15609,0 -2.26152,0.19765 -3.29492,0.55078 0.57591,-0.19458 1.17555,-0.33933 1.79297,-0.42969 l 26.5957,32.5332 -0.14453,0.1875 7.22852,7.75 12.90429,-16.26757 -22.13085,-24.32422 z m -3.29882,0.55078 c -0.46368,0.15863 -0.91451,0.34688 -1.34571,0.56641 l 0.008,0.008 c 0.4308,-0.21854 0.87422,-0.41738 1.3379,-0.57422 z" />
      <rect
         style="fill:#000000;fill-opacity:1;stroke:#000000;stroke-width:0;stroke-linecap:round;stroke-linejoin:round;stroke-dashoffset:34.5;paint-order:markers stroke fill"
         id="rect22152"
         width="14.115603"
         height="44.280247"
         x="93.437889"
         y="228.44746"
         ry="9.1609411"
         rx="9.1609411"
         transform="rotate(-40.946696)" />
      <path
         id="path22154"
         style="opacity:0.352764;fill:#000000;fill-opacity:1;stroke:#000000;stroke-width:0;stroke-linecap:round;stroke-linejoin:round;stroke-dashoffset:34.5;paint-order:markers stroke fill;filter:url(#filter19841)"
         d="m 228.7435,52.22983 c -0.63826,0.016 -1.2748,0.24623 -1.79689,0.69921 l -0.15038,0.13087 -13.07422,11.34375 -15.37891,13.34374 -15.37695,13.3418 -13.07422,11.34375 c -7.1e-4,6.2e-4 -0.001,10e-4 -0.002,0.002 l -0.14843,0.12891 c -1.19332,1.0354 -1.32056,2.83011 -0.28516,4.02344 l 0.125,0.14453 c 0.002,0.003 0.004,0.005 0.006,0.008 l 5.30859,6.11719 -0.0801,0.0684 c -0.68403,0.59351 -0.75757,1.6226 -0.16406,2.30664 0.5935,0.68405 1.62065,0.75562 2.30469,0.16211 l 0.0801,-0.0703 5.15039,5.9375 c 0.001,0.001 0.003,0.002 0.004,0.004 l 0.12891,0.14844 c 1.03539,1.19333 2.82815,1.32056 4.02148,0.28516 l 0.15234,-0.13282 11.49024,-9.96875 1.58203,-1.37304 15.37891,-13.34375 15.3789,-13.34375 13.07422,-11.3418 c 0.004,-0.004 0.007,-0.008 0.0117,-0.0117 l 0.13867,-0.12109 c 1.19332,-1.03539 1.32055,-2.82816 0.28516,-4.02149 l -0.12501,-0.14453 -0.006,-0.008 -5.15234,-5.93555 0.96289,-0.83594 8.25782,9.51759 -30.48438,26.44921 c -0.0624,0.0542 -0.11968,0.11296 -0.17187,0.17383 l 0.043,-0.0371 c -0.2594,0.28263 -0.41052,0.63199 -0.43359,0.99415 -0.006,0.0918 -0.002,0.18361 0.008,0.27538 0.001,0.013 2.9e-4,0.0261 0.002,0.0391 0.0257,0.19947 0.0908,0.39383 0.1914,0.57617 0.002,0.004 0.003,0.009 0.006,0.0137 l 0.002,0.002 c 0.001,0.002 0.003,0.004 0.004,0.006 0.0525,0.0917 0.11356,0.18071 0.18555,0.26367 l 7.40039,8.5293 a 7.0578017,7.0578017 0 0 0 0.39258,8.72656 7.0578017,7.0578017 0 0 0 0.65234,0.65234 c 0.22547,0.31838 0.46298,0.63371 0.72656,0.9375 l 17.01172,19.60547 c 3.32604,3.83337 8.38067,4.85738 11.33399,2.29493 2.95331,-2.56246 2.65416,-7.71156 -0.67188,-11.54492 l -17.01171,-19.60742 c -0.25994,-0.29959 -0.53524,-0.57497 -0.81446,-0.83985 a 7.0578017,7.0578017 0 0 0 -0.56445,-0.74804 7.0578017,7.0578017 0 0 0 -8.58594,-1.61914 l -6.32813,-7.29493 30.48438,-26.44922 c 0.34839,-0.30228 0.53653,-0.7176 0.56055,-1.14258 l -0.0488,-0.004 c 0.0234,-0.44094 -0.12287,-0.90151 -0.44727,-1.2754 L 240.98763,57.82553 c -0.32248,-0.37168 -0.75617,-0.58226 -1.19336,-0.62305 l 0.002,-0.0234 c -0.24805,-0.0184 -0.49691,0.0265 -0.73243,0.12304 -0.0445,0.0171 -0.0878,0.0372 -0.13085,0.0586 -0.0255,0.0132 -0.0512,0.0244 -0.0762,0.0391 -0.0873,0.0496 -0.17339,0.10775 -0.25195,0.17578 -0.005,0.004 -0.009,0.009 -0.0137,0.0137 l -2.18164,1.89454 -5.3086,-6.1172 -0.13085,-0.15233 c -0.58242,-0.67126 -1.40596,-1.00498 -2.22656,-0.98438 z" />
      <rect
         style="opacity:0.835958;fill:url(#linearGradient22202);fill-opacity:1;stroke:#000000;stroke-width:0;stroke-linecap:round;stroke-linejoin:round;stroke-dashoffset:34.5;paint-order:markers stroke fill"
         id="rect22156"
         width="14.115603"
         height="44.280247"
         x="93.437889"
         y="228.44746"
         ry="9.1609411"
         rx="9.1609411"
         transform="rotate(-40.946696)" />
      <circle
         style="fill:#a09e9a;fill-opacity:1;stroke:#000000;stroke-width:0;stroke-linecap:round;stroke-linejoin:round;stroke-dashoffset:34.5;paint-order:markers stroke fill"
         id="circle22158"
         cx="100.49569"
         cy="235.50526"
         r="7.0578017"
         transform="rotate(-40.946696)" />
      <path
         id="path22160"
         style="opacity:0.408037;fill:#f5f5f5;fill-opacity:1;stroke:#000000;stroke-width:0;stroke-linecap:round;stroke-linejoin:round;stroke-dasharray:none;stroke-dashoffset:34.5;paint-order:markers stroke fill"
         d="m 157.73328,58.43756 c -5.58643,0 -10.08447,4.49611 -10.08447,10.08255 v 5.81871 h 107.31664 v -5.81871 c 0,-5.58644 -4.49612,-10.08255 -10.08256,-10.08255 z" />
      <rect
         style="fill:url(#linearGradient22200);fill-opacity:1;stroke:#000000;stroke-width:0;stroke-linecap:round;stroke-linejoin:round;stroke-dashoffset:34.5;paint-order:markers stroke fill"
         id="rect22162"
         width="3.2694347"
         height="19.100412"
         x="140.85608"
         y="199.86006"
         ry="1.7497108"
         rx="1.7497108"
         transform="rotate(-40.946696)" />
      <path
         id="path22164"
         style="fill:url(#linearGradient22198);fill-opacity:1;stroke:#000000;stroke-width:0;stroke-linecap:round;stroke-linejoin:round;stroke-dashoffset:34.5;paint-order:markers stroke fill"
         d="m 174.81516,112.92492 c -0.68403,0.59351 -0.75695,1.6224 -0.16344,2.30644 0.59351,0.68405 1.62121,0.75557 2.30524,0.16206 l 62.58494,-54.30211 0.25529,-3.91298 c -0.41843,-0.031 -0.84768,0.10012 -1.1911,0.39809 z" />
      <path
         id="path22166"
         style="fill:url(#linearGradient22196);fill-opacity:1;stroke:#000000;stroke-width:0;stroke-linecap:round;stroke-linejoin:round;stroke-dashoffset:34.5;paint-order:markers stroke fill"
         d="m 217.28565,97.08372 c -0.68404,0.59351 -0.75695,1.62239 -0.16343,2.30644 0.59351,0.68404 1.62239,0.75695 2.30643,0.16343 l 31.71973,-27.52177 c 0.34839,-0.30228 0.53556,-0.71767 0.55958,-1.14264 l -3.9104,-0.25511 1.35899,-1.17913 c -0.0509,0.0349 -0.10346,0.0656 -0.15117,0.107 z" />
      <path
         id="path22168"
         style="fill:url(#linearGradient22194);fill-opacity:1;stroke:#000000;stroke-width:0;stroke-linecap:round;stroke-linejoin:round;stroke-dashoffset:34.5;paint-order:markers stroke fill"
         d="m 217.28565,97.08372 c -0.0624,0.0542 -0.11796,0.11334 -0.17016,0.17421 l 0.36663,-0.31811 c -0.0676,0.0431 -0.13402,0.0897 -0.19647,0.1439 z m -0.56124,1.12958 c -0.0267,0.41357 0.1035,0.83766 0.39781,1.17686 l 10.80469,12.45275 c 0.59351,0.68405 1.62239,0.75696 2.30644,0.16344 0.68404,-0.59351 0.75695,-1.62239 0.16344,-2.30644 l -9.74635,-11.23298 z" />
      <path
         id="path22170"
         style="fill:url(#linearGradient22192);stroke:#000000;stroke-width:0;stroke-linecap:round;stroke-linejoin:round;stroke-dashoffset:34.5;paint-order:markers stroke fill"
         d="m 169.7409,102.56433 13.22449,-11.47429 v 0 l 16.60117,19.13338 v 0 l -13.22449,11.47429 c -1.19333,1.0354 -2.98758,0.90826 -4.02298,-0.28507 l -12.86326,-14.82533 c -1.0354,-1.19333 -0.90825,-2.98758 0.28507,-4.02298 z"
         sodipodi:nodetypes="sccccssss" />
      <rect
         style="fill:url(#linearGradient22190);fill-opacity:1;stroke:#000000;stroke-width:0;stroke-linecap:round;stroke-linejoin:round;stroke-dashoffset:34.5;paint-order:markers stroke fill"
         id="rect22172"
         width="20.360275"
         height="25.331503"
         x="78.500923"
         y="188.70967"
         ry="0"
         rx="0"
         transform="rotate(-40.946696)" />
      <path
         id="path22174"
         style="fill:url(#linearGradient22188);stroke:#000000;stroke-width:0;stroke-linecap:round;stroke-linejoin:round;stroke-dashoffset:34.5;paint-order:markers stroke fill"
         d="m 213.72242,64.40356 13.2245,-11.4743 c 1.19333,-1.03539 2.98758,-0.90825 4.02298,0.28508 l 12.86326,14.82533 c 1.0354,1.19333 0.90825,2.98758 -0.28507,4.02297 l -13.2245,11.4743 v 0 L 215.59137,66.55759 c -1.0354,-1.19333 -3.06228,-1.11863 -1.86895,-2.15403 z"
         sodipodi:nodetypes="sssssccss" />
      <rect
         style="fill:url(#linearGradient22186);fill-opacity:1;stroke:#000000;stroke-width:0;stroke-linecap:round;stroke-linejoin:round;stroke-dashoffset:34.5;paint-order:markers stroke fill"
         id="rect22176"
         width="20.360275"
         height="25.331503"
         x="98.861183"
         y="188.70967"
         ry="0"
         rx="0"
         transform="rotate(-40.946696)" />
      <rect
         style="fill:url(#linearGradient22184);fill-opacity:1;stroke:#000000;stroke-width:0;stroke-linecap:round;stroke-linejoin:round;stroke-dashoffset:34.5;paint-order:markers stroke fill"
         id="rect22178"
         width="81.441452"
         height="25.331503"
         x="58.14064"
         y="188.70967"
         ry="3.0524156"
         rx="3.0524156"
         transform="rotate(-40.946696)" />
      <circle
         style="opacity:0.575178;fill:#ffffff;fill-opacity:1;stroke:#deddda;stroke-width:0;stroke-linecap:round;stroke-linejoin:round;stroke-dasharray:none;stroke-dashoffset:34.5;paint-order:markers stroke fill"
         id="circle22180"
         cx="157.98601"
         cy="66.834534"
         r="5.1848826" />
      <path
         d="m 155.55574,64.40354 h 0.40517 0.0126 c 0.10287,0.005 0.20733,0.0522 0.27855,0.12661 l 1.73461,1.73462 1.74728,-1.73462 c 0.10762,-0.0934 0.18043,-0.12345 0.27855,-0.12661 h 0.40517 v 0.40516 c 0,0.11554 -0.0142,0.22316 -0.10129,0.30388 l -1.73462,1.73461 1.72195,1.72195 c 0.076,0.076 0.11396,0.1836 0.11396,0.29122 v 0.40516 h -0.40517 c -0.10762,0 -0.21524,-0.038 -0.29121,-0.11395 l -1.73462,-1.73461 -1.73461,1.73461 c -0.076,0.076 -0.18359,0.11395 -0.29121,0.11395 h -0.40517 v -0.40516 c 0,-0.10762 0.038,-0.21525 0.11396,-0.29122 l 1.73461,-1.72195 -1.73461,-1.73461 c -0.0855,-0.0791 -0.12345,-0.18992 -0.11396,-0.30388 z m 0,0"
         fill="#222222"
         id="path22182"
         style="opacity:0.600755;stroke-width:0.405165" />
    </g>
  </g>
</svg>
