<?xml version="1.0" encoding="UTF-8"?>
<svg height="128px" viewBox="0 0 128 128" width="128px" xmlns="http://www.w3.org/2000/svg" xmlns:xlink="http://www.w3.org/1999/xlink">
    <clipPath id="a">
        <path d="m 8 28 h 112 v 16 h -112 z m 0 0"/>
    </clipPath>
    <clipPath id="b">
        <path d="m 16 28 h 96 c 4.417969 0 8 3.582031 8 8 v 72 c 0 4.417969 -3.582031 8 -8 8 h -96 c -4.417969 0 -8 -3.582031 -8 -8 v -72 c 0 -4.417969 3.582031 -8 8 -8 z m 0 0"/>
    </clipPath>
    <clipPath id="c">
        <path d="m 8 28 h 112 v 88 h -112 z m 0 0"/>
    </clipPath>
    <clipPath id="d">
        <path d="m 16 28 h 96 c 4.417969 0 8 3.582031 8 8 v 72 c 0 4.417969 -3.582031 8 -8 8 h -96 c -4.417969 0 -8 -3.582031 -8 -8 v -72 c 0 -4.417969 3.582031 -8 8 -8 z m 0 0"/>
    </clipPath>
    <filter id="e" height="100%" width="100%" x="0%" y="0%">
        <feColorMatrix in="SourceGraphic" type="matrix" values="0 0 0 0 1 0 0 0 0 1 0 0 0 0 1 0 0 0 1 0"/>
    </filter>
    <mask id="f">
        <g filter="url(#e)">
            <rect fill-opacity="0.6" height="128" width="128"/>
        </g>
    </mask>
    <clipPath id="g">
        <rect height="152" width="192"/>
    </clipPath>
    <linearGradient id="h" gradientUnits="userSpaceOnUse">
        <stop offset="0" stop-color="#9a9996"/>
        <stop offset="0.5" stop-color="#ffffff"/>
        <stop offset="1" stop-color="#c0bfbc"/>
    </linearGradient>
    <linearGradient id="i" gradientTransform="matrix(0.419845 -0.419845 1.06066 1.06066 -514.668679 161.416048)" x1="848.421692" x2="848.421692" xlink:href="#h" y1="231.999969" y2="227.999969"/>
    <linearGradient id="j" gradientTransform="matrix(0.419845 -0.419845 1.06066 1.06066 -514.668679 161.416048)" x1="853.474365" x2="863.57959" xlink:href="#h" y1="237.333313" y2="237.333313"/>
    <linearGradient id="k" gradientTransform="matrix(0.419845 -0.419845 1.06066 1.06066 -515.375786 160.708942)" x1="823.158569" x2="823.158569" xlink:href="#h" y1="242.666641" y2="246.666641"/>
    <linearGradient id="l" gradientTransform="matrix(0.359867 -0.359867 1.06066 1.06066 -468.428906 115.176276)" x1="782.737488" x2="794.526978" xlink:href="#h" y1="248.666641" y2="248.666641"/>
    <linearGradient id="m" gradientTransform="matrix(0.606092 -0.606092 0.74639 0.74639 -415.914647 194.596414)" gradientUnits="userSpaceOnUse" x1="483.446625" x2="497.446625" y1="288.67099" y2="288.67099">
        <stop offset="0" stop-color="#865e3c"/>
        <stop offset="0.5" stop-color="#b5835a"/>
        <stop offset="1" stop-color="#865e3c"/>
    </linearGradient>
    <linearGradient id="n" gradientUnits="userSpaceOnUse">
        <stop offset="0" stop-color="#241f31"/>
        <stop offset="0.5" stop-color="#3d3846"/>
        <stop offset="1" stop-color="#241f31"/>
    </linearGradient>
    <linearGradient id="o" gradientTransform="matrix(1.06066 -1.06066 1.099944 1.099944 -136.621656 148.078885)" x1="102.666656" x2="102.666656" xlink:href="#n" y1="47.000015" y2="65.000015"/>
    <linearGradient id="p" gradientUnits="userSpaceOnUse">
        <stop offset="0" stop-color="#f5c211"/>
        <stop offset="0.5" stop-color="#f6d32d"/>
        <stop offset="1" stop-color="#e5a50a"/>
    </linearGradient>
    <linearGradient id="q" gradientTransform="matrix(1.06066 -1.06066 1.099944 1.099944 -95.609458 107.066686)" x1="81.999985" x2="81.999985" xlink:href="#p" y1="47.000015" y2="65.000015"/>
    <linearGradient id="r" gradientTransform="matrix(1.06066 -1.06066 1.099944 1.099944 -70.153592 81.610821)" x1="87.999962" x2="87.999962" xlink:href="#p" y1="47.000015" y2="65.000015"/>
    <linearGradient id="s" gradientTransform="matrix(1.06066 -1.06066 1.099944 1.099944 -82.881519 94.338748)" x1="81.999969" x2="81.999969" xlink:href="#n" y1="47.000015" y2="65.000015"/>
    <path d="m 16 30 h 96 c 4.417969 0 8 3.582031 8 8 v 72 c 0 4.417969 -3.582031 8 -8 8 h -96 c -4.417969 0 -8 -3.582031 -8 -8 v -72 c 0 -4.417969 3.582031 -8 8 -8 z m 0 0" fill="#deddda"/>
    <path d="m 16 28 h 96 c 4.417969 0 8 3.582031 8 8 v 72 c 0 4.417969 -3.582031 8 -8 8 h -96 c -4.417969 0 -8 -3.582031 -8 -8 v -72 c 0 -4.417969 3.582031 -8 8 -8 z m 0 0" fill="#fafafa"/>
    <g clip-path="url(#a)">
        <g clip-path="url(#b)">
            <path d="m 8 28 h 112 v 16 h -112 z m 0 0" fill="#ebebeb"/>
        </g>
    </g>
    <path d="m 117 36 c 0 2.761719 -2.238281 5 -5 5 s -5 -2.238281 -5 -5 s 2.238281 -5 5 -5 s 5 2.238281 5 5 z m 0 0" fill="#d8d8d8"/>
    <path d="m 110 34 h 0.515625 c 0.128906 0.007812 0.257813 0.0625 0.34375 0.15625 l 1.140625 1.140625 l 1.15625 -1.140625 c 0.132812 -0.113281 0.222656 -0.152344 0.34375 -0.15625 h 0.5 v 0.5 c 0 0.144531 -0.015625 0.273438 -0.125 0.375 l -1.140625 1.140625 l 1.125 1.125 c 0.09375 0.09375 0.140625 0.226563 0.140625 0.359375 v 0.5 h -0.5 c -0.132812 0 -0.265625 -0.046875 -0.359375 -0.140625 l -1.140625 -1.140625 l -1.140625 1.140625 c -0.09375 0.09375 -0.226563 0.140625 -0.359375 0.140625 h -0.5 v -0.5 c 0 -0.132812 0.046875 -0.265625 0.140625 -0.359375 l 1.140625 -1.125 l -1.140625 -1.140625 c -0.105469 -0.097656 -0.152344 -0.234375 -0.140625 -0.375 z m 0 0" fill="#2f2f2f"/>
    <g clip-path="url(#c)">
        <g clip-path="url(#d)">
            <g clip-path="url(#g)" mask="url(#f)" transform="matrix(1 0 0 1 -8 -16)">
                <path d="m -26.011719 48.898438 l 12.726563 -12.726563 l 67.882812 67.882813 l -12.726562 12.726562 z m 0 0"/>
                <path d="m -13.285156 36.171875 l 12.726562 -12.726563 l 67.882813 67.878907 l -12.726563 12.730469 z m 0 0" fill="#f6d32d"/>
                <path d="m -0.558594 23.445312 l 12.730469 -12.730468 l 67.882813 67.882812 l -12.730469 12.726563 z m 0 0"/>
                <path d="m 12.171875 10.714844 l 12.726563 -12.726563 l 67.882812 67.882813 l -12.726562 12.726562 z m 0 0" fill="#f6d32d"/>
            </g>
        </g>
    </g>
    <path d="m 79.125 51.285156 c -1.175781 1.175782 -1.175781 3.066406 0 4.242188 c 1.175781 1.175781 3.066406 1.175781 4.242188 0 l 6.363281 -6.363282 v -7.246093 c -0.765625 0 -1.53125 0.292969 -2.121094 0.878906 z m 0 0" fill="url(#i)"/>
    <path d="m 89.730469 41.917969 v 7.246093 l 10.605469 10.605469 h 7.246093 c 0 -0.765625 -0.292969 -1.535156 -0.878906 -2.121093 l -14.851563 -14.851563 c -0.585937 -0.585937 -1.355468 -0.878906 -2.121093 -0.878906 z m 0 0" fill="url(#j)"/>
    <path d="m 72.054688 88.054688 c -0.589844 0.585937 -0.882813 1.351562 -0.882813 2.121093 h 7.246094 l 28.285156 -28.285156 c 0.585937 -0.585937 0.878906 -1.355469 0.878906 -2.121094 h -7.246093 z m 0 0" fill="url(#k)"/>
    <path d="m 71.171875 90.175781 c 0 0.765625 0.292969 1.53125 0.882813 2.121094 l 9.898437 9.898437 c 1.175781 1.175782 3.066406 1.175782 4.242187 0 c 1.175782 -1.175781 1.175782 -3.066406 0 -4.242187 l -7.777343 -7.777344 z m 0 0" fill="url(#l)"/>
    <path d="m 83.367188 99.367188 c 2.34375 -2.34375 6.140624 -2.34375 8.484374 0 l 18.386719 18.382812 c 2.34375 2.34375 2.34375 6.144531 0 8.488281 s -6.144531 2.34375 -8.488281 0 l -18.382812 -18.386719 c -2.34375 -2.34375 -2.34375 -6.140624 0 -8.484374 z m 0 0" fill="url(#m)"/>
    <g fill="#865e3c">
        <path d="m 96.800781 117.042969 l 4.242188 -4.242188 c 0.390625 -0.390625 1.027343 -0.390625 1.417969 0 c 0.386718 0.390625 0.386718 1.023438 0 1.414063 l -4.246094 4.246094 c -0.390625 0.386718 -1.023438 0.386718 -1.414063 0 c -0.390625 -0.390626 -0.390625 -1.027344 0 -1.417969 z m 0 0"/>
        <path d="m 99.628906 119.875 l 4.246094 -4.246094 c 0.390625 -0.390625 1.023438 -0.390625 1.414062 0 c 0.390626 0.390625 0.390626 1.023438 0 1.414063 l -4.246093 4.246093 c -0.390625 0.390626 -1.023438 0.390626 -1.414063 0 c -0.390625 -0.390624 -0.390625 -1.023437 0 -1.414062 z m 0 0"/>
        <path d="m 102.460938 122.703125 l 4.242187 -4.242187 c 0.390625 -0.390626 1.023437 -0.390626 1.414063 0 c 0.390624 0.386718 0.390624 1.023437 0 1.414062 l -4.242188 4.242188 c -0.390625 0.390624 -1.027344 0.390624 -1.414062 0 c -0.390626 -0.390626 -0.390626 -1.023438 0 -1.414063 z m 0 0"/>
    </g>
    <path d="m 28.210938 86.640625 c -2.347657 2.347656 -2.347657 6.132813 0 8.484375 l 11.316406 11.3125 c 2.347656 2.351562 6.132812 2.351562 8.484375 0 l 8.484375 -8.484375 l -19.796875 -19.800781 z m 0 0" fill="url(#o)"/>
    <path d="m 36.699219 78.152344 l 12.726562 -12.726563 l 19.800781 19.800781 l -12.730468 12.726563 z m 0 0" fill="url(#q)"/>
    <path d="m 81.953125 72.496094 l 8.484375 -8.484375 c 2.351562 -2.351563 2.351562 -6.136719 0 -8.484375 l -11.3125 -11.316406 c -2.351562 -2.347657 -6.136719 -2.347657 -8.484375 0 l -8.488281 8.488281 z m 0 0" fill="url(#r)"/>
    <path d="m 49.425781 65.425781 l 12.726563 -12.726562 l 19.800781 19.796875 l -12.726563 12.730468 z m 0 0" fill="url(#s)"/>
</svg>
