<?xml version="1.0" encoding="UTF-8" standalone="no"?>
<!-- Created with Inkscape (http://www.inkscape.org/) -->

<svg
   width="33.866665mm"
   height="33.866665mm"
   viewBox="0 0 33.866665 33.866665"
   version="1.1"
   id="svg5358"
   inkscape:version="1.2.1 (9c6d41e410, 2022-07-14)"
   sodipodi:docname="com.github.ArtyIF.AdwCustomizer.svg"
   xmlns:inkscape="http://www.inkscape.org/namespaces/inkscape"
   xmlns:sodipodi="http://sodipodi.sourceforge.net/DTD/sodipodi-0.dtd"
   xmlns:xlink="http://www.w3.org/1999/xlink"
   xmlns="http://www.w3.org/2000/svg"
   xmlns:svg="http://www.w3.org/2000/svg">
  <sodipodi:namedview
     id="namedview5360"
     pagecolor="#ffffff"
     bordercolor="#666666"
     borderopacity="1.0"
     inkscape:showpageshadow="2"
     inkscape:pageopacity="0.0"
     inkscape:pagecheckerboard="0"
     inkscape:deskcolor="#d1d1d1"
     inkscape:document-units="mm"
     showgrid="false"
     inkscape:zoom="2.4298885"
     inkscape:cx="59.056208"
     inkscape:cy="44.446484"
     inkscape:current-layer="layer1" />
  <defs
     id="defs5355">
    <linearGradient
       inkscape:collect="always"
       xlink:href="#linearGradient1073"
       id="linearGradient2822"
       gradientUnits="userSpaceOnUse"
       gradientTransform="matrix(0.23954731,0,0,0.25694331,407.34784,252.01667)"
       x1="88.595886"
       y1="-449.39401"
       x2="536.59589"
       y2="-449.39401" />
    <linearGradient
       inkscape:collect="always"
       id="linearGradient1073">
      <stop
         style="stop-color:#77767b;stop-opacity:1"
         offset="0"
         id="stop1060" />
      <stop
         id="stop1062"
         offset="0.03846154"
         style="stop-color:#c0bfbc;stop-opacity:1" />
      <stop
         style="stop-color:#9a9996;stop-opacity:1"
         offset="0.07685554"
         id="stop1064" />
      <stop
         id="stop1067"
         offset="0.92307693"
         style="stop-color:#9a9996;stop-opacity:1" />
      <stop
         style="stop-color:#c0bfbc;stop-opacity:1"
         offset="0.96153849"
         id="stop1069" />
      <stop
         style="stop-color:#77767b;stop-opacity:1"
         offset="1"
         id="stop1071" />
    </linearGradient>
    <linearGradient
       inkscape:collect="always"
       xlink:href="#linearGradient7181"
       id="linearGradient2820"
       gradientUnits="userSpaceOnUse"
       gradientTransform="matrix(0.47401229,-0.53701293,2.890874,2.4058327,439.09226,293.18484)"
       x1="192.31543"
       y1="-47.913715"
       x2="192.31543"
       y2="-20.800291" />
    <linearGradient
       inkscape:collect="always"
       id="linearGradient7181">
      <stop
         style="stop-color:#ed333c;stop-opacity:1;"
         offset="0"
         id="stop7177" />
      <stop
         style="stop-color:#ed333c;stop-opacity:1;"
         offset="1"
         id="stop7179" />
    </linearGradient>
    <linearGradient
       inkscape:collect="always"
       xlink:href="#linearGradient7173"
       id="linearGradient2818"
       gradientUnits="userSpaceOnUse"
       gradientTransform="matrix(0.61854804,-0.70075894,2.890874,2.4058327,411.29582,324.67569)"
       x1="214.10793"
       y1="-47.913715"
       x2="214.10793"
       y2="-20.800291" />
    <linearGradient
       inkscape:collect="always"
       id="linearGradient7173">
      <stop
         style="stop-color:#ff7800;stop-opacity:1;"
         offset="0"
         id="stop7169" />
      <stop
         style="stop-color:#ff7800;stop-opacity:1;"
         offset="1"
         id="stop7171" />
    </linearGradient>
    <linearGradient
       inkscape:collect="always"
       xlink:href="#linearGradient7165"
       id="linearGradient2816"
       gradientUnits="userSpaceOnUse"
       gradientTransform="matrix(0.61854804,-0.70075894,2.890874,2.4058327,411.29582,324.67569)"
       x1="235.90042"
       y1="-47.913715"
       x2="235.90042"
       y2="-20.800291" />
    <linearGradient
       inkscape:collect="always"
       id="linearGradient7165">
      <stop
         style="stop-color:#f6d32d;stop-opacity:1;"
         offset="0"
         id="stop7161" />
      <stop
         style="stop-color:#f6d32d;stop-opacity:1;"
         offset="1"
         id="stop7163" />
    </linearGradient>
    <linearGradient
       inkscape:collect="always"
       xlink:href="#linearGradient7157"
       id="linearGradient2814"
       gradientUnits="userSpaceOnUse"
       gradientTransform="matrix(0.45611935,-0.5167419,2.890874,2.4058327,456.69227,273.24565)"
       x1="249.93239"
       y1="-47.913715"
       x2="249.9324"
       y2="-20.800291" />
    <linearGradient
       inkscape:collect="always"
       id="linearGradient7157">
      <stop
         style="stop-color:#57e489;stop-opacity:1;"
         offset="0"
         id="stop7153" />
      <stop
         style="stop-color:#57e489;stop-opacity:1;"
         offset="1"
         id="stop7155" />
    </linearGradient>
    <linearGradient
       inkscape:collect="always"
       xlink:href="#linearGradient2125"
       id="linearGradient2794"
       gradientUnits="userSpaceOnUse"
       gradientTransform="matrix(0.934279,0,0,0.934279,-79.785904,223.97512)"
       x1="236.16283"
       y1="-15.940514"
       x2="239.66225"
       y2="-15.940514" />
    <linearGradient
       id="linearGradient2125"
       inkscape:collect="always">
      <stop
         id="stop2113"
         offset="0"
         style="stop-color:#d5d3cf;stop-opacity:1" />
      <stop
         style="stop-color:#e3e2df;stop-opacity:1"
         offset="0.14240676"
         id="stop2115" />
      <stop
         style="stop-color:#c0bfbc;stop-opacity:1"
         offset="0.46249032"
         id="stop2117" />
      <stop
         style="stop-color:#c0bfbc;stop-opacity:1"
         offset="0.48151124"
         id="stop2119" />
      <stop
         style="stop-color:#e3e2df;stop-opacity:1"
         offset="0.8378405"
         id="stop2121" />
      <stop
         id="stop2123"
         offset="1"
         style="stop-color:#d5d3cf;stop-opacity:1" />
    </linearGradient>
    <linearGradient
       inkscape:collect="always"
       xlink:href="#linearGradient2125"
       id="linearGradient2796"
       gradientUnits="userSpaceOnUse"
       gradientTransform="matrix(0.61228592,0.70567925,-0.70567925,0.61228592,77.02667,-94.34664)"
       x1="236.16283"
       y1="-15.940514"
       x2="239.66225"
       y2="-15.940514" />
    <linearGradient
       inkscape:collect="always"
       xlink:href="#linearGradient2125"
       id="linearGradient2798"
       gradientUnits="userSpaceOnUse"
       gradientTransform="matrix(0.61228592,0.70567925,-0.70567925,0.61228592,119.49767,-110.18743)"
       x1="236.16283"
       y1="-15.940514"
       x2="239.66225"
       y2="-15.940514" />
    <linearGradient
       inkscape:collect="always"
       xlink:href="#linearGradient2125"
       id="linearGradient2800"
       gradientUnits="userSpaceOnUse"
       gradientTransform="matrix(0.70567925,-0.61228592,0.61228592,0.70567925,65.629966,261.4641)"
       x1="236.16283"
       y1="-15.940514"
       x2="239.66225"
       y2="-15.940514" />
    <linearGradient
       inkscape:collect="always"
       xlink:href="#linearGradient7181"
       id="linearGradient2802"
       gradientUnits="userSpaceOnUse"
       gradientTransform="matrix(0.2642923,-0.66540036,0.86829421,0.34488029,407.647,269.14292)"
       x1="192.31543"
       y1="-47.913715"
       x2="192.31543"
       y2="-20.800291" />
    <linearGradient
       inkscape:collect="always"
       xlink:href="#linearGradient7173"
       id="linearGradient2804"
       gradientUnits="userSpaceOnUse"
       gradientTransform="matrix(0.934279,0,0,0.934279,-141.64011,478.20791)"
       x1="214.10793"
       y1="-47.913715"
       x2="214.10793"
       y2="-20.800291" />
    <linearGradient
       inkscape:collect="always"
       xlink:href="#linearGradient7157"
       id="linearGradient2806"
       gradientUnits="userSpaceOnUse"
       gradientTransform="matrix(0.25431585,-0.64028297,0.86829421,0.34488029,417.46013,244.43672)"
       x1="249.93239"
       y1="-47.913715"
       x2="249.9324"
       y2="-20.800291" />
    <linearGradient
       inkscape:collect="always"
       xlink:href="#linearGradient7165"
       id="linearGradient2808"
       gradientUnits="userSpaceOnUse"
       gradientTransform="matrix(0.934279,0,0,0.934279,-141.64011,478.20791)"
       x1="235.90042"
       y1="-47.913715"
       x2="235.90042"
       y2="-20.800291" />
    <linearGradient
       inkscape:collect="always"
       xlink:href="#linearGradient2183"
       id="linearGradient2810"
       gradientUnits="userSpaceOnUse"
       gradientTransform="matrix(0.934279,0,0,0.934279,-141.64011,478.20791)"
       x1="279.48544"
       y1="-20.800291"
       x2="279.48544"
       y2="-47.913715" />
    <linearGradient
       inkscape:collect="always"
       id="linearGradient2183">
      <stop
         style="stop-color:#000000;stop-opacity:0.62517571;"
         offset="0"
         id="stop2173" />
      <stop
         style="stop-color:#000000;stop-opacity:0.47843137;"
         offset="0.13343254"
         id="stop2175" />
      <stop
         style="stop-color:#000000;stop-opacity:0.28235294;"
         offset="0.29126808"
         id="stop2177" />
      <stop
         style="stop-color:#000000;stop-opacity:0.11764706;"
         offset="0.54178184"
         id="stop2179" />
      <stop
         style="stop-color:#000000;stop-opacity:0;"
         offset="0.86446816"
         id="stop2181" />
      <stop
         style="stop-color:#000000;stop-opacity:0.03069582;"
         offset="1"
         id="stop2185" />
    </linearGradient>
    <linearGradient
       inkscape:collect="always"
       xlink:href="#linearGradient2303"
       id="linearGradient2812"
       gradientUnits="userSpaceOnUse"
       gradientTransform="translate(-20.104475,244.73346)"
       x1="93.437889"
       y1="250.58759"
       x2="107.55349"
       y2="250.58759" />
    <linearGradient
       inkscape:collect="always"
       id="linearGradient2303">
      <stop
         style="stop-color:#a37348;stop-opacity:1;"
         offset="0"
         id="stop2299" />
      <stop
         style="stop-color:#b7875f;stop-opacity:1;"
         offset="0.08621209"
         id="stop2309" />
      <stop
         style="stop-color:#c39a76;stop-opacity:1;"
         offset="0.46719989"
         id="stop2307" />
      <stop
         style="stop-color:#b7875f;stop-opacity:1;"
         offset="0.90388501"
         id="stop2311" />
      <stop
         style="stop-color:#af6c47;stop-opacity:1;"
         offset="1"
         id="stop2301" />
    </linearGradient>
  </defs>
  <g
     inkscape:label="Layer 1"
     inkscape:groupmode="layer"
     id="layer1"
     transform="translate(-83.948799,-148.69405)">
    <g
       id="g4307"
       transform="matrix(0.26458333,0,0,0.26458333,-27.280887,138.03136)"
       style="display:inline;enable-background:new">
      <rect
         style="fill:#ffffff;fill-opacity:1;stroke:#deddda;stroke-width:0;stroke-linecap:round;stroke-linejoin:round;stroke-dasharray:none;stroke-dashoffset:34.5;paint-order:markers stroke fill"
         id="rect2748"
         width="107.31721"
         height="75.039459"
         x="428.57077"
         y="61.508438"
         ry="10.222007"
         rx="10.222007"
         inkscape:export-filename="./rect14840.png"
         inkscape:export-xdpi="96"
         inkscape:export-ydpi="96" />
      <rect
         style="display:inline;opacity:0.487989;fill:url(#linearGradient2822);fill-opacity:1;stroke:none;stroke-width:0.224447;stroke-linecap:butt;stroke-linejoin:miter;stroke-miterlimit:4;stroke-dasharray:none;stroke-dashoffset:0;stroke-opacity:1;marker:none;marker-start:none;marker-mid:none;marker-end:none;paint-order:normal;enable-background:new"
         id="rect2750"
         width="107.31721"
         height="78.110764"
         x="428.57077"
         y="58.437134"
         rx="10.212803"
         ry="10.212803" />
      <rect
         style="fill:#f6f5f4;fill-opacity:1;stroke:#c0bfbc;stroke-width:0.6;stroke-linecap:round;stroke-linejoin:round;stroke-dasharray:none;stroke-dashoffset:34.5;stroke-opacity:1;paint-order:markers stroke fill"
         id="rect2752"
         width="107.31721"
         height="75.039459"
         x="428.57074"
         y="58.437134"
         ry="10.222007"
         rx="10.222007" />
      <path
         id="path2754"
         style="opacity:0.704367;fill:url(#linearGradient2820);stroke:#000000;stroke-width:0;stroke-linecap:round;stroke-linejoin:round;stroke-dashoffset:34.5;paint-order:markers stroke fill"
         d="m 428.57031,78.798828 v 26.488282 l 32.72657,27.23633 c 0.40457,0.33669 0.80408,0.64136 1.20507,0.95312 h 13.26172 l 7.83789,-8.88086 z" />
      <path
         id="path2756"
         style="opacity:0.704367;fill:url(#linearGradient2818);fill-opacity:1;stroke:#000000;stroke-width:0;stroke-linecap:round;stroke-linejoin:round;stroke-dashoffset:34.5;paint-order:markers stroke fill"
         d="m 436.31055,58.749996 c -4.45332,1.10524 -7.74024,5.103598 -7.74024,9.908206 l 10e-6,10.140625 55.03124,45.796873 13.47852,-15.27148 z" />
      <path
         id="path2758"
         style="opacity:0.704367;fill:url(#linearGradient2816);fill-opacity:1;stroke:#000000;stroke-width:0;stroke-linecap:round;stroke-linejoin:round;stroke-dashoffset:34.5;paint-order:markers stroke fill"
         d="m 438.79297,58.4375 c -0.85838,2e-6 -1.68681,0.115038 -2.48242,0.312496 l 60.76953,50.574224 13.48047,-15.271486 -42.79492,-35.615232 z" />
      <path
         id="path2760"
         style="opacity:0.704367;fill:url(#linearGradient2814);stroke:#000000;stroke-width:0;stroke-linecap:round;stroke-linejoin:round;stroke-dashoffset:34.5;paint-order:markers stroke fill"
         d="m 467.76367,58.4375 42.79688,35.615234 11.59179,-13.132812 c 1.04599,-1.185 -2.04701,-5.414059 -6.93554,-9.482422 l -15.6211,-13 z" />
      <path
         id="path2762"
         style="opacity:0.0779938;fill:#000000;fill-opacity:1;stroke:#000000;stroke-width:0;stroke-linecap:round;stroke-linejoin:round;stroke-dasharray:none;stroke-dashoffset:34.5;paint-order:markers stroke fill"
         d="m 438.65518,58.43756 c -5.58643,0 -10.08447,4.49611 -10.08447,10.08255 v 5.81871 h 107.31664 v -5.81871 c 0,-5.58644 -4.49612,-10.08255 -10.08256,-10.08255 z" />
      <circle
         style="opacity:0.188923;fill:#7c7c7c;fill-opacity:1;stroke:#deddda;stroke-width:0;stroke-linecap:round;stroke-linejoin:round;stroke-dasharray:none;stroke-dashoffset:34.5;paint-order:markers stroke fill"
         id="circle2764"
         cx="526.9079"
         cy="66.834534"
         r="5.1848826" />
      <path
         d="m 524.47764,64.40354 h 0.40517 0.0126 c 0.10287,0.005 0.20733,0.0522 0.27855,0.12661 l 1.73461,1.73462 1.74728,-1.73462 c 0.10762,-0.0934 0.18043,-0.12345 0.27855,-0.12661 h 0.40517 v 0.40516 c 0,0.11554 -0.0142,0.22316 -0.10129,0.30388 l -1.73462,1.73461 1.72195,1.72195 c 0.076,0.076 0.11396,0.1836 0.11396,0.29122 v 0.40516 h -0.40517 c -0.10762,0 -0.21524,-0.038 -0.29121,-0.11395 l -1.73462,-1.73461 -1.73461,1.73461 c -0.076,0.076 -0.18359,0.11395 -0.29121,0.11395 h -0.40517 v -0.40516 c 0,-0.10762 0.038,-0.21525 0.11396,-0.29122 l 1.73461,-1.72195 -1.73461,-1.73461 c -0.0855,-0.0791 -0.12345,-0.18992 -0.11396,-0.30388 z m 0,0"
         fill="#222222"
         id="path2766"
         style="opacity:0.600755;fill:#000000;fill-opacity:1;stroke-width:0.405165" />
      <g
         id="g2792"
         transform="rotate(18.686059,432.86468,234.27172)">
        <g
           id="g2776"
           transform="rotate(-27.39068,333.71333,-396.94118)">
          <rect
             style="fill:url(#linearGradient2794);fill-opacity:1;stroke:#000000;stroke-width:0;stroke-linecap:round;stroke-linejoin:round;stroke-dashoffset:34.5;paint-order:markers stroke fill"
             id="rect2768"
             width="3.2694347"
             height="19.100412"
             x="140.85608"
             y="199.86006"
             ry="1.7497108"
             rx="1.7497108"
             transform="rotate(-40.946696)" />
          <path
             id="path2770"
             style="fill:url(#linearGradient2796);fill-opacity:1;stroke:#000000;stroke-width:0;stroke-linecap:round;stroke-linejoin:round;stroke-dashoffset:34.5;paint-order:markers stroke fill"
             d="m 174.81516,112.92492 c -0.68403,0.59351 -0.75695,1.6224 -0.16344,2.30644 0.59351,0.68405 1.62121,0.75557 2.30524,0.16206 l 62.58494,-54.30211 0.25529,-3.91298 c -0.41843,-0.031 -0.84768,0.10012 -1.1911,0.39809 z" />
          <path
             id="path2772"
             style="fill:url(#linearGradient2798);fill-opacity:1;stroke:#000000;stroke-width:0;stroke-linecap:round;stroke-linejoin:round;stroke-dashoffset:34.5;paint-order:markers stroke fill"
             d="m 217.28565,97.08372 c -0.68404,0.59351 -0.75695,1.62239 -0.16343,2.30644 0.59351,0.68404 1.62239,0.75695 2.30643,0.16343 l 31.71973,-27.52177 c 0.34839,-0.30228 0.53556,-0.71767 0.55958,-1.14264 l -3.9104,-0.25511 1.35899,-1.17913 c -0.0509,0.0349 -0.10346,0.0656 -0.15117,0.107 z" />
          <path
             id="path2774"
             style="fill:url(#linearGradient2800);fill-opacity:1;stroke:#000000;stroke-width:0;stroke-linecap:round;stroke-linejoin:round;stroke-dashoffset:34.5;paint-order:markers stroke fill"
             d="m 217.28565,97.08372 c -0.0624,0.0542 -0.11796,0.11334 -0.17016,0.17421 l 0.36663,-0.31811 c -0.0676,0.0431 -0.13402,0.0897 -0.19647,0.1439 z m -0.56124,1.12958 c -0.0267,0.41357 0.1035,0.83766 0.39781,1.17686 l 10.80469,12.45275 c 0.59351,0.68405 1.62239,0.75696 2.30644,0.16344 0.68404,-0.59351 0.75695,-1.62239 0.16344,-2.30644 l -9.74635,-11.23298 z" />
        </g>
        <path
           id="path2778"
           style="fill:#000000;fill-opacity:0.215406;stroke:#000000;stroke-width:0;stroke-linecap:round;stroke-linejoin:round;stroke-dashoffset:34.5;paint-order:markers stroke fill"
           d="m 459.24566,49.47334 c -0.22869,0.09779 -0.4281,0.253862 -0.5928,0.44794 -0.0316,0.03567 -0.0608,0.07346 -0.0892,0.112229 -0.0168,0.02337 -0.0342,0.04525 -0.0496,0.06968 -0.0549,0.08462 -0.10423,0.174925 -0.1428,0.272012 l -31.17553,78.491769 c -0.3343,0.84166 0.0747,1.78659 0.91634,2.12089 0.84169,0.33431 1.7866,-0.0747 2.1209,-0.91635 l 30.57284,-76.97184 11.71065,4.651513 -14.89951,37.511135 c -0.0305,0.07687 -0.0527,0.154397 -0.0709,0.232506 l 0.016,-0.0413 c -0.0961,0.365779 -0.0673,0.740898 0.0765,1.069002 0.0368,0.0841 0.0828,0.164081 0.1338,0.240837 0.007,0.01171 0.0128,0.02423 0.0207,0.03553 0.0555,0.08004 0.11943,0.155719 0.18927,0.225295 10e-4,0.0017 0.004,0.0058 0.006,0.008 0.0757,0.07447 0.16082,0.142145 0.25187,0.201657 0.0904,0.05892 0.1896,0.109819 0.29394,0.151261 l 15.32251,6.086264 c 0.84167,0.3343 1.78658,-0.0747 2.12088,-0.91635 0.3343,-0.84167 -0.0738,-1.78922 -0.91551,-2.12352 l -13.8043,-5.482673 14.90059,-37.509329 c 0.17027,-0.428674 0.1445,-0.883095 -0.0297,-1.271475 l -0.0435,0.01803 c -0.18212,-0.402132 -0.52568,-0.74306 -0.9856,-0.925735 l -14.49919,-5.758301 c -0.45722,-0.181602 -0.9376,-0.16989 -1.34447,-0.0051 z" />
        <path
           id="path2780"
           style="fill:url(#linearGradient2802);stroke:#000000;stroke-width:0;stroke-linecap:round;stroke-linejoin:round;stroke-dashoffset:34.5;paint-order:markers stroke fill"
           d="m 417.924,122.00128 6.46308,-16.27191 v 0 l 23.54244,9.35089 v 0 l -6.46309,16.2719 c -0.58321,1.46832 -2.23479,2.18089 -3.70311,1.59769 l -18.24164,-7.24546 c -1.46832,-0.5832 -2.18088,-2.2348 -1.59768,-3.70311 z"
           sodipodi:nodetypes="sccccssss" />
        <rect
           style="fill:url(#linearGradient2804);fill-opacity:1;stroke:#000000;stroke-width:0;stroke-linecap:round;stroke-linejoin:round;stroke-dashoffset:34.5;paint-order:markers stroke fill"
           id="rect2782"
           width="20.360275"
           height="25.331503"
           x="58.396492"
           y="433.44324"
           ry="0"
           rx="0"
           transform="rotate(-68.337376)" />
        <path
           id="path2784"
           style="fill:url(#linearGradient2806);stroke:#000000;stroke-width:0;stroke-linecap:round;stroke-linejoin:round;stroke-dashoffset:34.5;paint-order:markers stroke fill"
           d="m 439.41869,67.88477 6.46309,-16.271921 c 0.58321,-1.46831 2.2348,-2.180878 3.70312,-1.597674 l 18.24164,7.245454 c 1.46832,0.583205 2.18088,2.234798 1.59767,3.703104 l -6.46309,16.271921 v 0 l -20.89203,-8.298162 c -1.46832,-0.583205 -3.2336,0.415597 -2.6504,-1.052722 z"
           sodipodi:nodetypes="sssssccss" />
        <rect
           style="fill:url(#linearGradient2808);fill-opacity:1;stroke:#000000;stroke-width:0;stroke-linecap:round;stroke-linejoin:round;stroke-dashoffset:34.5;paint-order:markers stroke fill"
           id="rect2786"
           width="20.360275"
           height="25.331503"
           x="78.756721"
           y="433.44324"
           ry="0"
           rx="0"
           transform="rotate(-68.337376)" />
        <rect
           style="fill:url(#linearGradient2810);fill-opacity:1;stroke:#000000;stroke-width:0;stroke-linecap:round;stroke-linejoin:round;stroke-dashoffset:34.5;paint-order:markers stroke fill"
           id="rect2788"
           width="81.441452"
           height="25.331503"
           x="38.036201"
           y="433.44324"
           ry="3.0524156"
           rx="3.0524156"
           transform="rotate(-68.337376)" />
        <rect
           style="fill:url(#linearGradient2812);fill-opacity:1;stroke:#000000;stroke-width:0;stroke-linecap:round;stroke-linejoin:round;stroke-dashoffset:34.5;paint-order:markers stroke fill"
           id="rect2790"
           width="14.115603"
           height="44.280247"
           x="73.333443"
           y="473.18103"
           ry="5.4224505"
           rx="5.4224505"
           transform="rotate(-68.337376)" />
      </g>
    </g>
  </g>
</svg>
