<?xml version="1.0" encoding="UTF-8" standalone="no"?>
<!-- Created with Inkscape (http://www.inkscape.org/) -->

<svg
   width="33.866665mm"
   height="33.866665mm"
   viewBox="0 0 33.866665 33.866665"
   version="1.1"
   id="svg5358"
   inkscape:version="1.2.1 (9c6d41e410, 2022-07-14)"
   sodipodi:docname="com.github.ArtyIF.AdwCustomizer.svg"
   xmlns:inkscape="http://www.inkscape.org/namespaces/inkscape"
   xmlns:sodipodi="http://sodipodi.sourceforge.net/DTD/sodipodi-0.dtd"
   xmlns:xlink="http://www.w3.org/1999/xlink"
   xmlns="http://www.w3.org/2000/svg"
   xmlns:svg="http://www.w3.org/2000/svg">
  <sodipodi:namedview
     id="namedview5360"
     pagecolor="#ffffff"
     bordercolor="#666666"
     borderopacity="1.0"
     inkscape:showpageshadow="2"
     inkscape:pageopacity="0.0"
     inkscape:pagecheckerboard="0"
     inkscape:deskcolor="#d1d1d1"
     inkscape:document-units="mm"
     showgrid="false"
     inkscape:zoom="2.4298885"
     inkscape:cx="58.233125"
     inkscape:cy="11.111621"
     inkscape:current-layer="layer1" />
  <defs
     id="defs5355">
    <linearGradient
       inkscape:collect="always"
       xlink:href="#linearGradient1073"
       id="linearGradient3131"
       gradientUnits="userSpaceOnUse"
       gradientTransform="matrix(0.23954731,0,0,0.25694331,126.42594,252.01667)"
       x1="88.595886"
       y1="-449.39401"
       x2="536.59589"
       y2="-449.39401" />
    <linearGradient
       inkscape:collect="always"
       id="linearGradient1073">
      <stop
         style="stop-color:#77767b;stop-opacity:1"
         offset="0"
         id="stop1060" />
      <stop
         id="stop1062"
         offset="0.03846154"
         style="stop-color:#c0bfbc;stop-opacity:1" />
      <stop
         style="stop-color:#9a9996;stop-opacity:1"
         offset="0.07685554"
         id="stop1064" />
      <stop
         id="stop1067"
         offset="0.92307693"
         style="stop-color:#9a9996;stop-opacity:1" />
      <stop
         style="stop-color:#c0bfbc;stop-opacity:1"
         offset="0.96153849"
         id="stop1069" />
      <stop
         style="stop-color:#77767b;stop-opacity:1"
         offset="1"
         id="stop1071" />
    </linearGradient>
    <linearGradient
       inkscape:collect="always"
       xlink:href="#linearGradient2125"
       id="linearGradient3133"
       gradientUnits="userSpaceOnUse"
       gradientTransform="matrix(0.934279,0,0,0.934279,-79.785904,223.97512)"
       x1="236.16283"
       y1="-15.940514"
       x2="239.66225"
       y2="-15.940514" />
    <linearGradient
       id="linearGradient2125"
       inkscape:collect="always">
      <stop
         id="stop2113"
         offset="0"
         style="stop-color:#d5d3cf;stop-opacity:1" />
      <stop
         style="stop-color:#e3e2df;stop-opacity:1"
         offset="0.14240676"
         id="stop2115" />
      <stop
         style="stop-color:#c0bfbc;stop-opacity:1"
         offset="0.46249032"
         id="stop2117" />
      <stop
         style="stop-color:#c0bfbc;stop-opacity:1"
         offset="0.48151124"
         id="stop2119" />
      <stop
         style="stop-color:#e3e2df;stop-opacity:1"
         offset="0.8378405"
         id="stop2121" />
      <stop
         id="stop2123"
         offset="1"
         style="stop-color:#d5d3cf;stop-opacity:1" />
    </linearGradient>
    <linearGradient
       inkscape:collect="always"
       xlink:href="#linearGradient2125"
       id="linearGradient3135"
       gradientUnits="userSpaceOnUse"
       gradientTransform="matrix(0.61228592,0.70567925,-0.70567925,0.61228592,77.02667,-94.34664)"
       x1="236.16283"
       y1="-15.940514"
       x2="239.66225"
       y2="-15.940514" />
    <linearGradient
       inkscape:collect="always"
       xlink:href="#linearGradient2125"
       id="linearGradient3137"
       gradientUnits="userSpaceOnUse"
       gradientTransform="matrix(0.61228592,0.70567925,-0.70567925,0.61228592,119.49767,-110.18743)"
       x1="236.16283"
       y1="-15.940514"
       x2="239.66225"
       y2="-15.940514" />
    <linearGradient
       inkscape:collect="always"
       xlink:href="#linearGradient2125"
       id="linearGradient3139"
       gradientUnits="userSpaceOnUse"
       gradientTransform="matrix(0.70567925,-0.61228592,0.61228592,0.70567925,65.629966,261.4641)"
       x1="236.16283"
       y1="-15.940514"
       x2="239.66225"
       y2="-15.940514" />
    <linearGradient
       inkscape:collect="always"
       xlink:href="#linearGradient7181"
       id="linearGradient3141"
       gradientUnits="userSpaceOnUse"
       gradientTransform="matrix(0.54078355,-0.46921339,0.61228592,0.70567925,92.92275,228.48197)"
       x1="192.31543"
       y1="-47.913715"
       x2="192.31543"
       y2="-20.800291" />
    <linearGradient
       inkscape:collect="always"
       id="linearGradient7181">
      <stop
         style="stop-color:#ed333c;stop-opacity:1;"
         offset="0"
         id="stop7177" />
      <stop
         style="stop-color:#ed333c;stop-opacity:1;"
         offset="1"
         id="stop7179" />
    </linearGradient>
    <linearGradient
       inkscape:collect="always"
       xlink:href="#linearGradient7173"
       id="linearGradient3143"
       gradientUnits="userSpaceOnUse"
       gradientTransform="matrix(0.934279,0,0,0.934279,-121.53564,233.47445)"
       x1="214.10793"
       y1="-47.913715"
       x2="214.10793"
       y2="-20.800291" />
    <linearGradient
       inkscape:collect="always"
       id="linearGradient7173">
      <stop
         style="stop-color:#ff7800;stop-opacity:1;"
         offset="0"
         id="stop7169" />
      <stop
         style="stop-color:#ff7800;stop-opacity:1;"
         offset="1"
         id="stop7171" />
    </linearGradient>
    <linearGradient
       inkscape:collect="always"
       xlink:href="#linearGradient7157"
       id="linearGradient3145"
       gradientUnits="userSpaceOnUse"
       gradientTransform="matrix(0.52037017,-0.45150162,0.61228592,0.70567925,113.00195,211.06016)"
       x1="249.93239"
       y1="-47.913715"
       x2="249.9324"
       y2="-20.800291" />
    <linearGradient
       inkscape:collect="always"
       id="linearGradient7157">
      <stop
         style="stop-color:#57e489;stop-opacity:1;"
         offset="0"
         id="stop7153" />
      <stop
         style="stop-color:#57e489;stop-opacity:1;"
         offset="1"
         id="stop7155" />
    </linearGradient>
    <linearGradient
       inkscape:collect="always"
       xlink:href="#linearGradient7165"
       id="linearGradient3147"
       gradientUnits="userSpaceOnUse"
       gradientTransform="matrix(0.934279,0,0,0.934279,-121.53564,233.47445)"
       x1="235.90042"
       y1="-47.913715"
       x2="235.90042"
       y2="-20.800291" />
    <linearGradient
       inkscape:collect="always"
       id="linearGradient7165">
      <stop
         style="stop-color:#f6d32d;stop-opacity:1;"
         offset="0"
         id="stop7161" />
      <stop
         style="stop-color:#f6d32d;stop-opacity:1;"
         offset="1"
         id="stop7163" />
    </linearGradient>
    <linearGradient
       inkscape:collect="always"
       xlink:href="#linearGradient2183"
       id="linearGradient3149"
       gradientUnits="userSpaceOnUse"
       gradientTransform="matrix(0.934279,0,0,0.934279,-121.53564,233.47445)"
       x1="279.48544"
       y1="-20.800291"
       x2="279.48544"
       y2="-47.913715" />
    <linearGradient
       inkscape:collect="always"
       id="linearGradient2183">
      <stop
         style="stop-color:#000000;stop-opacity:0.62517571;"
         offset="0"
         id="stop2173" />
      <stop
         style="stop-color:#000000;stop-opacity:0.47843137;"
         offset="0.13343254"
         id="stop2175" />
      <stop
         style="stop-color:#000000;stop-opacity:0.28235294;"
         offset="0.29126808"
         id="stop2177" />
      <stop
         style="stop-color:#000000;stop-opacity:0.11764706;"
         offset="0.54178184"
         id="stop2179" />
      <stop
         style="stop-color:#000000;stop-opacity:0;"
         offset="0.86446816"
         id="stop2181" />
      <stop
         style="stop-color:#000000;stop-opacity:0.03069582;"
         offset="1"
         id="stop2185" />
    </linearGradient>
    <linearGradient
       inkscape:collect="always"
       xlink:href="#linearGradient2303"
       id="linearGradient3151"
       gradientUnits="userSpaceOnUse"
       x1="93.437889"
       y1="250.58759"
       x2="107.55349"
       y2="250.58759" />
    <linearGradient
       inkscape:collect="always"
       id="linearGradient2303">
      <stop
         style="stop-color:#a37348;stop-opacity:1;"
         offset="0"
         id="stop2299" />
      <stop
         style="stop-color:#b7875f;stop-opacity:1;"
         offset="0.08621209"
         id="stop2309" />
      <stop
         style="stop-color:#c39a76;stop-opacity:1;"
         offset="0.46719989"
         id="stop2307" />
      <stop
         style="stop-color:#b7875f;stop-opacity:1;"
         offset="0.90388501"
         id="stop2311" />
      <stop
         style="stop-color:#af6c47;stop-opacity:1;"
         offset="1"
         id="stop2301" />
    </linearGradient>
  </defs>
  <g
     inkscape:label="Layer 1"
     inkscape:groupmode="layer"
     id="layer1"
     transform="translate(-83.948799,-148.69405)">
    <g
       id="g3129"
       transform="matrix(0.26458333,0,0,0.26458333,47.733857,140.39031)"
       style="display:inline;enable-background:new">
      <rect
         style="fill:#ffffff;fill-opacity:1;stroke:#deddda;stroke-width:0;stroke-linecap:round;stroke-linejoin:round;stroke-dasharray:none;stroke-dashoffset:34.5;paint-order:markers stroke fill"
         id="rect3083"
         width="107.31721"
         height="75.039459"
         x="147.64886"
         y="61.508438"
         ry="10.222007"
         rx="10.222007"
         inkscape:export-filename="./rect14840.png"
         inkscape:export-xdpi="96"
         inkscape:export-ydpi="96" />
      <rect
         style="display:inline;opacity:0.487989;fill:url(#linearGradient3131);fill-opacity:1;stroke:none;stroke-width:0.224447;stroke-linecap:butt;stroke-linejoin:miter;stroke-miterlimit:4;stroke-dasharray:none;stroke-dashoffset:0;stroke-opacity:1;marker:none;marker-start:none;marker-mid:none;marker-end:none;paint-order:normal;enable-background:new"
         id="rect3085"
         width="107.31721"
         height="78.110764"
         x="147.64886"
         y="58.437134"
         rx="10.212803"
         ry="10.212803" />
      <rect
         style="fill:#ffffff;fill-opacity:1;stroke:#deddda;stroke-width:0.6;stroke-linecap:round;stroke-linejoin:round;stroke-dasharray:none;stroke-dashoffset:34.5;paint-order:markers stroke fill"
         id="rect3087"
         width="107.31721"
         height="75.039459"
         x="147.64885"
         y="58.437134"
         ry="10.222007"
         rx="10.222007" />
      <path
         id="path3089"
         style="fill:#f6f5f4;fill-opacity:1;stroke:#000000;stroke-width:0;stroke-linecap:round;stroke-linejoin:round;stroke-dasharray:none;stroke-dashoffset:34.5;paint-order:markers stroke fill"
         d="m 157.73328,58.43756 c -5.58643,0 -10.08447,4.49611 -10.08447,10.08255 v 5.81871 h 107.31664 v -5.81871 c 0,-5.58644 -4.49612,-10.08255 -10.08256,-10.08255 z" />
      <path
         id="path3091"
         style="opacity:0.655594;fill:#f6d32d;fill-opacity:1;stroke:#000000;stroke-width:0;stroke-linecap:butt;stroke-linejoin:miter;stroke-dasharray:none;stroke-opacity:1"
         d="m 180.8229,58.43637 17.52116,19.31029 15.37836,-13.3431 -5.11632,-5.96719 z"
         sodipodi:nodetypes="ccccc" />
      <path
         id="path3093"
         style="opacity:0.524558;fill:#57e489;fill-opacity:1;stroke:#000000;stroke-width:0;stroke-linecap:butt;stroke-linejoin:miter;stroke-dasharray:none;stroke-opacity:1"
         d="m 208.6061,58.43637 5.11633,5.96717 23.67859,-3.77577 -2.04492,-2.1914 z"
         sodipodi:nodetypes="ccccc" />
      <path
         id="path3095"
         style="opacity:0.655594;fill:#ed333b;stroke:#000000;stroke-width:0;stroke-linecap:butt;stroke-linejoin:miter;stroke-dasharray:none;stroke-opacity:1"
         d="m 156.36977,58.55746 c -4.94439,0.72357 -8.7207,4.9501 -8.7207,10.10156 v 10.57032 l 23.21093,27.51562 12.10547,-15.6543 z" />
      <path
         id="path3097"
         style="opacity:0.655594;fill:#ff7800;fill-opacity:1;stroke:#000000;stroke-width:0;stroke-linecap:butt;stroke-linejoin:miter;stroke-dasharray:none;stroke-opacity:1"
         d="m 157.87172,58.43637 c -1.15609,0 -2.26152,0.19765 -3.29492,0.55078 0.57591,-0.19458 1.17555,-0.33933 1.79297,-0.42969 l 26.5957,32.5332 -0.14453,0.1875 7.22852,7.75 12.90429,-16.26757 -22.13085,-24.32422 z m -3.29882,0.55078 c -0.46368,0.15863 -0.91451,0.34688 -1.34571,0.56641 l 0.008,0.008 c 0.4308,-0.21854 0.87422,-0.41738 1.3379,-0.57422 z" />
      <path
         id="path3099"
         style="opacity:0.408037;fill:#f5f5f5;fill-opacity:1;stroke:#000000;stroke-width:0;stroke-linecap:round;stroke-linejoin:round;stroke-dasharray:none;stroke-dashoffset:34.5;paint-order:markers stroke fill"
         d="m 157.73328,58.43756 c -5.58643,0 -10.08447,4.49611 -10.08447,10.08255 v 5.81871 h 107.31664 v -5.81871 c 0,-5.58644 -4.49612,-10.08255 -10.08256,-10.08255 z" />
      <g
         id="g3109">
        <rect
           style="fill:url(#linearGradient3133);fill-opacity:1;stroke:#000000;stroke-width:0;stroke-linecap:round;stroke-linejoin:round;stroke-dashoffset:34.5;paint-order:markers stroke fill"
           id="rect3101"
           width="3.2694347"
           height="19.100412"
           x="140.85608"
           y="199.86006"
           ry="1.7497108"
           rx="1.7497108"
           transform="rotate(-40.946696)" />
        <path
           id="path3103"
           style="fill:url(#linearGradient3135);fill-opacity:1;stroke:#000000;stroke-width:0;stroke-linecap:round;stroke-linejoin:round;stroke-dashoffset:34.5;paint-order:markers stroke fill"
           d="m 174.81516,112.92492 c -0.68403,0.59351 -0.75695,1.6224 -0.16344,2.30644 0.59351,0.68405 1.62121,0.75557 2.30524,0.16206 l 62.58494,-54.30211 0.25529,-3.91298 c -0.41843,-0.031 -0.84768,0.10012 -1.1911,0.39809 z" />
        <path
           id="path3105"
           style="fill:url(#linearGradient3137);fill-opacity:1;stroke:#000000;stroke-width:0;stroke-linecap:round;stroke-linejoin:round;stroke-dashoffset:34.5;paint-order:markers stroke fill"
           d="m 217.28565,97.08372 c -0.68404,0.59351 -0.75695,1.62239 -0.16343,2.30644 0.59351,0.68404 1.62239,0.75695 2.30643,0.16343 l 31.71973,-27.52177 c 0.34839,-0.30228 0.53556,-0.71767 0.55958,-1.14264 l -3.9104,-0.25511 1.35899,-1.17913 c -0.0509,0.0349 -0.10346,0.0656 -0.15117,0.107 z" />
        <path
           id="path3107"
           style="fill:url(#linearGradient3139);fill-opacity:1;stroke:#000000;stroke-width:0;stroke-linecap:round;stroke-linejoin:round;stroke-dashoffset:34.5;paint-order:markers stroke fill"
           d="m 217.28565,97.08372 c -0.0624,0.0542 -0.11796,0.11334 -0.17016,0.17421 l 0.36663,-0.31811 c -0.0676,0.0431 -0.13402,0.0897 -0.19647,0.1439 z m -0.56124,1.12958 c -0.0267,0.41357 0.1035,0.83766 0.39781,1.17686 l 10.80469,12.45275 c 0.59351,0.68405 1.62239,0.75696 2.30644,0.16344 0.68404,-0.59351 0.75695,-1.62239 0.16344,-2.30644 l -9.74635,-11.23298 z" />
      </g>
      <path
         id="path3111"
         style="fill:#000000;fill-opacity:0.215406;stroke:#000000;stroke-width:0;stroke-linecap:round;stroke-linejoin:round;stroke-dashoffset:34.5;paint-order:markers stroke fill"
         d="m 143.65147,200.33993 c -0.17531,-0.17644 -0.39396,-0.30416 -0.63513,-0.38558 -0.0448,-0.0162 -0.0907,-0.0294 -0.13724,-0.0415 -0.0279,-0.007 -0.0547,-0.0151 -0.0831,-0.0204 -0.0989,-0.0198 -0.20105,-0.0323 -0.30551,-0.0323 l -84.456334,7.8e-4 c -0.905621,1e-5 -1.632836,0.72891 -1.632837,1.63454 -7e-6,0.90564 0.728915,1.63284 1.634536,1.63284 l 82.821275,1.6e-4 -1.2e-4,12.60063 -40.36187,-3.3e-4 c -0.0827,5e-5 -0.16295,0.008 -0.24227,0.0199 l 0.0443,-3.7e-4 c -0.375421,0.0457 -0.713426,0.21091 -0.965241,0.46576 -0.06452,0.0653 -0.121756,0.13765 -0.174578,0.21313 -0.0079,0.0113 -0.01781,0.0208 -0.02541,0.0323 -0.05384,0.0812 -0.100642,0.16847 -0.139476,0.2591 -0.0011,0.002 -0.0039,0.006 -0.0049,0.009 -0.04123,0.0979 -0.07277,0.20191 -0.09444,0.30852 -0.02139,0.10579 -0.03207,0.21675 -0.03207,0.32902 l -2.45e-4,16.48702 c -7e-6,0.90563 0.728893,1.63283 1.63453,1.63283 0.90563,0 1.63559,-0.72909 1.63559,-1.63473 l -2.8e-4,-14.85323 40.36059,0.002 c 0.46125,0 0.87407,-0.19169 1.17072,-0.49694 l -0.0328,-0.0337 c 0.30654,-0.31767 0.49653,-0.76285 0.49653,-1.25772 l -6.5e-4,-15.60085 c 0,-0.49196 -0.18822,-0.9341 -0.49157,-1.2514 z"
         transform="rotate(-40.946696)" />
      <path
         id="path3113"
         style="fill:url(#linearGradient3141);stroke:#000000;stroke-width:0;stroke-linecap:round;stroke-linejoin:round;stroke-dashoffset:34.5;paint-order:markers stroke fill"
         d="m 169.7409,102.56433 13.22449,-11.47429 v 0 l 16.60117,19.13338 v 0 l -13.22449,11.47429 c -1.19333,1.0354 -2.98758,0.90826 -4.02298,-0.28507 l -12.86326,-14.82533 c -1.0354,-1.19333 -0.90825,-2.98758 0.28507,-4.02298 z"
         sodipodi:nodetypes="sccccssss" />
      <rect
         style="fill:url(#linearGradient3143);fill-opacity:1;stroke:#000000;stroke-width:0;stroke-linecap:round;stroke-linejoin:round;stroke-dashoffset:34.5;paint-order:markers stroke fill"
         id="rect3115"
         width="20.360275"
         height="25.331503"
         x="78.500923"
         y="188.70967"
         ry="0"
         rx="0"
         transform="rotate(-40.946696)" />
      <path
         id="path3117"
         style="fill:url(#linearGradient3145);stroke:#000000;stroke-width:0;stroke-linecap:round;stroke-linejoin:round;stroke-dashoffset:34.5;paint-order:markers stroke fill"
         d="m 213.72242,64.40356 13.2245,-11.4743 c 1.19333,-1.03539 2.98758,-0.90825 4.02298,0.28508 l 12.86326,14.82533 c 1.0354,1.19333 0.90825,2.98758 -0.28507,4.02297 l -13.2245,11.4743 v 0 L 215.59137,66.55759 c -1.0354,-1.19333 -3.06228,-1.11863 -1.86895,-2.15403 z"
         sodipodi:nodetypes="sssssccss" />
      <rect
         style="fill:url(#linearGradient3147);fill-opacity:1;stroke:#000000;stroke-width:0;stroke-linecap:round;stroke-linejoin:round;stroke-dashoffset:34.5;paint-order:markers stroke fill"
         id="rect3119"
         width="20.360275"
         height="25.331503"
         x="98.861183"
         y="188.70967"
         ry="0"
         rx="0"
         transform="rotate(-40.946696)" />
      <rect
         style="fill:url(#linearGradient3149);fill-opacity:1;stroke:#000000;stroke-width:0;stroke-linecap:round;stroke-linejoin:round;stroke-dashoffset:34.5;paint-order:markers stroke fill"
         id="rect3121"
         width="81.441452"
         height="25.331503"
         x="58.14064"
         y="188.70967"
         ry="3.0524156"
         rx="3.0524156"
         transform="rotate(-40.946696)" />
      <circle
         style="opacity:0.575178;fill:#ffffff;fill-opacity:1;stroke:#deddda;stroke-width:0;stroke-linecap:round;stroke-linejoin:round;stroke-dasharray:none;stroke-dashoffset:34.5;paint-order:markers stroke fill"
         id="circle3123"
         cx="157.98601"
         cy="66.834534"
         r="5.1848826" />
      <path
         d="m 155.55574,64.40354 h 0.40517 0.0126 c 0.10287,0.005 0.20733,0.0522 0.27855,0.12661 l 1.73461,1.73462 1.74728,-1.73462 c 0.10762,-0.0934 0.18043,-0.12345 0.27855,-0.12661 h 0.40517 v 0.40516 c 0,0.11554 -0.0142,0.22316 -0.10129,0.30388 l -1.73462,1.73461 1.72195,1.72195 c 0.076,0.076 0.11396,0.1836 0.11396,0.29122 v 0.40516 h -0.40517 c -0.10762,0 -0.21524,-0.038 -0.29121,-0.11395 l -1.73462,-1.73461 -1.73461,1.73461 c -0.076,0.076 -0.18359,0.11395 -0.29121,0.11395 h -0.40517 v -0.40516 c 0,-0.10762 0.038,-0.21525 0.11396,-0.29122 l 1.73461,-1.72195 -1.73461,-1.73461 c -0.0855,-0.0791 -0.12345,-0.18992 -0.11396,-0.30388 z m 0,0"
         fill="#222222"
         id="path3125"
         style="opacity:0.600755;stroke-width:0.405165" />
      <rect
         style="opacity:1;fill:url(#linearGradient3151);fill-opacity:1;stroke:#000000;stroke-width:0;stroke-linecap:round;stroke-linejoin:round;stroke-dashoffset:34.5;paint-order:markers stroke fill"
         id="rect3127"
         width="14.115603"
         height="44.280247"
         x="93.437889"
         y="228.44746"
         ry="5.4224505"
         rx="5.4224505"
         transform="rotate(-40.946696)" />
    </g>
  </g>
</svg>
