<?xml version="1.0" encoding="UTF-8"?>
<svg height="128px" viewBox="0 0 128 128" width="128px" xmlns="http://www.w3.org/2000/svg" xmlns:xlink="http://www.w3.org/1999/xlink">
    <linearGradient id="a" gradientTransform="matrix(0.707107 -0.707107 -0.707107 -0.707107 -0.000281 290.089979)" gradientUnits="userSpaceOnUse" x1="168.291412" x2="243.244736" y1="77.781746" y2="152.735062">
        <stop offset="0" stop-color="#8ff0a4"/>
        <stop offset="1" stop-color="#3584e4"/>
    </linearGradient>
    <clipPath id="b">
        <path d="m 7 8 h 55 v 84 h -55 z m 0 0"/>
    </clipPath>
    <clipPath id="c">
        <path d="m 69.21875 10.167969 l 48.769531 48.769531 c 2.886719 2.882812 2.886719 7.558594 0 10.441406 l -48.769531 48.769532 c -2.882812 2.882812 -7.554688 2.882812 -10.441406 0 l -48.769532 -48.769532 c -2.882812 -2.882812 -2.882812 -7.558594 0 -10.441406 l 48.769532 -48.769531 c 2.886718 -2.882813 7.558594 -2.882813 10.441406 0 z m 0 0"/>
    </clipPath>
    <filter id="d" height="100%" width="100%" x="0%" y="0%">
        <feColorMatrix in="SourceGraphic" type="matrix" values="0 0 0 0 1 0 0 0 0 1 0 0 0 0 1 0 0 0 1 0"/>
    </filter>
    <mask id="e">
        <g filter="url(#d)">
            <rect fill-opacity="0.95" height="128" width="128"/>
        </g>
    </mask>
    <clipPath id="f">
        <rect height="128" width="128"/>
    </clipPath>
    <mask id="g">
        <g filter="url(#d)">
            <rect fill-opacity="0.75" height="128" width="128"/>
        </g>
    </mask>
    <clipPath id="h">
        <rect height="128" width="128"/>
    </clipPath>
    <mask id="i">
        <g filter="url(#d)">
            <rect fill-opacity="0.4" height="128" width="128"/>
        </g>
    </mask>
    <clipPath id="j">
        <rect height="128" width="128"/>
    </clipPath>
    <mask id="k">
        <g filter="url(#d)">
            <rect fill-opacity="0.8" height="128" width="128"/>
        </g>
    </mask>
    <linearGradient id="l" gradientUnits="userSpaceOnUse" x1="7.999728" x2="119.999728" y1="90.089984" y2="90.089984">
        <stop offset="0" stop-color="#3584e4"/>
        <stop offset="0.428679" stop-color="#62a0ea"/>
        <stop offset="0.499994" stop-color="#c1d9f7"/>
        <stop offset="0.571308" stop-color="#62a0ea"/>
        <stop offset="1" stop-color="#3584e4"/>
    </linearGradient>
    <clipPath id="m">
        <rect height="128" width="128"/>
    </clipPath>
    <linearGradient id="n" gradientTransform="matrix(1.081857 -1.081857 -1.081857 -1.081857 172.289263 559.655263)" gradientUnits="userSpaceOnUse" x1="161.361969" x2="196.694656" y1="257.028168" y2="257.028168">
        <stop offset="0" stop-color="#3584e4"/>
        <stop offset="0.2" stop-color="#33d17a"/>
        <stop offset="0.4" stop-color="#f6d32d"/>
        <stop offset="0.6" stop-color="#ff7800"/>
        <stop offset="0.8" stop-color="#e01b24"/>
        <stop offset="1" stop-color="#9141ac"/>
    </linearGradient>
    <linearGradient id="o" gradientTransform="matrix(1.081857 -1.081857 1.081857 1.081857 -385.680761 4.011217)" gradientUnits="userSpaceOnUse" x1="177.470078" x2="182.736496" y1="282.933533" y2="282.933533">
        <stop offset="0" stop-color="#241f31"/>
        <stop offset="0.4" stop-color="#5e5c64"/>
        <stop offset="0.6" stop-color="#5e5c64"/>
        <stop offset="1" stop-color="#241f31"/>
    </linearGradient>
    <path d="m 69.65625 117.832031 l 48.082031 -48.085937 c 3.125 -3.125 3.125 -8.1875 0 -11.3125 l -48.082031 -48.082032 c -3.125 -3.125 -8.1875 -3.125 -11.3125 0 l -48.085938 48.082032 c -3.121093 3.125 -3.121093 8.1875 0 11.3125 l 48.085938 48.085937 c 3.125 3.121094 8.1875 3.121094 11.3125 0 z m 0 0" fill="url(#a)"/>
    <g clip-path="url(#b)">
        <g clip-path="url(#c)">
            <path d="m 16.875 -1.992188 l -2.28125 6.882813 c -0.109375 -0.003906 -0.21875 -0.011719 -0.328125 -0.015625 c -1.847656 0.015625 -3.691406 0.15625 -5.519531 0.425781 l -3.183594 -6.574219 c -2.304688 0.441407 -4.574219 1.058594 -6.785156 1.839844 l 0.527344 7.246094 c -1.808594 0.738281 -3.5625 1.613281 -5.246094 2.609375 l -5.46875 -4.867187 c -1.957032 1.292968 -3.8125 2.734374 -5.550782 4.308593 l 3.25 6.476563 c -1.386718 1.378906 -2.667968 2.863281 -3.835937 4.429687 l -6.9375 -2.410156 c -1.304687 1.949219 -2.460937 3.992187 -3.464844 6.113281 l 5.476563 4.730469 c -0.75 1.808594 -1.367188 3.671875 -1.84375 5.570313 l -7.320313 0.425781 c -0.464843 2.300781 -0.753906 4.628906 -0.871093 6.972656 l 6.882812 2.28125 c -0.007812 0.109375 -0.011719 0.21875 -0.015625 0.328125 c 0.011719 1.847656 0.15625 3.691406 0.425781 5.519531 l -6.574218 3.1875 c 0.441406 2.300781 1.054687 4.570313 1.839843 6.78125 l 7.242188 -0.527343 c 0.742187 1.808593 1.617187 3.5625 2.613281 5.246093 l -4.867188 5.46875 c 1.292969 1.957031 2.734376 3.8125 4.308594 5.550781 l 6.476563 -3.25 c 1.378906 1.386719 2.863281 2.667969 4.429687 3.835938 l -2.410156 6.9375 c 1.949219 1.304688 3.992188 2.464844 6.113281 3.464844 l 4.730469 -5.476563 c 1.808594 0.75 3.671875 1.367188 5.570312 1.84375 l 0.425782 7.320313 c 2.300781 0.464844 4.628906 0.753906 6.972656 0.871094 l 2.28125 -6.882813 c 0.109375 0.007813 0.21875 0.011719 0.328125 0.015625 c 1.847656 -0.011719 3.691406 -0.15625 5.519531 -0.425781 l 3.183594 6.574219 c 2.304688 -0.441407 4.574219 -1.054688 6.785156 -1.839844 l -0.527344 -7.242188 c 1.808594 -0.742187 3.5625 -1.613281 5.242188 -2.613281 l 5.472656 4.867187 c 1.957032 -1.292968 3.8125 -2.734374 5.550782 -4.304687 l -3.25 -6.480469 c 1.386718 -1.378906 2.667968 -2.859375 3.835937 -4.429687 l 6.9375 2.410156 c 1.304687 -1.949219 2.460937 -3.992187 3.464844 -6.113281 l -5.476563 -4.730469 c 0.75 -1.808594 1.367188 -3.671875 1.84375 -5.570313 l 7.320313 -0.425781 c 0.464843 -2.296875 0.753906 -4.628906 0.871093 -6.972656 l -6.882812 -2.28125 c 0.007812 -0.109375 0.011719 -0.21875 0.015625 -0.328125 c -0.011719 -1.847656 -0.15625 -3.691406 -0.425781 -5.519531 l 6.574218 -3.183594 c -0.441406 -2.304687 -1.054687 -4.574219 -1.839843 -6.785156 l -7.246094 0.527343 c -0.738281 -1.808593 -1.613281 -3.5625 -2.609375 -5.242187 l 4.867188 -5.472656 c -1.292969 -1.957031 -2.734376 -3.8125 -4.308594 -5.550781 l -6.476563 3.25 c -1.378906 -1.382813 -2.863281 -2.667969 -4.429687 -3.835938 l 2.410156 -6.9375 c -1.949219 -1.304688 -3.992188 -2.460938 -6.113281 -3.460938 l -4.730469 5.472657 c -1.808594 -0.75 -3.671875 -1.363281 -5.570312 -1.839844 l -0.425782 -7.324219 c -2.300781 -0.460937 -4.628906 -0.753906 -6.972656 -0.871094 z m 0 0" fill="#1a5fb4"/>
        </g>
    </g>
    <g clip-path="url(#f)" mask="url(#e)">
        <path d="m 28 62.089844 h 36 v 36 z m 0 0" fill="#ffffff"/>
    </g>
    <g clip-path="url(#h)" mask="url(#g)">
        <path d="m 88 38.089844 h -24 v 24 z m 0 0" fill="#ffffff"/>
    </g>
    <g clip-path="url(#j)" mask="url(#i)">
        <path d="m 64 62.089844 h 18 v 18 z m 0 0" fill="#ffffff"/>
    </g>
    <g clip-path="url(#m)" mask="url(#k)">
        <path d="m 8.496094 61.089844 c -1.171875 2.886718 -0.585938 6.308594 1.761718 8.65625 l 48.085938 48.085937 c 3.132812 3.132813 8.179688 3.132813 11.3125 0 l 48.082031 -48.085937 c 2.351563 -2.347656 2.9375 -5.769532 1.765625 -8.65625 c -0.390625 0.964844 -0.976562 1.871094 -1.765625 2.65625 l -48.082031 48.085937 c -3.132812 3.132813 -8.179688 3.132813 -11.3125 0 l -48.085938 -48.085937 c -0.785156 -0.785156 -1.371093 -1.691406 -1.761718 -2.65625 z m 0 0" fill="url(#l)"/>
    </g>
    <path d="m 111.199219 64.609375 l 10.039062 10.039063 c 0.644531 0.644531 0.644531 1.683593 0 2.328124 c -0.640625 0.640626 -1.683593 0.640626 -2.324219 0 l -10.039062 -10.039062 c -0.644531 -0.644531 -0.644531 -1.683594 0 -2.328125 c 0.640625 -0.640625 1.683594 -0.640625 2.324219 0 z m 0 0" fill="#deddda"/>
    <path d="m 105.476562 68.007812 l 3.398438 -3.398437 c 0.640625 -0.640625 1.683594 -0.640625 2.324219 0 c 0.640625 0.644531 0.640625 1.683594 0 2.328125 l -3.398438 3.394531 c -0.640625 0.644531 -1.683593 0.644531 -2.324219 0 c -0.640624 -0.640625 -0.640624 -1.683593 0 -2.324219 z m 0 0" fill="#deddda"/>
    <path d="m 77.863281 110.6875 l 32.824219 -32.824219 c 1.492188 -1.492187 1.492188 -3.910156 0 -5.402343 l -7.339844 -7.339844 c -1.492187 -1.492188 -3.910156 -1.492188 -5.402344 0 l -32.824218 32.824218 c -1.492188 1.492188 -1.492188 3.910157 0 5.402344 l 7.339844 7.339844 c 1.492187 1.492188 3.910156 1.492188 5.402343 0 z m 0 0" fill="url(#n)"/>
    <path d="m 99.105469 96.78125 l 7.28125 7.28125 c 0.644531 0.640625 0.644531 1.683594 0 2.324219 c -0.640625 0.644531 -1.683594 0.644531 -2.324219 0 l -7.28125 -7.28125 c -0.640625 -0.640625 -0.640625 -1.683594 0 -2.324219 c 0.640625 -0.644531 1.683594 -0.644531 2.324219 0 z m 0 0" fill="#deddda"/>
    <path d="m 96.78125 96.78125 l 22.132812 -22.132812 c 0.640626 -0.640626 1.683594 -0.640626 2.324219 0 c 0.644531 0.644531 0.644531 1.683593 0 2.328124 l -22.132812 22.128907 c -0.640625 0.644531 -1.683594 0.644531 -2.324219 0 c -0.640625 -0.640625 -0.640625 -1.683594 0 -2.324219 z m 0 0" fill="#deddda"/>
    <path d="m 103.113281 105.941406 l 2.828125 -2.828125 c 0.792969 -0.792969 2.078125 -0.792969 2.871094 0 l 18.589844 18.59375 c 0.792968 0.792969 0.792968 2.074219 0 2.867188 l -2.828125 2.828125 c -0.792969 0.792968 -2.074219 0.792968 -2.867188 0 l -18.59375 -18.589844 c -0.792969 -0.792969 -0.792969 -2.078125 0 -2.871094 z m 0 0" fill="url(#o)"/>
</svg>
