<?xml version="1.0" encoding="UTF-8"?>
<svg height="128px" viewBox="0 0 128 128" width="128px" xmlns="http://www.w3.org/2000/svg" xmlns:xlink="http://www.w3.org/1999/xlink">
    <linearGradient id="a" gradientTransform="matrix(0.707107 -0.707107 -0.707107 -0.707107 -0.000281 290.089979)" gradientUnits="userSpaceOnUse" x1="168.291412" x2="243.244736" y1="77.781746" y2="152.735062">
        <stop offset="0" stop-color="#8ff0a4"/>
        <stop offset="1" stop-color="#3584e4"/>
    </linearGradient>
    <clipPath id="b">
        <path d="m 7 8 h 55 v 84 h -55 z m 0 0"/>
    </clipPath>
    <clipPath id="c">
        <path d="m 69.21875 10.167969 l 48.769531 48.769531 c 2.886719 2.882812 2.886719 7.558594 0 10.441406 l -48.769531 48.769532 c -2.882812 2.882812 -7.554688 2.882812 -10.441406 0 l -48.769532 -48.769532 c -2.882812 -2.882812 -2.882812 -7.558594 0 -10.441406 l 48.769532 -48.769531 c 2.886718 -2.882813 7.558594 -2.882813 10.441406 0 z m 0 0"/>
    </clipPath>
    <filter id="d" height="100%" width="100%" x="0%" y="0%">
        <feColorMatrix in="SourceGraphic" type="matrix" values="0 0 0 0 1 0 0 0 0 1 0 0 0 0 1 0 0 0 1 0"/>
    </filter>
    <mask id="e">
        <g filter="url(#d)">
            <rect fill-opacity="0.95" height="128" width="128"/>
        </g>
    </mask>
    <clipPath id="f">
        <rect height="128" width="128"/>
    </clipPath>
    <mask id="g">
        <g filter="url(#d)">
            <rect fill-opacity="0.75" height="128" width="128"/>
        </g>
    </mask>
    <clipPath id="h">
        <rect height="128" width="128"/>
    </clipPath>
    <mask id="i">
        <g filter="url(#d)">
            <rect fill-opacity="0.4" height="128" width="128"/>
        </g>
    </mask>
    <clipPath id="j">
        <rect height="128" width="128"/>
    </clipPath>
    <mask id="k">
        <g filter="url(#d)">
            <rect fill-opacity="0.8" height="128" width="128"/>
        </g>
    </mask>
    <linearGradient id="l" gradientUnits="userSpaceOnUse" x1="7.999728" x2="119.999728" y1="90.089984" y2="90.089984">
        <stop offset="0" stop-color="#3584e4"/>
        <stop offset="0.428679" stop-color="#62a0ea"/>
        <stop offset="0.499994" stop-color="#c1d9f7"/>
        <stop offset="0.571308" stop-color="#62a0ea"/>
        <stop offset="1" stop-color="#3584e4"/>
    </linearGradient>
    <clipPath id="m">
        <rect height="128" width="128"/>
    </clipPath>
    <linearGradient id="n" gradientUnits="userSpaceOnUse">
        <stop offset="0.5" stop-color="#ffffff"/>
        <stop offset="1" stop-color="#9a9996"/>
    </linearGradient>
    <radialGradient id="o" cx="291.101562" cy="257.046875" gradientTransform="matrix(0.707107 -0.707107 0.707107 0.707107 -267.853113 99.900586)" r="1.884765" xlink:href="#n"/>
    <radialGradient id="p" cx="291.101562" cy="243.330078" gradientTransform="matrix(0.707107 -0.707107 0.707107 0.707107 -267.853113 99.900586)" r="1.884765" xlink:href="#n"/>
    <linearGradient id="q" gradientUnits="userSpaceOnUse">
        <stop offset="0" stop-color="#9a9996"/>
        <stop offset="0.5" stop-color="#ffffff"/>
        <stop offset="1" stop-color="#c0bfbc"/>
    </linearGradient>
    <linearGradient id="r" gradientTransform="matrix(0.707107 -0.707107 0.707107 0.707107 -267.853113 99.900586)" x1="292.986328" x2="289.695312" xlink:href="#q" y1="250.188477" y2="250.188477"/>
    <linearGradient id="s" gradientTransform="matrix(0.707107 -0.707107 0.707107 0.707107 -267.853113 99.900586)" x1="288.698242" x2="288.698242" xlink:href="#q" y1="241.445312" y2="244.734375"/>
    <radialGradient id="t" cx="260.280762" cy="257.527344" gradientTransform="matrix(0.707107 -0.707107 0.707107 0.707107 -267.853113 99.900586)" r="1.884765" xlink:href="#n"/>
    <linearGradient id="u" gradientTransform="matrix(0.707107 -0.707107 0.707107 0.707107 -267.853113 99.900586)" x1="261.685059" x2="258.395996" xlink:href="#q" y1="262.676758" y2="262.676758"/>
    <linearGradient id="v" gradientTransform="matrix(0.707107 -0.707107 0.707107 0.707107 -267.853113 99.900586)" x1="275.689941" x2="275.689941" xlink:href="#q" y1="258.931641" y2="255.642578"/>
    <linearGradient id="w" gradientTransform="matrix(1.081857 -1.081857 1.081857 1.081857 -385.670922 4.021072)" gradientUnits="userSpaceOnUse" x1="177.470078" x2="182.736496" y1="282.933533" y2="282.933533">
        <stop offset="0" stop-color="#241f31"/>
        <stop offset="0.4" stop-color="#5e5c64"/>
        <stop offset="0.6" stop-color="#5e5c64"/>
        <stop offset="1" stop-color="#241f31"/>
    </linearGradient>
    <path d="m 69.65625 117.832031 l 48.082031 -48.085937 c 3.125 -3.125 3.125 -8.1875 0 -11.3125 l -48.082031 -48.082032 c -3.125 -3.125 -8.1875 -3.125 -11.3125 0 l -48.085938 48.082032 c -3.121093 3.125 -3.121093 8.1875 0 11.3125 l 48.085938 48.085937 c 3.125 3.121094 8.1875 3.121094 11.3125 0 z m 0 0" fill="url(#a)"/>
    <g clip-path="url(#b)">
        <g clip-path="url(#c)">
            <path d="m 16.875 -1.992188 l -2.28125 6.882813 c -0.109375 -0.003906 -0.21875 -0.011719 -0.328125 -0.015625 c -1.847656 0.015625 -3.691406 0.15625 -5.519531 0.425781 l -3.183594 -6.574219 c -2.304688 0.441407 -4.574219 1.058594 -6.785156 1.839844 l 0.527344 7.246094 c -1.808594 0.738281 -3.5625 1.613281 -5.246094 2.609375 l -5.46875 -4.867187 c -1.957032 1.292968 -3.8125 2.734374 -5.550782 4.308593 l 3.25 6.476563 c -1.386718 1.378906 -2.667968 2.863281 -3.835937 4.429687 l -6.9375 -2.410156 c -1.304687 1.949219 -2.460937 3.992187 -3.464844 6.113281 l 5.476563 4.730469 c -0.75 1.808594 -1.367188 3.671875 -1.84375 5.570313 l -7.320313 0.425781 c -0.464843 2.300781 -0.753906 4.628906 -0.871093 6.972656 l 6.882812 2.28125 c -0.007812 0.109375 -0.011719 0.21875 -0.015625 0.328125 c 0.011719 1.847656 0.15625 3.691406 0.425781 5.519531 l -6.574218 3.1875 c 0.441406 2.300781 1.054687 4.570313 1.839843 6.78125 l 7.242188 -0.527343 c 0.742187 1.808593 1.617187 3.5625 2.613281 5.246093 l -4.867188 5.46875 c 1.292969 1.957031 2.734376 3.8125 4.308594 5.550781 l 6.476563 -3.25 c 1.378906 1.386719 2.863281 2.667969 4.429687 3.835938 l -2.410156 6.9375 c 1.949219 1.304688 3.992188 2.464844 6.113281 3.464844 l 4.730469 -5.476563 c 1.808594 0.75 3.671875 1.367188 5.570312 1.84375 l 0.425782 7.320313 c 2.300781 0.464844 4.628906 0.753906 6.972656 0.871094 l 2.28125 -6.882813 c 0.109375 0.007813 0.21875 0.011719 0.328125 0.015625 c 1.847656 -0.011719 3.691406 -0.15625 5.519531 -0.425781 l 3.183594 6.574219 c 2.304688 -0.441407 4.574219 -1.054688 6.785156 -1.839844 l -0.527344 -7.242188 c 1.808594 -0.742187 3.5625 -1.613281 5.242188 -2.613281 l 5.472656 4.867187 c 1.957032 -1.292968 3.8125 -2.734374 5.550782 -4.304687 l -3.25 -6.480469 c 1.386718 -1.378906 2.667968 -2.859375 3.835937 -4.429687 l 6.9375 2.410156 c 1.304687 -1.949219 2.460937 -3.992187 3.464844 -6.113281 l -5.476563 -4.730469 c 0.75 -1.808594 1.367188 -3.671875 1.84375 -5.570313 l 7.320313 -0.425781 c 0.464843 -2.296875 0.753906 -4.628906 0.871093 -6.972656 l -6.882812 -2.28125 c 0.007812 -0.109375 0.011719 -0.21875 0.015625 -0.328125 c -0.011719 -1.847656 -0.15625 -3.691406 -0.425781 -5.519531 l 6.574218 -3.183594 c -0.441406 -2.304687 -1.054687 -4.574219 -1.839843 -6.785156 l -7.246094 0.527343 c -0.738281 -1.808593 -1.613281 -3.5625 -2.609375 -5.242187 l 4.867188 -5.472656 c -1.292969 -1.957031 -2.734376 -3.8125 -4.308594 -5.550781 l -6.476563 3.25 c -1.378906 -1.382813 -2.863281 -2.667969 -4.429687 -3.835938 l 2.410156 -6.9375 c -1.949219 -1.304688 -3.992188 -2.460938 -6.113281 -3.460938 l -4.730469 5.472657 c -1.808594 -0.75 -3.671875 -1.363281 -5.570312 -1.839844 l -0.425782 -7.324219 c -2.300781 -0.460937 -4.628906 -0.753906 -6.972656 -0.871094 z m 0 0" fill="#1a5fb4"/>
        </g>
    </g>
    <g clip-path="url(#f)" mask="url(#e)">
        <path d="m 28 62.089844 h 36 v 36 z m 0 0" fill="#ffffff"/>
    </g>
    <g clip-path="url(#h)" mask="url(#g)">
        <path d="m 88 38.089844 h -24 v 24 z m 0 0" fill="#ffffff"/>
    </g>
    <g clip-path="url(#j)" mask="url(#i)">
        <path d="m 64 62.089844 h 18 v 18 z m 0 0" fill="#ffffff"/>
    </g>
    <g clip-path="url(#m)" mask="url(#k)">
        <path d="m 8.496094 61.089844 c -1.171875 2.886718 -0.585938 6.308594 1.761718 8.65625 l 48.085938 48.085937 c 3.132812 3.132813 8.179688 3.132813 11.3125 0 l 48.082031 -48.085937 c 2.351563 -2.347656 2.9375 -5.769532 1.765625 -8.65625 c -0.390625 0.964844 -0.976562 1.871094 -1.765625 2.65625 l -48.082031 48.085937 c -3.132812 3.132813 -8.179688 3.132813 -11.3125 0 l -48.085938 -48.085937 c -0.785156 -0.785156 -1.371093 -1.691406 -1.761718 -2.65625 z m 0 0" fill="url(#l)"/>
    </g>
    <path d="m 121.078125 74.488281 c 0.738281 0.734375 0.738281 1.929688 0 2.664063 c -0.734375 0.738281 -1.929687 0.738281 -2.664063 0 c -0.738281 -0.734375 -0.738281 -1.929688 0 -2.664063 c 0.734376 -0.738281 1.929688 -0.738281 2.664063 0 z m 0 0" fill="url(#o)"/>
    <path d="m 111.378906 64.789062 c 0.738282 0.734376 0.738282 1.929688 0 2.664063 c -0.734375 0.738281 -1.929687 0.738281 -2.664062 0 c -0.738282 -0.734375 -0.738282 -1.929687 0 -2.664063 c 0.734375 -0.738281 1.929687 -0.738281 2.664062 0 z m 0 0" fill="url(#p)"/>
    <path d="m 110.046875 68.109375 l 7.710937 7.710937 h 3.972657 c 0 -0.417968 -0.160157 -0.839843 -0.480469 -1.164062 l -10.039062 -10.039062 c -0.324219 -0.320313 -0.746094 -0.480469 -1.164063 -0.480469 z m 0 0" fill="url(#r)"/>
    <path d="m 105.488281 68.015625 c -0.644531 0.644531 -0.644531 1.683594 0 2.324219 c 0.644531 0.644531 1.679688 0.644531 2.324219 0 l 2.234375 -2.230469 v -3.972656 c -0.421875 0 -0.84375 0.160156 -1.164063 0.484375 z m 0 0" fill="url(#s)"/>
    <path d="m 99.625 96.621094 c 0.734375 0.734375 0.734375 1.929687 0 2.664062 c -0.734375 0.738282 -1.929688 0.738282 -2.664062 0 c -0.738282 -0.734375 -0.738282 -1.929687 0 -2.664062 c 0.734374 -0.734375 1.929687 -0.734375 2.664062 0 z m 0 0" fill="url(#t)"/>
    <path d="m 96.304688 97.953125 c 0 0.421875 0.164062 0.839844 0.484374 1.164063 l 7.285157 7.28125 c 0.640625 0.644531 1.679687 0.644531 2.324219 0 c 0.644531 -0.644532 0.644531 -1.679688 0 -2.324219 l -6.121094 -6.121094 z m 0 0" fill="url(#u)"/>
    <path d="m 117.757812 75.820312 l -20.96875 20.96875 c -0.320312 0.324219 -0.484374 0.742188 -0.484374 1.164063 h 3.972656 l 20.96875 -20.96875 c 0.324218 -0.320313 0.484375 -0.742187 0.484375 -1.164063 z m 0 0" fill="url(#v)"/>
    <path d="m 103.140625 105.9375 l 2.796875 -2.796875 c 0.800781 -0.800781 2.097656 -0.800781 2.898438 0 l 18.5625 18.558594 c 0.800781 0.800781 0.800781 2.101562 0 2.902343 l -2.796876 2.796876 c -0.800781 0.800781 -2.101562 0.800781 -2.902343 0 l -18.558594 -18.5625 c -0.800781 -0.800782 -0.800781 -2.097657 0 -2.898438 z m 0 0" fill="url(#w)"/>
    <path d="m 64.933594 98.167969 l 3.535156 -3.539063 c 1.757812 -1.753906 4.707031 -1.652344 6.589844 0.230469 l 5.914062 5.910156 c 1.878906 1.882813 1.980469 4.832031 0.226563 6.589844 l -3.539063 3.535156 c -1.757812 1.757813 -4.707031 1.65625 -6.589844 -0.226562 l -5.910156 -5.910157 c -1.882812 -1.882812 -1.984375 -4.832031 -0.226562 -6.589843 z m 0 0" fill="#3584e4"/>
    <path d="m 71.652344 91.449219 l 14.847656 -14.847657 l 12.726562 12.726563 l -14.847656 14.847656 z m 0 0" fill="#f6d32d"/>
    <path d="m 68.351562 94.75 l 6.597657 -6.601562 l 12.730469 12.730468 l -6.601563 6.597656 z m 0 0" fill="#33d17a"/>
    <path d="m 81.550781 81.550781 l 9.898438 -9.898437 l 12.726562 12.726562 l -9.898437 9.898438 z m 0 0" fill="#ff7800"/>
    <path d="m 94.628906 68.46875 l 3.539063 -3.535156 c 1.757812 -1.757813 4.707031 -1.65625 6.589843 0.226562 l 5.910157 5.910156 c 1.882812 1.882813 1.984375 4.832032 0.226562 6.589844 l -3.535156 3.539063 c -1.757813 1.753906 -4.707031 1.652343 -6.589844 -0.226563 l -5.910156 -5.914062 c -1.882813 -1.882813 -1.984375 -4.832032 -0.230469 -6.589844 z m 0 0" fill="#9141ac"/>
    <path d="m 88.148438 74.949219 l 6.601562 -6.597657 l 12.726562 12.726563 l -6.597656 6.601563 z m 0 0" fill="#e01b24"/>
</svg>
