<?xml version="1.0" encoding="UTF-8"?>
<svg height="128px" viewBox="0 0 128 128" width="128px" xmlns="http://www.w3.org/2000/svg" xmlns:xlink="http://www.w3.org/1999/xlink">
    <clipPath id="a">
        <path d="m 8 28 h 112 v 16 h -112 z m 0 0"/>
    </clipPath>
    <clipPath id="b">
        <path d="m 16 28 h 96 c 4.417969 0 8 3.582031 8 8 v 72 c 0 4.417969 -3.582031 8 -8 8 h -96 c -4.417969 0 -8 -3.582031 -8 -8 v -72 c 0 -4.417969 3.582031 -8 8 -8 z m 0 0"/>
    </clipPath>
    <filter id="c" height="100%" width="100%" x="0%" y="0%">
        <feColorMatrix in="SourceGraphic" type="matrix" values="0 0 0 0 1 0 0 0 0 1 0 0 0 0 1 0 0 0 1 0"/>
    </filter>
    <mask id="d">
        <g filter="url(#c)">
            <rect fill-opacity="0.7" height="128" width="128"/>
        </g>
    </mask>
    <clipPath id="e">
        <path d="m 8 37 h 50 v 68 h -50 z m 0 0"/>
    </clipPath>
    <clipPath id="f">
        <path d="m 16 28 h 96 c 4.417969 0 8 3.582031 8 8 v 72 c 0 4.417969 -3.582031 8 -8 8 h -96 c -4.417969 0 -8 -3.582031 -8 -8 v -72 c 0 -4.417969 3.582031 -8 8 -8 z m 0 0"/>
    </clipPath>
    <clipPath id="g">
        <path d="m 8 28 h 62 v 65 h -62 z m 0 0"/>
    </clipPath>
    <clipPath id="h">
        <path d="m 16 28 h 96 c 4.417969 0 8 3.582031 8 8 v 72 c 0 4.417969 -3.582031 8 -8 8 h -96 c -4.417969 0 -8 -3.582031 -8 -8 v -72 c 0 -4.417969 3.582031 -8 8 -8 z m 0 0"/>
    </clipPath>
    <clipPath id="i">
        <path d="m 14 28 h 67 v 54 h -67 z m 0 0"/>
    </clipPath>
    <clipPath id="j">
        <path d="m 16 28 h 96 c 4.417969 0 8 3.582031 8 8 v 72 c 0 4.417969 -3.582031 8 -8 8 h -96 c -4.417969 0 -8 -3.582031 -8 -8 v -72 c 0 -4.417969 3.582031 -8 8 -8 z m 0 0"/>
    </clipPath>
    <clipPath id="k">
        <path d="m 25 28 h 68 v 42 h -68 z m 0 0"/>
    </clipPath>
    <clipPath id="l">
        <path d="m 16 28 h 96 c 4.417969 0 8 3.582031 8 8 v 72 c 0 4.417969 -3.582031 8 -8 8 h -96 c -4.417969 0 -8 -3.582031 -8 -8 v -72 c 0 -4.417969 3.582031 -8 8 -8 z m 0 0"/>
    </clipPath>
    <clipPath id="m">
        <rect height="128" width="128"/>
    </clipPath>
    <linearGradient id="n" gradientUnits="userSpaceOnUse">
        <stop offset="0.5" stop-color="#ffffff"/>
        <stop offset="1" stop-color="#9a9996"/>
    </linearGradient>
    <radialGradient id="o" cx="291.101562" cy="257.046875" gradientTransform="matrix(0.846181 -0.846181 0.846181 0.846181 -356.731455 95.351633)" r="1.884765" xlink:href="#n"/>
    <radialGradient id="p" cx="291.101562" cy="243.330078" gradientTransform="matrix(0.846181 -0.846181 0.846181 0.846181 -356.731455 95.351633)" r="1.884765" xlink:href="#n"/>
    <radialGradient id="q" cx="260.280762" cy="257.527344" gradientTransform="matrix(0.846181 -0.846181 0.846181 0.846181 -356.731455 95.351633)" r="1.884765" xlink:href="#n"/>
    <linearGradient id="r" gradientUnits="userSpaceOnUse">
        <stop offset="0" stop-color="#9a9996"/>
        <stop offset="0.5" stop-color="#ffffff"/>
        <stop offset="1" stop-color="#c0bfbc"/>
    </linearGradient>
    <linearGradient id="s" gradientTransform="matrix(0.846181 -0.846181 0.846181 0.846181 -356.731455 95.351633)" x1="261.685059" x2="258.395996" xlink:href="#r" y1="262.676758" y2="262.676758"/>
    <linearGradient id="t" gradientTransform="matrix(0.846181 -0.846181 0.846181 0.846181 -356.731455 95.351633)" x1="275.689941" x2="275.689941" xlink:href="#r" y1="258.931641" y2="255.642578"/>
    <linearGradient id="u" gradientTransform="matrix(0.846181 -0.846181 0.846181 0.846181 -356.731455 95.351633)" x1="292.986328" x2="289.695312" xlink:href="#r" y1="250.188477" y2="250.188477"/>
    <linearGradient id="v" gradientTransform="matrix(0.846181 -0.846181 0.846181 0.846181 -356.731455 95.351633)" x1="288.698242" x2="288.698242" xlink:href="#r" y1="241.445312" y2="244.734375"/>
    <linearGradient id="w" gradientTransform="matrix(1.294637 -1.294637 1.294637 1.294637 -497.72168 -19.38547)" gradientUnits="userSpaceOnUse" x1="177.470078" x2="182.736496" y1="282.933533" y2="282.933533">
        <stop offset="0" stop-color="#865e3c"/>
        <stop offset="0.4" stop-color="#b5835a"/>
        <stop offset="0.6" stop-color="#b5835a"/>
        <stop offset="1" stop-color="#865e3c"/>
    </linearGradient>
    <linearGradient id="x" gradientTransform="matrix(0.846181 -0.846181 0.846181 0.846181 -289.309262 5.010391)" gradientUnits="userSpaceOnUse" x1="145.820236" x2="145.820236" y1="247.632492" y2="265.632507">
        <stop offset="0" stop-color="#1a5fb4"/>
        <stop offset="0.22" stop-color="#3584e4"/>
        <stop offset="0.44" stop-color="#62a0ea"/>
        <stop offset="0.56" stop-color="#62a0ea"/>
        <stop offset="0.78" stop-color="#3584e4"/>
        <stop offset="1" stop-color="#1a5fb4"/>
    </linearGradient>
    <linearGradient id="y" gradientTransform="matrix(1.269227 -1.269227 0.846181 0.846181 -348.03669 63.737854)" gradientUnits="userSpaceOnUse" x1="152.820221" x2="152.820221" y1="247.632492" y2="265.632507">
        <stop offset="0" stop-color="#26a269"/>
        <stop offset="0.22" stop-color="#33d17a"/>
        <stop offset="0.44" stop-color="#57e389"/>
        <stop offset="0.56" stop-color="#57e389"/>
        <stop offset="0.78" stop-color="#33d17a"/>
        <stop offset="1" stop-color="#26a269"/>
    </linearGradient>
    <linearGradient id="z" gradientTransform="matrix(-0.846181 0.846181 -0.846181 -0.846181 427.3241 157.006819)" gradientUnits="userSpaceOnUse" x1="145.820236" x2="145.820236" y1="247.632492" y2="265.632507">
        <stop offset="0" stop-color="#a51d2d"/>
        <stop offset="0.22" stop-color="#e01b24"/>
        <stop offset="0.44" stop-color="#ed333b"/>
        <stop offset="0.56" stop-color="#ed333b"/>
        <stop offset="0.78" stop-color="#e01b24"/>
        <stop offset="1" stop-color="#a51d2d"/>
    </linearGradient>
    <linearGradient id="A" gradientTransform="matrix(1.269227 -1.269227 0.846181 0.846181 -348.03669 63.737854)" gradientUnits="userSpaceOnUse" x1="162.153564" x2="162.785706" y1="247.632492" y2="265.632507">
        <stop offset="0" stop-color="#e5a50a"/>
        <stop offset="0.22" stop-color="#f6d32d"/>
        <stop offset="0.44" stop-color="#f8e45c"/>
        <stop offset="0.56" stop-color="#f8e45c"/>
        <stop offset="0.78" stop-color="#f6d32d"/>
        <stop offset="1" stop-color="#e5a50a"/>
    </linearGradient>
    <path d="m 16 42 h 96 c 4.417969 0 8 3.582031 8 8 v 60 c 0 4.417969 -3.582031 8 -8 8 h -96 c -4.417969 0 -8 -3.582031 -8 -8 v -60 c 0 -4.417969 3.582031 -8 8 -8 z m 0 0" fill="#d5d3cf"/>
    <path d="m 16 28 h 96 c 4.417969 0 8 3.582031 8 8 v 72 c 0 4.417969 -3.582031 8 -8 8 h -96 c -4.417969 0 -8 -3.582031 -8 -8 v -72 c 0 -4.417969 3.582031 -8 8 -8 z m 0 0" fill="#fafafa"/>
    <g clip-path="url(#a)">
        <g clip-path="url(#b)">
            <path d="m 8 28 h 112 v 16 h -112 z m 0 0" fill="#ebebeb"/>
        </g>
    </g>
    <path d="m 117 36 c 0 2.761719 -2.238281 5 -5 5 s -5 -2.238281 -5 -5 s 2.238281 -5 5 -5 s 5 2.238281 5 5 z m 0 0" fill="#d8d8d8"/>
    <path d="m 109.503906 33.5 h 0.425782 c 0.105468 0.003906 0.214843 0.054688 0.289062 0.128906 l 1.78125 1.785156 l 1.796875 -1.785156 c 0.109375 -0.09375 0.183594 -0.125 0.285156 -0.128906 h 0.417969 v 0.417969 c 0 0.117187 -0.015625 0.226562 -0.105469 0.3125 l -1.78125 1.78125 l 1.769531 1.773437 c 0.078126 0.078125 0.117188 0.1875 0.117188 0.296875 v 0.417969 h -0.417969 c -0.109375 0 -0.21875 -0.039062 -0.296875 -0.117188 l -1.785156 -1.785156 l -1.78125 1.785156 c -0.078125 0.078126 -0.191406 0.117188 -0.300781 0.117188 h -0.417969 v -0.417969 c 0 -0.109375 0.039062 -0.21875 0.117188 -0.296875 l 1.785156 -1.773437 l -1.785156 -1.78125 c -0.085938 -0.082031 -0.125 -0.195313 -0.117188 -0.3125 z m 0 0" fill="#444444"/>
    <g clip-path="url(#m)" mask="url(#d)">
        <g clip-path="url(#e)">
            <g clip-path="url(#f)">
                <path d="m -9.550781 49.835938 l 11.847656 -11.847657 l 54.863281 54.867188 l -11.84375 11.84375 z m 0 0" fill="#62a0ea"/>
            </g>
        </g>
        <g clip-path="url(#g)">
            <g clip-path="url(#h)">
                <path d="m 2.296875 37.988281 l 11.84375 -11.84375 l 54.867187 54.863281 l -11.847656 11.847657 z m 0 0" fill="#57e389"/>
            </g>
        </g>
        <g clip-path="url(#i)">
            <g clip-path="url(#j)">
                <path d="m 14.140625 26.144531 l 11.847656 -11.847656 l 54.867188 54.867187 l -11.847657 11.84375 z m 0 0" fill="#f8e45c"/>
            </g>
        </g>
        <g clip-path="url(#k)">
            <g clip-path="url(#l)">
                <path d="m 92.699219 57.316406 l -11.84375 11.847656 l -54.867188 -54.867187 l 11.84375 -11.847656 z m 0 0" fill="#ed333b"/>
            </g>
        </g>
    </g>
    <path d="m 108.695312 64.941406 c 0.882813 0.878906 0.882813 2.308594 0 3.1875 c -0.878906 0.882813 -2.308593 0.882813 -3.1875 0 c -0.882812 -0.878906 -0.882812 -2.308594 0 -3.1875 c 0.878907 -0.882812 2.308594 -0.882812 3.1875 0 z m 0 0" fill="url(#o)"/>
    <path d="m 97.089844 53.332031 c 0.878906 0.882813 0.878906 2.308594 0 3.191407 c -0.882813 0.878906 -2.308594 0.878906 -3.191406 0 c -0.878907 -0.882813 -0.878907 -2.308594 0 -3.191407 c 0.882812 -0.878906 2.308593 -0.878906 3.191406 0 z m 0 0" fill="url(#p)"/>
    <path d="m 83.023438 91.425781 c 0.878906 0.882813 0.878906 2.308594 0 3.191407 c -0.882813 0.878906 -2.308594 0.878906 -3.191407 0 c -0.878906 -0.882813 -0.878906 -2.308594 0 -3.191407 c 0.882813 -0.878906 2.308594 -0.878906 3.191407 0 z m 0 0" fill="url(#q)"/>
    <path d="m 79.050781 93.023438 c 0 0.5 0.191407 1.003906 0.578125 1.390624 l 8.714844 8.714844 c 0.773438 0.769532 2.011719 0.769532 2.785156 0 c 0.769532 -0.773437 0.769532 -2.011718 0 -2.785156 l -7.324218 -7.320312 z m 0 0" fill="url(#s)"/>
    <path d="m 104.722656 66.539062 l -25.09375 25.089844 c -0.386718 0.386719 -0.578125 0.890625 -0.578125 1.394532 h 4.753907 l 25.09375 -25.09375 c 0.382812 -0.386719 0.578124 -0.890626 0.578124 -1.390626 z m 0 0" fill="url(#t)"/>
    <path d="m 95.492188 57.304688 l 9.230468 9.230468 h 4.753906 c 0 -0.5 -0.191406 -1.007812 -0.578124 -1.390625 l -12.011719 -12.015625 c -0.386719 -0.382812 -0.890625 -0.574218 -1.394531 -0.574218 z m 0 0" fill="url(#u)"/>
    <path d="m 90.035156 57.195312 c -0.769531 0.773438 -0.769531 2.011719 0 2.785157 c 0.773438 0.769531 2.015625 0.769531 2.785156 0 l 2.671876 -2.675781 v -4.75 c -0.503907 0 -1.003907 0.191406 -1.390626 0.578124 z m 0 0" fill="url(#v)"/>
    <path d="m 88.902344 100.902344 c 1.882812 -1.882813 4.933594 -1.882813 6.816406 0 l 18.863281 18.863281 c 1.882813 1.882813 1.882813 4.933594 0 6.816406 c -1.878906 1.882813 -4.933593 1.882813 -6.816406 0 l -18.863281 -18.863281 c -1.882813 -1.882812 -1.882813 -4.933594 0 -6.816406 z m 0 0" fill="url(#w)"/>
    <path d="m 49.546875 85.238281 l 11.84375 -11.84375 l 15.230469 15.230469 l -11.84375 11.84375 z m 11.84375 -11.84375 l 11.847656 -11.847656 l 15.230469 15.230469 l -11.847656 11.847656 z m 35.117187 -4.65625 l -10.15625 10.15625 c -2.109374 2.109375 -5.625 1.988281 -7.882812 -0.273437 l -7.074219 -7.074219 c -2.261719 -2.257813 -2.382812 -5.773437 -0.273437 -7.882813 l 10.15625 -10.15625 c 2.109375 -2.109374 5.625 -1.988281 7.886718 0.269532 l 7.074219 7.078125 c 2.257813 2.257812 2.378907 5.773437 0.269531 7.882812 z m -55.003906 24.539063 l 10.160156 -10.15625 c 2.105469 -2.109375 5.625 -1.984375 7.882813 0.273437 l 7.074219 7.074219 c 2.261718 2.257812 2.382812 5.777344 0.273437 7.886719 l -10.15625 10.15625 c -2.109375 2.105469 -5.625 1.984375 -7.886719 -0.273438 l -7.074218 -7.074219 c -2.257813 -2.261718 -2.378906 -5.777343 -0.273438 -7.886718 z m 0 0" fill="#ffffff"/>
    <path d="m 41.503906 93.277344 l 10.160156 -10.15625 c 2.101563 -2.101563 5.628907 -1.980469 7.882813 0.273437 l 7.074219 7.074219 c 2.253906 2.253906 2.375 5.78125 0.273437 7.886719 l -10.15625 10.15625 c -2.101562 2.101562 -5.632812 1.980469 -7.886719 -0.273438 l -7.074218 -7.074219 c -2.253906 -2.253906 -2.375 -5.78125 -0.273438 -7.886718 z m 0 0" fill="url(#x)"/>
    <path d="m 49.546875 85.238281 l 11.84375 -11.84375 l 15.230469 15.230469 l -11.84375 11.84375 z m 0 0" fill="url(#y)"/>
    <path d="m 96.507812 68.738281 l -10.15625 10.15625 c -2.101562 2.101563 -5.632812 1.980469 -7.882812 -0.273437 l -7.074219 -7.074219 c -2.253906 -2.25 -2.375 -5.78125 -0.273437 -7.882813 l 10.15625 -10.15625 c 2.101562 -2.101562 5.632812 -1.980468 7.886718 0.269532 l 7.074219 7.078125 c 2.25 2.25 2.371094 5.78125 0.269531 7.882812 z m 0 0" fill="url(#z)"/>
    <path d="m 61.390625 73.394531 l 11.847656 -11.847656 l 15.230469 15.230469 l -11.847656 11.847656 z m 0 0" fill="url(#A)"/>
</svg>
