<?xml version="1.0" encoding="UTF-8" standalone="no"?>
<!-- Created with Inkscape (http://www.inkscape.org/) -->

<svg
   width="33.866665mm"
   height="33.866665mm"
   viewBox="0 0 33.866665 33.866665"
   version="1.1"
   id="svg5358"
   inkscape:version="1.2.1 (9c6d41e410, 2022-07-14)"
   sodipodi:docname="com.github.ArtyIF.AdwCustomizer.svg"
   xmlns:inkscape="http://www.inkscape.org/namespaces/inkscape"
   xmlns:sodipodi="http://sodipodi.sourceforge.net/DTD/sodipodi-0.dtd"
   xmlns:xlink="http://www.w3.org/1999/xlink"
   xmlns="http://www.w3.org/2000/svg"
   xmlns:svg="http://www.w3.org/2000/svg">
  <sodipodi:namedview
     id="namedview5360"
     pagecolor="#ffffff"
     bordercolor="#666666"
     borderopacity="1.0"
     inkscape:showpageshadow="2"
     inkscape:pageopacity="0.0"
     inkscape:pagecheckerboard="0"
     inkscape:deskcolor="#d1d1d1"
     inkscape:document-units="mm"
     showgrid="false"
     inkscape:zoom="4.9701079"
     inkscape:cx="123.84037"
     inkscape:cy="92.35212"
     inkscape:current-layer="layer1" />
  <defs
     id="defs5355">
    <linearGradient
       inkscape:collect="always"
       xlink:href="#linearGradient1073"
       id="linearGradient2822"
       gradientUnits="userSpaceOnUse"
       gradientTransform="matrix(0.06338022,0,0,0.06798292,80.496561,204.71077)"
       x1="88.595886"
       y1="-449.39401"
       x2="536.59589"
       y2="-449.39401" />
    <linearGradient
       inkscape:collect="always"
       id="linearGradient1073">
      <stop
         style="stop-color:#77767b;stop-opacity:1"
         offset="0"
         id="stop1060" />
      <stop
         id="stop1062"
         offset="0.03846154"
         style="stop-color:#c0bfbc;stop-opacity:1" />
      <stop
         style="stop-color:#9a9996;stop-opacity:1"
         offset="0.07685554"
         id="stop1064" />
      <stop
         id="stop1067"
         offset="0.92307693"
         style="stop-color:#9a9996;stop-opacity:1" />
      <stop
         style="stop-color:#c0bfbc;stop-opacity:1"
         offset="0.96153849"
         id="stop1069" />
      <stop
         style="stop-color:#77767b;stop-opacity:1"
         offset="1"
         id="stop1071" />
    </linearGradient>
    <linearGradient
       inkscape:collect="always"
       xlink:href="#linearGradient7165"
       id="linearGradient2816"
       gradientUnits="userSpaceOnUse"
       gradientTransform="matrix(0.1636575,-0.18540913,0.76487707,0.63654323,81.541131,223.93514)"
       x1="235.90042"
       y1="-47.913715"
       x2="235.90042"
       y2="-20.800291" />
    <linearGradient
       inkscape:collect="always"
       id="linearGradient7165">
      <stop
         style="stop-color:#f6d32d;stop-opacity:1;"
         offset="0"
         id="stop7161" />
      <stop
         style="stop-color:#f6d32d;stop-opacity:1;"
         offset="1"
         id="stop7163" />
    </linearGradient>
    <linearGradient
       inkscape:collect="always"
       xlink:href="#linearGradient2125"
       id="linearGradient2794"
       gradientUnits="userSpaceOnUse"
       gradientTransform="matrix(0.934279,0,0,0.934279,-79.785904,223.97512)"
       x1="236.16283"
       y1="-15.940514"
       x2="239.66225"
       y2="-15.940514" />
    <linearGradient
       id="linearGradient2125"
       inkscape:collect="always">
      <stop
         id="stop2113"
         offset="0"
         style="stop-color:#d5d3cf;stop-opacity:1" />
      <stop
         style="stop-color:#e3e2df;stop-opacity:1"
         offset="0.14240676"
         id="stop2115" />
      <stop
         style="stop-color:#c0bfbc;stop-opacity:1"
         offset="0.46249032"
         id="stop2117" />
      <stop
         style="stop-color:#c0bfbc;stop-opacity:1"
         offset="0.48151124"
         id="stop2119" />
      <stop
         style="stop-color:#e3e2df;stop-opacity:1"
         offset="0.8378405"
         id="stop2121" />
      <stop
         id="stop2123"
         offset="1"
         style="stop-color:#d5d3cf;stop-opacity:1" />
    </linearGradient>
    <linearGradient
       inkscape:collect="always"
       xlink:href="#linearGradient2125"
       id="linearGradient2796"
       gradientUnits="userSpaceOnUse"
       gradientTransform="matrix(0.61228592,0.70567925,-0.70567925,0.61228592,77.02667,-94.34664)"
       x1="236.16283"
       y1="-15.940514"
       x2="239.66225"
       y2="-15.940514" />
    <linearGradient
       inkscape:collect="always"
       xlink:href="#linearGradient2125"
       id="linearGradient2798"
       gradientUnits="userSpaceOnUse"
       gradientTransform="matrix(0.61228592,0.70567925,-0.70567925,0.61228592,119.49767,-110.18743)"
       x1="236.16283"
       y1="-15.940514"
       x2="239.66225"
       y2="-15.940514" />
    <linearGradient
       inkscape:collect="always"
       xlink:href="#linearGradient2125"
       id="linearGradient2800"
       gradientUnits="userSpaceOnUse"
       gradientTransform="matrix(0.70567925,-0.61228592,0.61228592,0.70567925,65.629966,261.4641)"
       x1="236.16283"
       y1="-15.940514"
       x2="239.66225"
       y2="-15.940514" />
    <linearGradient
       inkscape:collect="always"
       xlink:href="#linearGradient7165"
       id="linearGradient2808"
       gradientUnits="userSpaceOnUse"
       gradientTransform="matrix(0.24719465,0,0,0.24719465,-118.09432,193.19581)"
       x1="235.90042"
       y1="-47.913715"
       x2="235.90042"
       y2="-20.800291" />
    <linearGradient
       inkscape:collect="always"
       xlink:href="#linearGradient2183"
       id="linearGradient2810"
       gradientUnits="userSpaceOnUse"
       gradientTransform="matrix(0.24719465,0,0,0.24719465,-118.09432,193.19581)"
       x1="279.48544"
       y1="-20.800291"
       x2="279.48544"
       y2="-47.913715" />
    <linearGradient
       inkscape:collect="always"
       id="linearGradient2183">
      <stop
         style="stop-color:#000000;stop-opacity:0.62517571;"
         offset="0"
         id="stop2173" />
      <stop
         style="stop-color:#000000;stop-opacity:0.47843137;"
         offset="0.13343254"
         id="stop2175" />
      <stop
         style="stop-color:#000000;stop-opacity:0.28235294;"
         offset="0.29126808"
         id="stop2177" />
      <stop
         style="stop-color:#000000;stop-opacity:0.11764706;"
         offset="0.54178184"
         id="stop2179" />
      <stop
         style="stop-color:#000000;stop-opacity:0;"
         offset="0.86446816"
         id="stop2181" />
      <stop
         style="stop-color:#000000;stop-opacity:0.03069582;"
         offset="1"
         id="stop2185" />
    </linearGradient>
    <linearGradient
       inkscape:collect="always"
       xlink:href="#linearGradient2303"
       id="linearGradient2812"
       gradientUnits="userSpaceOnUse"
       gradientTransform="matrix(0.26458333,0,0,0.26458333,-85.938014,131.42237)"
       x1="93.437889"
       y1="250.58759"
       x2="107.55349"
       y2="250.58759" />
    <linearGradient
       inkscape:collect="always"
       id="linearGradient2303">
      <stop
         style="stop-color:#a37348;stop-opacity:1;"
         offset="0"
         id="stop2299" />
      <stop
         style="stop-color:#b07c50;stop-opacity:1;"
         offset="0.08621209"
         id="stop2309" />
      <stop
         style="stop-color:#bf9673;stop-opacity:1;"
         offset="0.46719989"
         id="stop2307" />
      <stop
         style="stop-color:#b1825a;stop-opacity:1;"
         offset="0.90388501"
         id="stop2311" />
      <stop
         style="stop-color:#af6c47;stop-opacity:1;"
         offset="1"
         id="stop2301" />
    </linearGradient>
  </defs>
  <g
     inkscape:label="Layer 1"
     inkscape:groupmode="layer"
     id="layer1"
     transform="translate(-83.948799,-148.69405)">
    <rect
       style="fill:#ffffff;fill-opacity:1;stroke:#deddda;stroke-width:0;stroke-linecap:round;stroke-linejoin:round;stroke-dasharray:none;stroke-dashoffset:34.5;paint-order:markers stroke fill"
       id="rect2748"
       width="28.394344"
       height="19.854191"
       x="86.111794"
       y="154.30547"
       ry="2.7045727"
       rx="2.7045727"
       inkscape:export-filename="./rect14840.png"
       inkscape:export-xdpi="96"
       inkscape:export-ydpi="96" />
    <rect
       style="display:inline;opacity:0.487989;fill:url(#linearGradient2822);fill-opacity:1;stroke:none;stroke-width:0.0593849;stroke-linecap:butt;stroke-linejoin:miter;stroke-miterlimit:4;stroke-dasharray:none;stroke-dashoffset:0;stroke-opacity:1;marker:none;marker-start:none;marker-mid:none;marker-end:none;paint-order:normal;enable-background:new"
       id="rect2750"
       width="28.394344"
       height="20.666805"
       x="86.111794"
       y="153.49286"
       rx="2.7021375"
       ry="2.7021375" />
    <rect
       style="fill:#f6f5f4;fill-opacity:1;stroke:#c0bfbc;stroke-width:0.15875;stroke-linecap:round;stroke-linejoin:round;stroke-dasharray:none;stroke-dashoffset:34.5;stroke-opacity:1;paint-order:markers stroke fill"
       id="rect2752"
       width="28.394344"
       height="19.854191"
       x="86.111786"
       y="153.49286"
       ry="2.7045727"
       rx="2.7045727" />
    <path
       id="path2754"
       style="opacity:0.704367;fill:#62a0ea;stroke:#000000;stroke-width:0;stroke-linecap:round;stroke-linejoin:round;stroke-dashoffset:34.5;paint-order:markers stroke fill"
       d="m 86.111673,158.88022 v 7.00835 l 8.658905,7.20628 c 0.107042,0.0891 0.212746,0.1697 0.318841,0.25218 h 3.50883 l 2.073771,-2.34972 z" />
    <path
       id="path2756"
       style="opacity:0.704367;fill:#57e389;fill-opacity:1;stroke:#000000;stroke-width:0;stroke-linecap:round;stroke-linejoin:round;stroke-dashoffset:34.5;paint-order:markers stroke fill"
       d="m 88.159611,153.57563 c -1.178274,0.29243 -2.047938,1.35033 -2.047938,2.62155 l 2e-6,2.68304 14.560345,12.11709 3.5662,-4.04058 z" />
    <path
       id="path2758"
       style="opacity:0.704367;fill:url(#linearGradient2816);fill-opacity:1;stroke:#000000;stroke-width:0;stroke-linecap:round;stroke-linejoin:round;stroke-dashoffset:34.5;paint-order:markers stroke fill"
       d="m 88.816418,153.49295 c -0.227113,0 -0.446302,0.0304 -0.656807,0.0827 l 16.078609,13.3811 3.5667,-4.04058 -11.322819,-9.4232 z" />
    <path
       id="path2760"
       style="opacity:0.704367;fill:#ed333b;stroke:#000000;stroke-width:0;stroke-linecap:round;stroke-linejoin:round;stroke-dashoffset:34.5;paint-order:markers stroke fill"
       d="m 96.481582,153.49295 11.323338,9.4232 3.067,-3.47473 c 0.27675,-0.31353 -0.54161,-1.43247 -1.83503,-2.50889 l -4.13308,-3.43958 z" />
    <path
       id="path2762"
       style="opacity:0.04820736;fill:#000000;fill-opacity:1;stroke:#000000;stroke-width:0;stroke-linecap:round;stroke-linejoin:round;stroke-dasharray:none;stroke-dashoffset:34.5;paint-order:markers stroke fill"
       d="m 88.779961,153.49296 c -1.478076,0 -2.668182,1.1896 -2.668182,2.66768 v 1.53953 h 28.394191 v -1.53953 c 0,-1.47808 -1.1896,-2.66768 -2.66767,-2.66768 z" />
    <circle
       style="opacity:0.188923;fill:#7c7c7c;fill-opacity:1;stroke:#deddda;stroke-width:0;stroke-linecap:round;stroke-linejoin:round;stroke-dasharray:none;stroke-dashoffset:34.5;paint-order:markers stroke fill"
       id="circle2764"
       cx="112.13016"
       cy="155.71466"
       r="1.3718336" />
    <path
       d="m 111.48715,155.07146 h 0.1072 0.003 c 0.0272,0.001 0.0549,0.0138 0.0737,0.0335 l 0.45895,0.45895 0.4623,-0.45895 c 0.0285,-0.0247 0.0477,-0.0327 0.0737,-0.0335 h 0.1072 v 0.1072 c 0,0.0306 -0.004,0.059 -0.0268,0.0804 l -0.45895,0.45895 0.4556,0.4556 c 0.0201,0.0201 0.0301,0.0486 0.0301,0.0771 v 0.1072 h -0.1072 c -0.0285,0 -0.057,-0.01 -0.077,-0.0301 l -0.45895,-0.45895 -0.45895,0.45895 c -0.0201,0.0201 -0.0486,0.0301 -0.077,0.0301 h -0.1072 v -0.1072 c 0,-0.0285 0.0101,-0.057 0.0302,-0.0771 l 0.45895,-0.4556 -0.45895,-0.45895 c -0.0226,-0.0209 -0.0327,-0.0503 -0.0302,-0.0804 z m 0,0"
       fill="#222222"
       id="path2766"
       style="opacity:0.600755;fill:#000000;fill-opacity:1;stroke-width:0.1072" />
    <g
       id="g2776"
       transform="matrix(0.26153577,-0.04004218,0.04004218,0.26153577,44.519917,150.58273)">
      <rect
         style="fill:url(#linearGradient2794);fill-opacity:1;stroke:#000000;stroke-width:0;stroke-linecap:round;stroke-linejoin:round;stroke-dashoffset:34.5;paint-order:markers stroke fill"
         id="rect2768"
         width="3.2694347"
         height="19.100412"
         x="140.85608"
         y="199.86006"
         ry="1.7497108"
         rx="1.7497108"
         transform="rotate(-40.946696)" />
      <path
         id="path2770"
         style="fill:url(#linearGradient2796);fill-opacity:1;stroke:#000000;stroke-width:0;stroke-linecap:round;stroke-linejoin:round;stroke-dashoffset:34.5;paint-order:markers stroke fill"
         d="m 174.81516,112.92492 c -0.68403,0.59351 -0.75695,1.6224 -0.16344,2.30644 0.59351,0.68405 1.62121,0.75557 2.30524,0.16206 l 62.58494,-54.30211 0.25529,-3.91298 c -0.41843,-0.031 -0.84768,0.10012 -1.1911,0.39809 z" />
      <path
         id="path2772"
         style="fill:url(#linearGradient2798);fill-opacity:1;stroke:#000000;stroke-width:0;stroke-linecap:round;stroke-linejoin:round;stroke-dashoffset:34.5;paint-order:markers stroke fill"
         d="m 217.28565,97.08372 c -0.68404,0.59351 -0.75695,1.62239 -0.16343,2.30644 0.59351,0.68404 1.62239,0.75695 2.30643,0.16343 l 31.71973,-27.52177 c 0.34839,-0.30228 0.53556,-0.71767 0.55958,-1.14264 l -3.9104,-0.25511 1.35899,-1.17913 c -0.0509,0.0349 -0.10346,0.0656 -0.15117,0.107 z" />
      <path
         id="path2774"
         style="fill:url(#linearGradient2800);fill-opacity:1;stroke:#000000;stroke-width:0;stroke-linecap:round;stroke-linejoin:round;stroke-dashoffset:34.5;paint-order:markers stroke fill"
         d="m 217.28565,97.08372 c -0.0624,0.0542 -0.11796,0.11334 -0.17016,0.17421 l 0.36663,-0.31811 c -0.0676,0.0431 -0.13402,0.0897 -0.19647,0.1439 z m -0.56124,1.12958 c -0.0267,0.41357 0.1035,0.83766 0.39781,1.17686 l 10.80469,12.45275 c 0.59351,0.68405 1.62239,0.75696 2.30644,0.16344 0.68404,-0.59351 0.75695,-1.62239 0.16344,-2.30644 l -9.74635,-11.23298 z" />
    </g>
    <path
       id="path2778"
       style="fill:#000000;fill-opacity:0.215406;stroke:#000000;stroke-width:0;stroke-linecap:round;stroke-linejoin:round;stroke-dashoffset:34.5;paint-order:markers stroke fill"
       d="m 109.5249,155.93476 c -0.0656,0.005 -0.12882,0.0273 -0.18655,0.062 -0.011,0.006 -0.0215,0.0133 -0.0319,0.0206 -0.006,0.004 -0.0124,0.008 -0.0183,0.0133 -0.0209,0.0165 -0.0409,0.035 -0.0588,0.0561 l -14.46731,17.03023 c -0.155133,0.18261 -0.132723,0.45412 0.04989,0.60925 0.18262,0.15514 0.45412,0.13272 0.609253,-0.0499 l 14.187417,-16.70037 2.54082,2.15853 -6.9141,8.13867 c -0.0142,0.0167 -0.0263,0.0342 -0.0375,0.0523 l 0.008,-0.009 c -0.0551,0.0835 -0.0797,0.18 -0.0714,0.27442 0.002,0.0242 0.007,0.0481 0.0131,0.0717 7.5e-4,0.004 0.001,0.007 0.002,0.0106 0.007,0.0248 0.0167,0.0492 0.0283,0.0725 1.2e-4,5.1e-4 5.2e-4,0.002 8.3e-4,0.003 0.0127,0.0251 0.0283,0.0493 0.046,0.0719 0.0177,0.0224 0.0382,0.0436 0.0609,0.0628 l 3.32447,2.8243 c 0.18261,0.15513 0.45411,0.13272 0.60924,-0.0499 0.15514,-0.18262 0.13318,-0.4547 -0.0495,-0.60984 l -2.99511,-2.54432 6.91422,-8.13812 c 0.079,-0.093 0.11108,-0.20909 0.10034,-0.3212 l -0.0124,8.4e-4 c -0.0116,-0.11623 -0.0688,-0.2308 -0.16856,-0.31557 l -3.14591,-2.67231 c -0.0992,-0.0843 -0.22059,-0.12206 -0.33654,-0.11525 z" />
    <path
       id="path2780"
       style="fill:#62a0ea;stroke:#000000;stroke-width:0;stroke-linecap:round;stroke-linejoin:round;stroke-dashoffset:34.5;paint-order:markers stroke fill"
       d="m 93.020134,170.61017 2.99922,-3.53047 v 0 l 5.107946,4.33932 v 0 l -2.999223,3.53047 c -0.27064,0.31858 -0.74499,0.35717 -1.063568,0.0865 l -3.957842,-3.36228 c -0.318578,-0.27064 -0.357169,-0.74499 -0.08653,-1.06357 z"
       sodipodi:nodetypes="sccccssss" />
    <rect
       style="fill:#57e389;fill-opacity:1;stroke:#000000;stroke-width:0;stroke-linecap:round;stroke-linejoin:round;stroke-dashoffset:34.5;paint-order:markers stroke fill"
       id="rect2782"
       width="5.3869896"
       height="6.7022934"
       x="-65.167969"
       y="181.35182"
       ry="0"
       rx="0"
       transform="rotate(-49.651317)" />
    <path
       id="path2784"
       style="fill:#ed333b;stroke:#000000;stroke-width:0;stroke-linecap:round;stroke-linejoin:round;stroke-dashoffset:34.5;paint-order:markers stroke fill"
       d="m 102.99483,158.86865 2.99923,-3.53048 c 0.27064,-0.31857 0.74499,-0.35717 1.06357,-0.0865 l 3.95784,3.36228 c 0.31858,0.27064 0.35717,0.74499 0.0865,1.06357 l -2.99922,3.53048 v 0 l -4.5329,-3.8508 c -0.31857,-0.27064 -0.84568,-0.16994 -0.57505,-0.48852 z"
       sodipodi:nodetypes="sssssccss" />
    <rect
       style="fill:url(#linearGradient2808);fill-opacity:1;stroke:#000000;stroke-width:0;stroke-linecap:round;stroke-linejoin:round;stroke-dashoffset:34.5;paint-order:markers stroke fill"
       id="rect2786"
       width="5.3869896"
       height="6.7022934"
       x="-59.780991"
       y="181.35182"
       ry="0"
       rx="0"
       transform="rotate(-49.651317)" />
    <rect
       style="opacity:0.559734;fill:url(#linearGradient2810);fill-opacity:1;stroke:#000000;stroke-width:0;stroke-linecap:round;stroke-linejoin:round;stroke-dashoffset:34.5;paint-order:markers stroke fill"
       id="rect2788"
       width="21.54805"
       height="6.7022934"
       x="-70.554962"
       y="181.35182"
       ry="0.80761832"
       rx="0.80761832"
       transform="rotate(-49.651317)" />
    <rect
       style="fill:url(#linearGradient2812);fill-opacity:1;stroke:#000000;stroke-width:0;stroke-linecap:round;stroke-linejoin:round;stroke-dashoffset:34.5;paint-order:markers stroke fill"
       id="rect2790"
       width="3.7347534"
       height="11.715816"
       x="-61.215897"
       y="191.86578"
       ry="1.43469"
       rx="1.43469"
       transform="rotate(-49.651317)" />
  </g>
</svg>
