<?xml version="1.0" encoding="UTF-8"?>
<svg height="128px" viewBox="0 0 128 128" width="128px" xmlns="http://www.w3.org/2000/svg" xmlns:xlink="http://www.w3.org/1999/xlink">
    <clipPath id="a">
        <path d="m 8 28 h 112 v 16 h -112 z m 0 0"/>
    </clipPath>
    <clipPath id="b">
        <path d="m 16 28 h 96 c 4.417969 0 8 3.582031 8 8 v 72 c 0 4.417969 -3.582031 8 -8 8 h -96 c -4.417969 0 -8 -3.582031 -8 -8 v -72 c 0 -4.417969 3.582031 -8 8 -8 z m 0 0"/>
    </clipPath>
    <filter id="c" height="100%" width="100%" x="0%" y="0%">
        <feColorMatrix in="SourceGraphic" type="matrix" values="0 0 0 0 1 0 0 0 0 1 0 0 0 0 1 0 0 0 1 0"/>
    </filter>
    <mask id="d">
        <g filter="url(#c)">
            <rect fill-opacity="0.7" height="128" width="128"/>
        </g>
    </mask>
    <clipPath id="e">
        <path d="m 16 44 h 40 v 74 h -40 z m 0 0"/>
    </clipPath>
    <clipPath id="f">
        <path d="m 24 44 h 96 c 4.417969 0 8 3.582031 8 8 v 72 c 0 4.417969 -3.582031 8 -8 8 h -96 c -4.417969 0 -8 -3.582031 -8 -8 v -72 c 0 -4.417969 3.582031 -8 8 -8 z m 0 0"/>
    </clipPath>
    <clipPath id="g">
        <path d="m 16 44 h 52 v 61 h -52 z m 0 0"/>
    </clipPath>
    <clipPath id="h">
        <path d="m 24 44 h 96 c 4.417969 0 8 3.582031 8 8 v 72 c 0 4.417969 -3.582031 8 -8 8 h -96 c -4.417969 0 -8 -3.582031 -8 -8 v -72 c 0 -4.417969 3.582031 -8 8 -8 z m 0 0"/>
    </clipPath>
    <clipPath id="i">
        <path d="m 16 44 h 78 v 36 h -78 z m 0 0"/>
    </clipPath>
    <clipPath id="j">
        <path d="m 24 44 h 96 c 4.417969 0 8 3.582031 8 8 v 72 c 0 4.417969 -3.582031 8 -8 8 h -96 c -4.417969 0 -8 -3.582031 -8 -8 v -72 c 0 -4.417969 3.582031 -8 8 -8 z m 0 0"/>
    </clipPath>
    <clipPath id="k">
        <path d="m 16 44 h 65 v 48 h -65 z m 0 0"/>
    </clipPath>
    <clipPath id="l">
        <path d="m 24 44 h 96 c 4.417969 0 8 3.582031 8 8 v 72 c 0 4.417969 -3.582031 8 -8 8 h -96 c -4.417969 0 -8 -3.582031 -8 -8 v -72 c 0 -4.417969 3.582031 -8 8 -8 z m 0 0"/>
    </clipPath>
    <clipPath id="m">
        <rect height="152" width="192"/>
    </clipPath>
    <linearGradient id="n" gradientUnits="userSpaceOnUse">
        <stop offset="0" stop-color="#9a9996"/>
        <stop offset="0.5" stop-color="#ffffff"/>
        <stop offset="1" stop-color="#c0bfbc"/>
    </linearGradient>
    <linearGradient id="o" gradientTransform="matrix(-0.419845 0.419845 1.06066 1.06066 -134.598585 -218.654255)" x1="46" x2="46" xlink:href="#n" y1="232" y2="228"/>
    <linearGradient id="p" gradientTransform="matrix(0.839689 -0.839689 -1.06066 -1.06066 296.559305 355.69332)" x1="46" x2="46" xlink:href="#n" y1="232" y2="228"/>
    <linearGradient id="q" gradientTransform="matrix(-0.574524 -0.574524 -1.06066 1.06066 372.927075 -159.787415)" x1="46" x2="46" xlink:href="#n" y1="232" y2="228"/>
    <linearGradient id="r" gradientTransform="matrix(-0.342728 -0.342728 -1.06066 1.06066 338.083292 -133.818979)" x1="46" x2="46" xlink:href="#n" y1="232" y2="228"/>
    <linearGradient id="s" gradientTransform="matrix(1.06066 -1.06066 1.099944 1.099944 -108.337746 119.79479)" gradientUnits="userSpaceOnUse" x1="81.999992" x2="81.999992" y1="47.000011" y2="65.000015">
        <stop offset="0" stop-color="#1c71d8"/>
        <stop offset="0.5" stop-color="#3584e4"/>
        <stop offset="1" stop-color="#1a5fb4"/>
    </linearGradient>
    <linearGradient id="t" gradientTransform="matrix(1.06066 -1.06066 1.099944 1.099944 -95.609824 107.066868)" gradientUnits="userSpaceOnUse" x1="81.999992" x2="81.999992" y1="47.000011" y2="65.000015">
        <stop offset="0" stop-color="#2ec27e"/>
        <stop offset="0.5" stop-color="#33d17a"/>
        <stop offset="1" stop-color="#26a269"/>
    </linearGradient>
    <linearGradient id="u" gradientTransform="matrix(1.06066 -1.06066 1.099944 1.099944 -70.153979 81.611024)" gradientUnits="userSpaceOnUse" x1="81.999969" x2="81.999969" y1="47.000011" y2="65.000015">
        <stop offset="0" stop-color="#c01c28"/>
        <stop offset="0.5" stop-color="#e01b24"/>
        <stop offset="1" stop-color="#a51d2d"/>
    </linearGradient>
    <linearGradient id="v" gradientTransform="matrix(1.06066 -1.06066 1.099944 1.099944 -82.881902 94.338946)" gradientUnits="userSpaceOnUse" x1="81.999969" x2="81.999969" y1="47.000011" y2="65.000015">
        <stop offset="0" stop-color="#f5c211"/>
        <stop offset="0.5" stop-color="#f6d32d"/>
        <stop offset="1" stop-color="#e5a50a"/>
    </linearGradient>
    <linearGradient id="w" gradientTransform="matrix(0.606092 -0.606092 0.74639 0.74639 -415.915158 194.596429)" gradientUnits="userSpaceOnUse" x1="483.446625" x2="497.446625" y1="288.67099" y2="288.67099">
        <stop offset="0" stop-color="#865e3c"/>
        <stop offset="0.5" stop-color="#b5835a"/>
        <stop offset="1" stop-color="#865e3c"/>
    </linearGradient>
    <path d="m 16 42 h 96 c 4.417969 0 8 3.582031 8 8 v 60 c 0 4.417969 -3.582031 8 -8 8 h -96 c -4.417969 0 -8 -3.582031 -8 -8 v -60 c 0 -4.417969 3.582031 -8 8 -8 z m 0 0" fill="#d5d3cf"/>
    <path d="m 16 28 h 96 c 4.417969 0 8 3.582031 8 8 v 72 c 0 4.417969 -3.582031 8 -8 8 h -96 c -4.417969 0 -8 -3.582031 -8 -8 v -72 c 0 -4.417969 3.582031 -8 8 -8 z m 0 0" fill="#fafafa"/>
    <g clip-path="url(#a)">
        <g clip-path="url(#b)">
            <path d="m 8 28 h 112 v 16 h -112 z m 0 0" fill="#ebebeb"/>
        </g>
    </g>
    <path d="m 117 36 c 0 2.761719 -2.238281 5 -5 5 s -5 -2.238281 -5 -5 s 2.238281 -5 5 -5 s 5 2.238281 5 5 z m 0 0" fill="#d8d8d8"/>
    <path d="m 109.503906 33.5 h 0.425782 c 0.105468 0.003906 0.214843 0.054688 0.289062 0.128906 l 1.78125 1.785156 l 1.796875 -1.785156 c 0.109375 -0.09375 0.1875 -0.125 0.285156 -0.128906 h 0.417969 v 0.417969 c 0 0.117187 -0.015625 0.226562 -0.105469 0.3125 l -1.78125 1.78125 l 1.769531 1.773437 c 0.078126 0.078125 0.117188 0.1875 0.117188 0.296875 v 0.417969 h -0.417969 c -0.109375 0 -0.21875 -0.039062 -0.296875 -0.117188 l -1.785156 -1.785156 l -1.78125 1.785156 c -0.078125 0.078126 -0.191406 0.117188 -0.300781 0.117188 h -0.417969 v -0.417969 c 0 -0.109375 0.042969 -0.21875 0.117188 -0.296875 l 1.785156 -1.773437 l -1.785156 -1.78125 c -0.085938 -0.082031 -0.125 -0.195313 -0.117188 -0.3125 z m 0 0" fill="#444444"/>
    <g clip-path="url(#m)" mask="url(#d)" transform="matrix(1 0 0 1 -8 -16)">
        <g clip-path="url(#e)">
            <g clip-path="url(#f)">
                <path d="m -25.410156 49.503906 l 12.726562 -12.730468 l 67.882813 67.882812 l -12.726563 12.726562 z m 0 0" fill="#3584e4"/>
            </g>
        </g>
        <g clip-path="url(#g)">
            <g clip-path="url(#h)">
                <path d="m -12.683594 36.773438 l 12.730469 -12.726563 l 67.882813 67.882813 l -12.730469 12.726562 z m 0 0" fill="#33d17a"/>
            </g>
        </g>
        <g clip-path="url(#i)">
            <g clip-path="url(#j)">
                <path d="m 12.773438 11.320312 l 12.726562 -12.730468 l 67.882812 67.882812 l -12.726562 12.726563 z m 0 0" fill="#e01b24"/>
            </g>
        </g>
        <g clip-path="url(#k)">
            <g clip-path="url(#l)">
                <path d="m 0.046875 24.046875 l 12.726563 -12.726563 l 67.882812 67.878907 l -12.726562 12.730469 z m 0 0" fill="#f6d32d"/>
            </g>
        </g>
    </g>
    <path d="m 87.609375 42.796875 l -8.484375 8.488281 c -1.171875 1.171875 -1.171875 3.070313 0 4.242188 s 3.070312 1.171875 4.242188 0 l 8.484374 -8.484375 c 1.171876 -1.171875 1.171876 -3.074219 0 -4.246094 c -1.171874 -1.171875 -3.070312 -1.171875 -4.242187 0 z m 0 0" fill="url(#o)"/>
    <path d="m 76.296875 92.296875 l 30.40625 -30.40625 c 1.167969 -1.171875 1.167969 -3.070313 0 -4.242187 c -1.171875 -1.171876 -3.074219 -1.171876 -4.246094 0 l -30.402343 30.40625 c -1.171876 1.171874 -1.171876 3.070312 0 4.242187 c 1.167968 1.171875 3.070312 1.171875 4.242187 0 z m 0 0" fill="url(#p)"/>
    <path d="m 89.730469 41.917969 v 7.246093 l 10.609375 10.605469 h 7.242187 c 0 -0.765625 -0.292969 -1.535156 -0.878906 -2.121093 l -14.851563 -14.847657 c -0.585937 -0.589843 -1.355468 -0.882812 -2.121093 -0.882812 z m 0 0" fill="url(#q)"/>
    <path d="m 78.417969 90.175781 h -7.246094 c 0 0.765625 0.292969 1.535157 0.882813 2.121094 l 9.898437 9.898437 c 1.175781 1.175782 3.066406 1.175782 4.242187 0 c 1.175782 -1.175781 1.175782 -3.066406 0 -4.242187 z m 0 0" fill="url(#r)"/>
    <path d="m 28.210938 86.640625 l 4.246093 -4.242187 l 4.242188 -4.246094 l 19.796875 19.800781 l -8.484375 8.484375 c -2.351563 2.351562 -6.136719 2.351562 -8.484375 0 l -11.316406 -11.3125 c -2.347657 -2.351562 -2.347657 -6.136719 0 -8.484375 z m 0 0" fill="url(#s)"/>
    <path d="m 36.699219 78.152344 l 12.726562 -12.726563 l 19.800781 19.800781 l -12.730468 12.726563 z m 0 0" fill="url(#t)"/>
    <path d="m 66.394531 48.457031 l 4.246094 -4.242187 c 2.347656 -2.351563 6.132813 -2.351563 8.484375 0 l 11.3125 11.3125 c 2.351562 2.351562 2.351562 6.132812 0 8.484375 l -8.484375 8.484375 l -19.800781 -19.796875 z m 0 0" fill="url(#u)"/>
    <path d="m 49.425781 65.425781 l 12.726563 -12.726562 l 19.800781 19.796875 l -12.726563 12.730468 z m 0 0" fill="url(#v)"/>
    <path d="m 83.367188 99.367188 c 2.34375 -2.34375 6.140624 -2.34375 8.484374 0 l 18.386719 18.382812 c 2.339844 2.34375 2.339844 6.144531 0 8.488281 c -2.34375 2.34375 -6.144531 2.34375 -8.488281 0 l -18.382812 -18.386719 c -2.34375 -2.34375 -2.34375 -6.140624 0 -8.484374 z m 0 0" fill="url(#w)"/>
    <g fill="#865e3c">
        <path d="m 96.800781 117.042969 l 4.242188 -4.242188 c 0.390625 -0.390625 1.023437 -0.390625 1.414062 0 s 0.390625 1.023438 0 1.414063 l -4.242187 4.246094 c -0.390625 0.386718 -1.023438 0.386718 -1.414063 0 c -0.390625 -0.390626 -0.390625 -1.027344 0 -1.417969 z m 0 0"/>
        <path d="m 99.628906 119.875 l 4.242188 -4.246094 c 0.390625 -0.390625 1.023437 -0.390625 1.414062 0 s 0.390625 1.023438 0 1.414063 l -4.242187 4.246093 c -0.390625 0.390626 -1.023438 0.390626 -1.414063 0 c -0.390625 -0.390624 -0.390625 -1.023437 0 -1.414062 z m 0 0"/>
        <path d="m 102.457031 122.703125 l 4.242188 -4.242187 c 0.390625 -0.390626 1.027343 -0.390626 1.417969 0 c 0.390624 0.386718 0.390624 1.023437 0 1.414062 l -4.246094 4.242188 c -0.390625 0.390624 -1.023438 0.390624 -1.414063 0 c -0.390625 -0.390626 -0.390625 -1.023438 0 -1.414063 z m 0 0"/>
    </g>
</svg>
