<?xml version="1.0" encoding="UTF-8" standalone="no"?>
<svg
   height="16"
   width="16"
   version="1.1"
   id="svg4"
   sodipodi:docname="toc_bullet.svg"
   inkscape:version="1.1-beta1 (77e7b44db3, 2021-03-28)"
   xmlns:inkscape="http://www.inkscape.org/namespaces/inkscape"
   xmlns:sodipodi="http://sodipodi.sourceforge.net/DTD/sodipodi-0.dtd"
   xmlns="http://www.w3.org/2000/svg"
   xmlns:svg="http://www.w3.org/2000/svg">
  <defs
     id="defs8" />
  <sodipodi:namedview
     id="namedview6"
     pagecolor="#505050"
     bordercolor="#ffffff"
     borderopacity="1"
     objecttolerance="10.0"
     gridtolerance="10.0"
     guidetolerance="10.0"
     inkscape:pageshadow="0"
     inkscape:pageopacity="0"
     inkscape:pagecheckerboard="1"
     showgrid="true"
     inkscape:current-layer="svg4">
    <inkscape:grid
       type="xygrid"
       id="grid49" />
  </sodipodi:namedview>
  <path
     id="path2"
     sodipodi:type="inkscape:offset"
     inkscape:radius="-0.81220347"
     inkscape:original="M 6.6621094 4.5859375 A 1.143 1.143 0 0 0 5.8242188 4.9199219 L 5.2929688 5.4511719 C 4.8349687 5.9091719 4.8510781 6.660625 5.3300781 7.140625 L 8.203125 10.011719 L 5.3300781 12.884766 C 4.8510781 13.363766 4.8349688 14.115219 5.2929688 14.574219 L 5.8242188 15.105469 C 6.2822188 15.563469 7.036625 15.547359 7.515625 15.068359 L 11.583984 10.998047 A 1.22 1.22 0 0 0 11.931641 10.011719 A 1.22 1.22 0 0 0 11.583984 9.0273438 L 7.515625 4.9570312 A 1.249 1.249 0 0 0 6.6621094 4.5859375 z "
     d="m 6.6386719,5.3984375 c -0.088798,-0.00181 -0.1773948,0.032925 -0.2402344,0.095703 l -0.53125,0.53125 C 5.7300188,6.1625593 5.7182537,6.3799747 5.9042969,6.5664062 L 8.7773438,9.4375 a 0.81228469,0.81228469 0 0 1 0,1.148438 L 5.9042969,13.458984 C 5.719186,13.644095 5.7289844,13.861495 5.8671875,14 l 0.53125,0.53125 c 0.135934,0.135934 0.3590378,0.146822 0.5429687,-0.03711 l 4.0664058,-4.06836 0.002,-0.002 c 0.08366,-0.0854 0.125702,-0.209206 0.113281,-0.328125 a 0.81228469,0.81228469 0 0 1 0,-0.1679686 c 0.01222,-0.1187076 -0.0298,-0.2409206 -0.113281,-0.3261719 l -0.002,-0.00195 L 6.9414062,5.53125 A 0.81228469,0.81228469 0 0 1 6.9375,5.5273438 C 6.8598316,5.4486568 6.7511214,5.4020564 6.640625,5.3984375 Z"
     style="fill:#deddda" />
</svg>
