<svg xmlns="http://www.w3.org/2000/svg" width="16" height="16">
    <path fill-opacity=".5" d="M1 11.5 7 15V8L1 4.5z" style="fill:#2e3436;fill-opacity:.5"/>
    <path fill-opacity=".35" d="M1 4.5 7 1l6 3.5L7 8z" style="fill:#2e3436;fill-opacity:.35"/>
    <path d="M6.824.016a1 1 0 0 0-.328.12l-5.994 3.5-.006.004A1 1 0 0 0 0 4.5v7a1 1 0 0 0 .496.863l6 3.5a1 1 0 0 0 .504.12V9.5C7 8.132 8.132 7 9.5 7h1.2l2.804-1.637a1 1 0 0 0 0-1.726l-6-3.5a1 1 0 0 0-.68-.121ZM7 2.158 11.016 4.5 7 6.842 2.984 4.5ZM2 6.24l4 2.334v4.686l-4-2.334Z" style="fill:#2e3436;fill-opacity:1"/>
    <path d="M9.5 8C8.668 8 8 8.668 8 9.5v5c0 .832.668 1.5 1.5 1.5h5c.832 0 1.5-.668 1.5-1.5v-5c0-.832-.668-1.5-1.5-1.5ZM11 9h2v2.5s0 .5-.5.5h-1c-.5 0-.5-.5-.5-.5Zm.5 4h1c.277 0 .5.223.5.5v1c0 .277-.223.5-.5.5h-1a.498.498 0 0 1-.5-.5v-1c0-.277.223-.5.5-.5Zm0 0" style="fill:#2e3436;fill-opacity:1"/>
</svg>
