<svg xmlns="http://www.w3.org/2000/svg" width="16" height="16">
    <g fill="#2e3436">
        <path d="M10.313 9C9.584 9 9 9.584 9 10.313v4.374C9 15.416 9.584 16 10.313 16h4.374c.729 0 1.313-.584 1.313-1.313v-4.374C16 9.584 15.416 9 14.687 9zm1.312.875h1.75v2.188s0 .437-.438.437h-.874c-.438 0-.438-.438-.438-.438zm.438 3.5h.874c.243 0 .438.195.438.438v.874a.436.436 0 0 1-.438.438h-.874a.436.436 0 0 1-.438-.438v-.874c0-.243.195-.438.438-.438zm0 0"/>
        <path d="M6.824.016a1 1 0 0 0-.328.119l-6 3.5A1 1 0 0 0 0 4.512V11.5a1 1 0 0 0 .496.863l6 3.5A1 1 0 0 0 8 15V8.574l4-2.334V8h2V4.5a1 1 0 0 0-.496-.865l-6-3.5a1 1 0 0 0-.68-.12zM7 2.156l4.016 2.342L7 6.84 2.984 4.498zM2 6.24l4 2.334v4.684l-4-2.334z"/>
        <path d="M7 1 1 4.5 7 8l6-3.5z" opacity=".3" style="opacity:.35"/>
        <path d="M1 4.5v7L7 15V8z" opacity=".6" style="opacity:.5"/>
    </g>
</svg>
