<?xml version="1.0" encoding="UTF-8"?>
<svg xmlns="http://www.w3.org/2000/svg" height="16px" viewBox="0 0 16 16" width="16px"><g fill="#222222"><path d="m 2.96875 2.972656 c -0.535156 0 -0.96875 0.433594 -0.96875 0.96875 v 5.871094 c 0 0.078125 0.007812 0.152344 0.027344 0.21875 c 0.265625 2.796875 2.605468 4.96875 5.472656 4.96875 h 1 c 2.867188 0 5.207031 -2.171875 5.472656 -4.96875 c 0.019532 -0.066406 0.027344 -0.140625 0.027344 -0.21875 v -5.871094 c 0 -0.535156 -0.433594 -0.96875 -0.96875 -0.96875 z m 5 1.027344 h 0.0625 c 0.535156 0 0.96875 0.429688 0.96875 0.96875 v 3.0625 c 0 0.535156 -0.433594 0.96875 -0.96875 0.96875 h -0.0625 c -0.535156 0 -0.96875 -0.433594 -0.96875 -0.96875 v -3.0625 c 0 -0.539062 0.433594 -0.96875 0.96875 -0.96875 z m 0 6 h 0.0625 c 0.535156 0 0.96875 0.429688 0.96875 0.96875 v 0.0625 c 0 0.535156 -0.433594 0.96875 -0.96875 0.96875 h -0.0625 c -0.535156 0 -0.96875 -0.433594 -0.96875 -0.96875 v -0.0625 c 0 -0.539062 0.433594 -0.96875 0.96875 -0.96875 z m 0 0"/><path d="m 6.5 0.402344 c -0.929688 0.535156 -1.5 1.527344 -1.5 2.597656 h 6 c 0 -1.070312 -0.570312 -2.0625 -1.5 -2.597656 s -2.070312 -0.535156 -3 0 z m -6 4.597656 c -0.277344 0 -0.5 0.222656 -0.5 0.5 s 0.222656 0.5 0.5 0.5 h 2 c 0.277344 0 0.5 -0.222656 0.5 -0.5 s -0.222656 -0.5 -0.5 -0.5 z m 13 0 c -0.277344 0 -0.5 0.222656 -0.5 0.5 s 0.222656 0.5 0.5 0.5 h 2 c 0.277344 0 0.5 -0.222656 0.5 -0.5 s -0.222656 -0.5 -0.5 -0.5 z m -13 2 c -0.277344 0 -0.5 0.222656 -0.5 0.5 s 0.222656 0.5 0.5 0.5 h 2 c 0.277344 0 0.5 -0.222656 0.5 -0.5 s -0.222656 -0.5 -0.5 -0.5 z m 13 0 c -0.277344 0 -0.5 0.222656 -0.5 0.5 s 0.222656 0.5 0.5 0.5 h 2 c 0.277344 0 0.5 -0.222656 0.5 -0.5 s -0.222656 -0.5 -0.5 -0.5 z m -13 2 c -0.277344 0 -0.5 0.222656 -0.5 0.5 s 0.222656 0.5 0.5 0.5 h 2 c 0.277344 0 0.5 -0.222656 0.5 -0.5 s -0.222656 -0.5 -0.5 -0.5 z m 13 0 c -0.277344 0 -0.5 0.222656 -0.5 0.5 s 0.222656 0.5 0.5 0.5 h 2 c 0.277344 0 0.5 -0.222656 0.5 -0.5 s -0.222656 -0.5 -0.5 -0.5 z m 0 0"/></g></svg>
