<svg xmlns="http://www.w3.org/2000/svg" width="16" height="16">
    <g fill="#2e3436">
        <path d="M2.969 2.973A.969.969 0 0 0 2 3.94v5.872a.78.78 0 0 0 .027.218A5.484 5.484 0 0 0 7.5 15h1a5.484 5.484 0 0 0 5.473-4.969.78.78 0 0 0 .027-.219v-5.87a.969.969 0 0 0-.969-.97zm5 1.027h.062c.535 0 .969.43.969.969V8.03a.969.969 0 0 1-.969.97H7.97A.969.969 0 0 1 7 8.031V4.97c0-.54.434-.969.969-.969zm0 6h.062c.535 0 .969.43.969.969v.062a.969.969 0 0 1-.969.969H7.97a.969.969 0 0 1-.97-.969v-.062c0-.54.434-.969.969-.969zm0 0"/>
        <path d="M6.5.402A2.997 2.997 0 0 0 5 3h6C11 1.93 10.43.937 9.5.402s-2.07-.535-3 0zM.5 5a.499.499 0 1 0 0 1h2a.499.499 0 1 0 0-1zm13 0a.499.499 0 1 0 0 1h2a.499.499 0 1 0 0-1zM.5 7a.499.499 0 1 0 0 1h2a.499.499 0 1 0 0-1zm13 0a.499.499 0 1 0 0 1h2a.499.499 0 1 0 0-1zM.5 9a.499.499 0 1 0 0 1h2a.499.499 0 1 0 0-1zm13 0a.499.499 0 1 0 0 1h2a.499.499 0 1 0 0-1zm0 0"/>
    </g>
</svg>
