<svg xmlns="http://www.w3.org/2000/svg" width="16" height="16">
    <filter id="a" width="100%" height="100%" x="0%" y="0%">
        <feColorMatrix in="SourceGraphic" values="0 0 0 0 1 0 0 0 0 1 0 0 0 0 1 0 0 0 1 0"/>
    </filter>
    <mask id="c">
        <g filter="url(#a)">
            <path fill-opacity=".3" d="M0 0h16v16H0z"/>
        </g>
    </mask>
    <clipPath id="b">
        <path d="M0 0h1600v1200H0z"/>
    </clipPath>
    <mask id="e">
        <g filter="url(#a)">
            <path fill-opacity=".05" d="M0 0h16v16H0z"/>
        </g>
    </mask>
    <clipPath id="d">
        <path d="M0 0h1600v1200H0z"/>
    </clipPath>
    <mask id="g">
        <g filter="url(#a)">
            <path fill-opacity=".05" d="M0 0h16v16H0z"/>
        </g>
    </mask>
    <clipPath id="f">
        <path d="M0 0h1600v1200H0z"/>
    </clipPath>
    <mask id="i">
        <g filter="url(#a)">
            <path fill-opacity=".05" d="M0 0h16v16H0z"/>
        </g>
    </mask>
    <clipPath id="h">
        <path d="M0 0h1600v1200H0z"/>
    </clipPath>
    <mask id="k">
        <g filter="url(#a)">
            <path fill-opacity=".05" d="M0 0h16v16H0z"/>
        </g>
    </mask>
    <clipPath id="j">
        <path d="M0 0h1600v1200H0z"/>
    </clipPath>
    <mask id="m">
        <g filter="url(#a)">
            <path fill-opacity=".05" d="M0 0h16v16H0z"/>
        </g>
    </mask>
    <clipPath id="l">
        <path d="M0 0h1600v1200H0z"/>
    </clipPath>
    <mask id="o">
        <g filter="url(#a)">
            <path fill-opacity=".05" d="M0 0h16v16H0z"/>
        </g>
    </mask>
    <clipPath id="n">
        <path d="M0 0h1600v1200H0z"/>
    </clipPath>
    <mask id="q">
        <g filter="url(#a)">
            <path fill-opacity=".3" d="M0 0h16v16H0z"/>
        </g>
    </mask>
    <clipPath id="p">
        <path d="M0 0h1600v1200H0z"/>
    </clipPath>
    <mask id="s">
        <g filter="url(#a)">
            <path fill-opacity=".5" d="M0 0h16v16H0z"/>
        </g>
    </mask>
    <clipPath id="r">
        <path d="M0 0h1600v1200H0z"/>
    </clipPath>
    <path fill="#2e3436" d="M10 4v1c0 .258.129.527.313.719L12.563 8l-2.25 2.281c-.184.192-.313.461-.313.719v1h1c.309 0 .55-.09.75-.281L15.406 8 11.75 4.281C11.55 4.09 11.309 4 11 4zM6 4v1c0 .258-.129.527-.313.719L3.438 8l2.25 2.281c.184.192.313.461.313.719v1H5c-.309 0-.55-.09-.75-.281L.594 8 4.25 4.281C4.45 4.09 4.691 4 5 4zm0 0"/>
    <g clip-path="url(#b)" mask="url(#c)" transform="translate(-120 -464)">
        <path fill="#2e3436" d="M562.46 212.059h10.45c-1.183.492-1.297 2.46 0 3h-10.45zm0 0"/>
    </g>
    <g clip-path="url(#d)" mask="url(#e)" transform="translate(-120 -464)">
        <path fill="#2e3436" fill-rule="evenodd" d="M16 748h1v1h-1zm0 0"/>
    </g>
    <g clip-path="url(#f)" mask="url(#g)" transform="translate(-120 -464)">
        <path fill="#2e3436" fill-rule="evenodd" d="M17 747h1v1h-1zm0 0"/>
    </g>
    <g clip-path="url(#h)" mask="url(#i)" transform="translate(-120 -464)">
        <path fill="#2e3436" fill-rule="evenodd" d="M18 750h1v1h-1zm0 0"/>
    </g>
    <g clip-path="url(#j)" mask="url(#k)" transform="translate(-120 -464)">
        <path fill="#2e3436" fill-rule="evenodd" d="M16 750h1v1h-1zm0 0"/>
    </g>
    <g clip-path="url(#l)" mask="url(#m)" transform="translate(-120 -464)">
        <path fill="#2e3436" fill-rule="evenodd" d="M17 751h1v1h-1zm0 0"/>
    </g>
    <g clip-path="url(#n)" mask="url(#o)" transform="translate(-120 -464)">
        <path fill="#2e3436" fill-rule="evenodd" d="M19 751h1v1h-1zm0 0"/>
    </g>
    <g clip-path="url(#p)" mask="url(#q)" transform="translate(-120 -464)">
        <path fill="#2e3436" d="M136 776v7h7v-7zm0 0"/>
    </g>
    <g clip-path="url(#r)" mask="url(#s)" transform="translate(-120 -464)">
        <path fill="#2e3436" d="M219 758h3v12h-3zm0 0"/>
    </g>
</svg>
