<?xml version="1.0" encoding="UTF-8"?>
<svg xmlns="http://www.w3.org/2000/svg" xmlns:xlink="http://www.w3.org/1999/xlink" height="16px" viewBox="0 0 16 16" width="16px"><filter id="a" height="100%" width="100%" x="0%" y="0%"><feColorMatrix color-interpolation-filters="sRGB" values="0 0 0 0 1 0 0 0 0 1 0 0 0 0 1 0 0 0 1 0"/></filter><mask id="b"><g filter="url(#a)"><path d="m -1.6 -1.6 h 19.2 v 19.2 h -19.2 z" fill-opacity="0.5"/></g></mask><clipPath id="c"><path d="m 0 0 h 1600 v 1200 h -1600 z"/></clipPath><mask id="d"><g filter="url(#a)"><path d="m -1.6 -1.6 h 19.2 v 19.2 h -19.2 z" fill-opacity="0.7"/></g></mask><clipPath id="e"><path d="m 0 0 h 1600 v 1200 h -1600 z"/></clipPath><mask id="f"><g filter="url(#a)"><path d="m -1.6 -1.6 h 19.2 v 19.2 h -19.2 z" fill-opacity="0.35"/></g></mask><clipPath id="g"><path d="m 0 0 h 1600 v 1200 h -1600 z"/></clipPath><g mask="url(#b)"><g clip-path="url(#c)" transform="matrix(1 0 0 1 -196 -896)"><path d="m 550 182 c -0.351562 0.003906 -0.695312 0.101562 -1 0.28125 v 3.4375 c 0.304688 0.179688 0.648438 0.277344 1 0.28125 c 1.105469 0 2 -0.894531 2 -2 s -0.894531 -2 -2 -2 z m 0 5 c -0.339844 0 -0.679688 0.058594 -1 0.175781 v 6.824219 h 4 v -4 c 0 -1.65625 -1.34375 -3 -3 -3 z m 0 0"/></g></g><g mask="url(#d)"><g clip-path="url(#e)" transform="matrix(1 0 0 1 -196 -896)"><path d="m 569 182 v 4 c 1.105469 0 2 -0.894531 2 -2 s -0.894531 -2 -2 -2 z m 0 5 v 7 h 3 v -4 c 0 -1.65625 -1.34375 -3 -3 -3 z m 0 0"/></g></g><g mask="url(#f)"><g clip-path="url(#g)" transform="matrix(1 0 0 1 -196 -896)"><path d="m 573 182.269531 v 3.449219 c 0.613281 -0.355469 0.996094 -1.007812 1 -1.71875 c 0 -0.714844 -0.382812 -1.375 -1 -1.730469 z m 0 4.90625 v 6.824219 h 2 v -4 c 0 -1.269531 -0.800781 -2.402344 -2 -2.824219 z m 0 0"/></g></g><path d="m 12.957031 0.980469 c -0.523437 0.015625 -1.015625 0.234375 -1.375 0.605469 l -1.585937 1.585937 l -1.085938 -1.085937 c -0.097656 -0.09375 -0.226562 -0.148438 -0.363281 -0.148438 c -0.128906 0.003906 -0.253906 0.054688 -0.34375 0.148438 l -2.121094 2.121093 c -0.195312 0.195313 -0.195312 0.511719 0 0.707031 l 0.644531 0.648438 l -5.585937 5.582031 c -0.09375 0.097657 -0.144531 0.222657 -0.144531 0.355469 v 1.792969 l -0.855469 0.851562 c -0.1953125 0.195313 -0.1953125 0.515625 0 0.710938 l 1 1 c 0.195313 0.191406 0.511719 0.191406 0.707031 0 l 0.855469 -0.855469 h 1.792969 c 0.128906 0 0.257812 -0.050781 0.351562 -0.144531 l 5.585938 -5.585938 l 0.648437 0.644531 c 0.191407 0.195313 0.511719 0.195313 0.707031 0 l 2.121094 -2.121093 c 0.191406 -0.195313 0.191406 -0.511719 0 -0.707031 l -1.085937 -1.085938 l 1.585937 -1.585938 c 1.304688 -1.273437 0.367188 -3.488281 -1.453125 -3.433593 z m -5.023437 5.789062 l 1.292968 1.292969 l -2.9375 2.9375 h -2.585937 z m 0 0" fill="#222222"/></svg>
