<svg xmlns="http://www.w3.org/2000/svg" width="16" height="16">
    <filter id="a" width="100%" height="100%" x="0%" y="0%">
        <feColorMatrix in="SourceGraphic" values="0 0 0 0 1 0 0 0 0 1 0 0 0 0 1 0 0 0 1 0"/>
    </filter>
    <mask id="c">
        <g filter="url(#a)">
            <path fill-opacity=".3" d="M0 0h16v16H0z"/>
        </g>
    </mask>
    <clipPath id="b">
        <path d="M0 0h1600v1200H0z"/>
    </clipPath>
    <mask id="e">
        <g filter="url(#a)">
            <path fill-opacity=".05" d="M0 0h16v16H0z"/>
        </g>
    </mask>
    <clipPath id="d">
        <path d="M0 0h1600v1200H0z"/>
    </clipPath>
    <mask id="g">
        <g filter="url(#a)">
            <path fill-opacity=".05" d="M0 0h16v16H0z"/>
        </g>
    </mask>
    <clipPath id="f">
        <path d="M0 0h1600v1200H0z"/>
    </clipPath>
    <mask id="i">
        <g filter="url(#a)">
            <path fill-opacity=".05" d="M0 0h16v16H0z"/>
        </g>
    </mask>
    <clipPath id="h">
        <path d="M0 0h1600v1200H0z"/>
    </clipPath>
    <mask id="k">
        <g filter="url(#a)">
            <path fill-opacity=".05" d="M0 0h16v16H0z"/>
        </g>
    </mask>
    <clipPath id="j">
        <path d="M0 0h1600v1200H0z"/>
    </clipPath>
    <mask id="m">
        <g filter="url(#a)">
            <path fill-opacity=".05" d="M0 0h16v16H0z"/>
        </g>
    </mask>
    <clipPath id="l">
        <path d="M0 0h1600v1200H0z"/>
    </clipPath>
    <mask id="o">
        <g filter="url(#a)">
            <path fill-opacity=".05" d="M0 0h16v16H0z"/>
        </g>
    </mask>
    <clipPath id="n">
        <path d="M0 0h1600v1200H0z"/>
    </clipPath>
    <mask id="q">
        <g filter="url(#a)">
            <path fill-opacity=".3" d="M0 0h16v16H0z"/>
        </g>
    </mask>
    <clipPath id="p">
        <path d="M0 0h1600v1200H0z"/>
    </clipPath>
    <mask id="s">
        <g filter="url(#a)">
            <path fill-opacity=".5" d="M0 0h16v16H0z"/>
        </g>
    </mask>
    <clipPath id="r">
        <path d="M0 0h1600v1200H0z"/>
    </clipPath>
    <g clip-path="url(#b)" mask="url(#c)" transform="translate(-196 -776)">
        <path fill="#2e3436" d="M562.46 212.059h10.45c-1.183.492-1.297 2.46 0 3h-10.45zm0 0"/>
    </g>
    <g clip-path="url(#d)" mask="url(#e)" transform="translate(-196 -776)">
        <path fill="#2e3436" fill-rule="evenodd" d="M16 748h1v1h-1zm0 0"/>
    </g>
    <g clip-path="url(#f)" mask="url(#g)" transform="translate(-196 -776)">
        <path fill="#2e3436" fill-rule="evenodd" d="M17 747h1v1h-1zm0 0"/>
    </g>
    <g clip-path="url(#h)" mask="url(#i)" transform="translate(-196 -776)">
        <path fill="#2e3436" fill-rule="evenodd" d="M18 750h1v1h-1zm0 0"/>
    </g>
    <g clip-path="url(#j)" mask="url(#k)" transform="translate(-196 -776)">
        <path fill="#2e3436" fill-rule="evenodd" d="M16 750h1v1h-1zm0 0"/>
    </g>
    <g clip-path="url(#l)" mask="url(#m)" transform="translate(-196 -776)">
        <path fill="#2e3436" fill-rule="evenodd" d="M17 751h1v1h-1zm0 0"/>
    </g>
    <g clip-path="url(#n)" mask="url(#o)" transform="translate(-196 -776)">
        <path fill="#2e3436" fill-rule="evenodd" d="M19 751h1v1h-1zm0 0"/>
    </g>
    <g clip-path="url(#p)" mask="url(#q)" transform="translate(-196 -776)">
        <path fill="#2e3436" d="M136 776v7h7v-7zm0 0"/>
    </g>
    <g clip-path="url(#r)" mask="url(#s)" transform="translate(-196 -776)">
        <path fill="#2e3436" d="M219 758h3v12h-3zm0 0"/>
    </g>
    <path fill="#2e3436" fill-rule="evenodd" d="M12.957.98a1.996 1.996 0 0 0-1.375.606L9.996 3.172 8.91 2.086a.525.525 0 0 0-.363-.148.495.495 0 0 0-.344.148L6.082 4.207a.5.5 0 0 0 0 .707l.645.649-5.586 5.582a.51.51 0 0 0-.145.355v1.793l-.855.852a.505.505 0 0 0 0 .71l1 1a.507.507 0 0 0 .707 0L2.703 15h1.793a.5.5 0 0 0 .352-.145l5.586-5.585.648.644a.5.5 0 0 0 .707 0l2.121-2.121a.507.507 0 0 0 0-.707L12.824 6l1.586-1.586c1.305-1.273.367-3.488-1.453-3.434zM7.934 6.77l1.293 1.293L6.289 11H3.703zm0 0"/>
</svg>
