<svg xmlns="http://www.w3.org/2000/svg" width="16" height="16">
    <path d="M4 0C2.355 0 1 1.355 1 3v10c0 1.645 1.355 3 3 3h3v-3H4c-.555 0-1-.445-1-1V3c0-.555.445-1 1-1h8c.57 0 1 .43 1 1v4h2V3c0-1.645-1.355-3-3-3H4zm4 3C5.79 3 4 4.79 4 7v4h3V8.73A1.999 1.999 0 0 1 8 5a2 2 0 0 1 2 2h2c0-2.21-1.79-4-4-4z" style="fill:#2e3436;fill-opacity:1"/>
    <path fill="#ff7800" d="M9.5 8C8.668 8 8 8.668 8 9.5v5c0 .832.668 1.5 1.5 1.5h5c.832 0 1.5-.668 1.5-1.5v-5c0-.832-.668-1.5-1.5-1.5ZM11 9h2v2.5s0 .5-.5.5h-1c-.5 0-.5-.5-.5-.5Zm.5 4h1c.277 0 .5.223.5.5v1c0 .277-.223.5-.5.5h-1a.498.498 0 0 1-.5-.5v-1c0-.277.223-.5.5-.5Zm0 0" class="warning"/>
</svg>
