<svg xmlns="http://www.w3.org/2000/svg" width="16" height="16">
    <filter id="a" width="100%" height="100%" x="0%" y="0%">
        <feColorMatrix in="SourceGraphic" values="0 0 0 0 1 0 0 0 0 1 0 0 0 0 1 0 0 0 1 0"/>
    </filter>
    <mask id="c">
        <g filter="url(#a)">
            <path fill-opacity=".3" d="M0 0h16v16H0z"/>
        </g>
    </mask>
    <clipPath id="b">
        <path d="M0 0h1600v1200H0z"/>
    </clipPath>
    <mask id="e">
        <g filter="url(#a)">
            <path fill-opacity=".05" d="M0 0h16v16H0z"/>
        </g>
    </mask>
    <clipPath id="d">
        <path d="M0 0h1600v1200H0z"/>
    </clipPath>
    <mask id="g">
        <g filter="url(#a)">
            <path fill-opacity=".05" d="M0 0h16v16H0z"/>
        </g>
    </mask>
    <clipPath id="f">
        <path d="M0 0h1600v1200H0z"/>
    </clipPath>
    <mask id="i">
        <g filter="url(#a)">
            <path fill-opacity=".05" d="M0 0h16v16H0z"/>
        </g>
    </mask>
    <clipPath id="h">
        <path d="M0 0h1600v1200H0z"/>
    </clipPath>
    <mask id="k">
        <g filter="url(#a)">
            <path fill-opacity=".05" d="M0 0h16v16H0z"/>
        </g>
    </mask>
    <clipPath id="j">
        <path d="M0 0h1600v1200H0z"/>
    </clipPath>
    <mask id="m">
        <g filter="url(#a)">
            <path fill-opacity=".05" d="M0 0h16v16H0z"/>
        </g>
    </mask>
    <clipPath id="l">
        <path d="M0 0h1600v1200H0z"/>
    </clipPath>
    <mask id="o">
        <g filter="url(#a)">
            <path fill-opacity=".05" d="M0 0h16v16H0z"/>
        </g>
    </mask>
    <clipPath id="n">
        <path d="M0 0h1600v1200H0z"/>
    </clipPath>
    <mask id="q">
        <g filter="url(#a)">
            <path fill-opacity=".3" d="M0 0h16v16H0z"/>
        </g>
    </mask>
    <clipPath id="p">
        <path d="M0 0h1600v1200H0z"/>
    </clipPath>
    <mask id="s">
        <g filter="url(#a)">
            <path fill-opacity=".5" d="M0 0h16v16H0z"/>
        </g>
    </mask>
    <clipPath id="r">
        <path d="M0 0h1600v1200H0z"/>
    </clipPath>
    <g clip-path="url(#b)" mask="url(#c)" transform="translate(-256 -776)">
        <path fill="#2e3436" d="M562.46 212.059h10.45c-1.183.492-1.297 2.46 0 3h-10.45zm0 0"/>
    </g>
    <g clip-path="url(#d)" mask="url(#e)" transform="translate(-256 -776)">
        <path fill="#2e3436" fill-rule="evenodd" d="M16 748h1v1h-1zm0 0"/>
    </g>
    <g clip-path="url(#f)" mask="url(#g)" transform="translate(-256 -776)">
        <path fill="#2e3436" fill-rule="evenodd" d="M17 747h1v1h-1zm0 0"/>
    </g>
    <g clip-path="url(#h)" mask="url(#i)" transform="translate(-256 -776)">
        <path fill="#2e3436" fill-rule="evenodd" d="M18 750h1v1h-1zm0 0"/>
    </g>
    <g clip-path="url(#j)" mask="url(#k)" transform="translate(-256 -776)">
        <path fill="#2e3436" fill-rule="evenodd" d="M16 750h1v1h-1zm0 0"/>
    </g>
    <g clip-path="url(#l)" mask="url(#m)" transform="translate(-256 -776)">
        <path fill="#2e3436" fill-rule="evenodd" d="M17 751h1v1h-1zm0 0"/>
    </g>
    <g clip-path="url(#n)" mask="url(#o)" transform="translate(-256 -776)">
        <path fill="#2e3436" fill-rule="evenodd" d="M19 751h1v1h-1zm0 0"/>
    </g>
    <g clip-path="url(#p)" mask="url(#q)" transform="translate(-256 -776)">
        <path fill="#2e3436" d="M136 776v7h7v-7zm0 0"/>
    </g>
    <g clip-path="url(#r)" mask="url(#s)" transform="translate(-256 -776)">
        <path fill="#2e3436" d="M219 758h3v12h-3zm0 0"/>
    </g>
    <path fill="#2e3436" d="M7.996 0c-1.11 0-2 .89-2 2v3.004c0 .633-.48.996-1 .996h-1c-1.11 0-2 .89-2 2v1h12V8c0-1.11-.894-2-2-2h-.976c-.532 0-1.024-.36-1.024-1V2c0-1.11-.894-2-2-2zm0 1.406c.324 0 .594.266.594.594s-.27.594-.594.594a.593.593 0 1 1 0-1.188zM2 10h12l-.8 5.004c-.2.82-.7.996-1.247.996H10v-3l-1.125 3H7.027L7 13l-1.035 3H5v-1.5L4 16H1l.21-1.047zm0 0"/>
</svg>
