<svg xmlns="http://www.w3.org/2000/svg" width="16" height="16"><path fill="#2e3436" d="M7.5 1.02a.995.995 0 0 0-.996.996v.453c-.473.129-.93.32-1.356.566l-.324-.324a.995.995 0 0 0-1.41 0l-.703.707a.995.995 0 0 0 0 1.41l.32.32a5.712 5.712 0 0 0-.562 1.356h-.453a.995.995 0 0 0-.996.996v1c0 .55.445.996.996.996h.449c.133.473.32.93.566 1.356l-.32.32a.995.995 0 0 0 0 1.41l.703.707c.39.39 1.02.39 1.41 0l.32-.32c.43.242.883.433 1.36.558v.457c0 .551.445.996.996.996h.996c.555 0 1-.445 1-.996v-.453c.473-.129.93-.32 1.356-.566l.32.324c.39.39 1.02.39 1.41 0l.707-.707a.995.995 0 0 0 0-1.41l-.32-.32a5.7 5.7 0 0 0 .558-1.356h.453c.555 0 1-.445 1-.996v-1a.996.996 0 0 0-1-.996h-.449a5.724 5.724 0 0 0-.566-1.356l.324-.32a.995.995 0 0 0 0-1.41l-.707-.707a.995.995 0 0 0-1.41 0l-.32.32a5.867 5.867 0 0 0-1.356-.558v-.457a.996.996 0 0 0-1-.996zm.516 3.976c1.66 0 3 1.344 3 3s-1.34 3-3 3a3 3 0 0 1 0-6zm0 0"/></svg>