<?xml version="1.0" encoding="UTF-8"?>
<svg xmlns="http://www.w3.org/2000/svg" xmlns:xlink="http://www.w3.org/1999/xlink" height="16px" viewBox="0 0 16 16" width="16px"><filter id="a" height="100%" width="100%" x="0%" y="0%"><feColorMatrix color-interpolation-filters="sRGB" values="0 0 0 0 1 0 0 0 0 1 0 0 0 0 1 0 0 0 1 0"/></filter><mask id="b"><g filter="url(#a)"><path d="m -1.6 -1.6 h 19.2 v 19.2 h -19.2 z" fill-opacity="0.5"/></g></mask><clipPath id="c"><path d="m 0 0 h 1600 v 1200 h -1600 z"/></clipPath><mask id="d"><g filter="url(#a)"><path d="m -1.6 -1.6 h 19.2 v 19.2 h -19.2 z" fill-opacity="0.7"/></g></mask><clipPath id="e"><path d="m 0 0 h 1600 v 1200 h -1600 z"/></clipPath><mask id="f"><g filter="url(#a)"><path d="m -1.6 -1.6 h 19.2 v 19.2 h -19.2 z" fill-opacity="0.35"/></g></mask><clipPath id="g"><path d="m 0 0 h 1600 v 1200 h -1600 z"/></clipPath><path d="m 8.003906 0 c -0.433594 0 -0.816406 0.273438 -0.953125 0.683594 l -1.449219 4.339844 l -4.589843 -0.015626 c -0.4375 0 -0.828125 0.28125 -0.9609378 0.695313 c -0.1328124 0.417969 0.0195313 0.871094 0.3789068 1.125 l 3.625 2.554687 l -1.5 4.285157 c -0.140626 0.40625 -0.011719 0.855469 0.328124 1.121093 c 0.335938 0.261719 0.804688 0.285157 1.164063 0.050782 l 4.003906 -2.59375 l 3.898438 2.589844 c 0.355469 0.234374 0.824219 0.21875 1.164062 -0.046876 c 0.339844 -0.261718 0.472657 -0.714843 0.332031 -1.117187 l -1.503906 -4.289063 l 3.644532 -2.578124 c 0.351562 -0.25 0.503906 -0.703126 0.371093 -1.113282 c -0.128906 -0.414062 -0.511719 -0.695312 -0.945312 -0.699218 l -4.660157 -0.015626 l -1.402343 -4.285156 c -0.132813 -0.410156 -0.515625 -0.68749975 -0.945313 -0.691406 z m -0.011718 4.1875 l 0.683593 2.097656 c 0.136719 0.410156 0.515625 0.6875 0.945313 0.6875 l 2.253906 0.007813 l -1.703125 1.203125 c -0.363281 0.257812 -0.511719 0.726562 -0.363281 1.148437 l 0.765625 2.191407 l -1.964844 -1.304688 c -0.332031 -0.21875 -0.761719 -0.222656 -1.097656 -0.007812 l -2.101563 1.363281 l 0.785156 -2.242188 c 0.148438 -0.421875 -0.003906 -0.890625 -0.367187 -1.148437 l -1.652344 -1.164063 l 2.144531 0.007813 c 0.429688 0 0.816407 -0.277344 0.949219 -0.683594 z m 0 0" fill="#222222" fill-opacity="0.34902"/><g mask="url(#b)"><g clip-path="url(#c)" transform="matrix(1 0 0 1 -620 -480)"><path d="m 550 182 c -0.351562 0.003906 -0.695312 0.101562 -1 0.28125 v 3.4375 c 0.304688 0.179688 0.648438 0.277344 1 0.28125 c 1.105469 0 2 -0.894531 2 -2 s -0.894531 -2 -2 -2 z m 0 5 c -0.339844 0 -0.679688 0.058594 -1 0.175781 v 6.824219 h 4 v -4 c 0 -1.65625 -1.34375 -3 -3 -3 z m 0 0"/></g></g><g mask="url(#d)"><g clip-path="url(#e)" transform="matrix(1 0 0 1 -620 -480)"><path d="m 569 182 v 4 c 1.105469 0 2 -0.894531 2 -2 s -0.894531 -2 -2 -2 z m 0 5 v 7 h 3 v -4 c 0 -1.65625 -1.34375 -3 -3 -3 z m 0 0"/></g></g><g mask="url(#f)"><g clip-path="url(#g)" transform="matrix(1 0 0 1 -620 -480)"><path d="m 573 182.269531 v 3.449219 c 0.613281 -0.355469 0.996094 -1.007812 1 -1.71875 c 0 -0.714844 -0.382812 -1.375 -1 -1.730469 z m 0 4.90625 v 6.824219 h 2 v -4 c 0 -1.269531 -0.800781 -2.402344 -2 -2.824219 z m 0 0"/></g></g></svg>
